<?xml version="1.0" encoding="UTF-8" standalone="no"?>
<svg
   xmlns:dc="http://purl.org/dc/elements/1.1/"
   xmlns:cc="http://creativecommons.org/ns#"
   xmlns:rdf="http://www.w3.org/1999/02/22-rdf-syntax-ns#"
   xmlns:svg="http://www.w3.org/2000/svg"
   xmlns="http://www.w3.org/2000/svg"
   xmlns:sodipodi="http://sodipodi.sourceforge.net/DTD/sodipodi-0.dtd"
   xmlns:inkscape="http://www.inkscape.org/namespaces/inkscape"
   id="svg8"
   version="1.1"
   viewBox="0 0 352.18353 165.50658"
   height="165.50658mm"
   width="352.18353mm"
   sodipodi:docname="drawing.svg"
   inkscape:version="0.92.4 (5da689c313, 2019-01-14)">
  <sodipodi:namedview
     pagecolor="#ffffff"
     bordercolor="#666666"
     borderopacity="1"
     objecttolerance="10"
     gridtolerance="10"
     guidetolerance="10"
     inkscape:pageopacity="0"
     inkscape:pageshadow="2"
     inkscape:window-width="1316"
     inkscape:window-height="709"
     id="namedview921"
     showgrid="false"
     showborder="false"
     fit-margin-top="0"
     fit-margin-left="0"
     fit-margin-right="0"
     fit-margin-bottom="0"
     inkscape:zoom="0.29228668"
     inkscape:cx="271.1026"
     inkscape:cy="251.67124"
     inkscape:window-x="50"
     inkscape:window-y="27"
     inkscape:window-maximized="1"
     inkscape:current-layer="svg8" />
  <defs
     id="defs2">
    <clipPath
       id="clipPath6304"
       clipPathUnits="userSpaceOnUse">
      <path
         id="path6306"
         d="m -508.10673,556.83425 176.7767,52.52795 262.639655,-403.05087 -85.862965,-49.49748 -137.38075,11.11168 -150.51272,113.13708 z"
         style="fill:#1f241c;stroke:#000000;stroke-width:0.99999994px;stroke-linecap:butt;stroke-linejoin:miter;stroke-opacity:1"
         inkscape:connector-curvature="0" />
    </clipPath>
    <clipPath
       id="clipPath6304-7"
       clipPathUnits="userSpaceOnUse">
      <path
         id="path6306-0"
         d="m -508.10673,556.83425 176.7767,52.52795 262.639655,-403.05087 -85.862965,-49.49748 -137.38075,11.11168 -150.51272,113.13708 z"
         style="fill:#1f241c;stroke:#000000;stroke-width:0.99999994px;stroke-linecap:butt;stroke-linejoin:miter;stroke-opacity:1"
         inkscape:connector-curvature="0" />
    </clipPath>
    <clipPath
       id="clipPath6304-79"
       clipPathUnits="userSpaceOnUse">
      <path
         id="path6306-2"
         d="m -508.10673,556.83425 176.7767,52.52795 262.639655,-403.05087 -85.862965,-49.49748 -137.38075,11.11168 -150.51272,113.13708 z"
         style="fill:#1f241c;stroke:#000000;stroke-width:0.99999994px;stroke-linecap:butt;stroke-linejoin:miter;stroke-opacity:1"
         inkscape:connector-curvature="0" />
    </clipPath>
    <clipPath
       id="clipPath6428"
       clipPathUnits="userSpaceOnUse">
      <path
         id="path6430"
         d="m -522.11748,554.93251 c 45.95928,10.96788 199.1259,39.19801 199.1259,39.19801 L 53.309292,125.32234 -271.25021,73.580966 c 0,0 -457.83276,185.014604 -443.72148,205.397554 14.11128,20.38298 192.85421,275.95399 192.85421,275.95399 z"
         style="fill:#1f241c;stroke:#000000;stroke-width:0.99999994px;stroke-linecap:butt;stroke-linejoin:miter;stroke-opacity:1"
         inkscape:connector-curvature="0" />
    </clipPath>
  </defs>
  <metadata
     id="metadata5">
    <rdf:RDF>
      <cc:Work
         rdf:about="">
        <dc:format>image/svg+xml</dc:format>
        <dc:type
           rdf:resource="http://purl.org/dc/dcmitype/StillImage" />
        <dc:title></dc:title>
      </cc:Work>
    </rdf:RDF>
  </metadata>
  <g
     id="layer1"
     transform="translate(-25.946332,-16.51984)">
    <path
       clip-path="url(#clipPath6428)"
       id="path6249-3"
       transform="matrix(0.2623728,0,0,0.25276542,249.13881,-25.145516)"
       d="m -131.06836,183.20312 c 0,0 -4.60607,2.39315 -12.78711,7.01368 -4.09051,2.31027 -9.07464,5.17845 -14.82422,8.58203 -5.74957,3.40359 -12.26486,7.34115 -19.41601,11.79687 -7.15116,4.45571 -14.93718,9.42791 -23.23242,14.89453 -8.29528,5.46663 -17.09933,11.4289 -26.28126,17.86524 -9.18189,6.43633 -18.74359,13.3461 -28.55468,20.71094 -9.81109,7.36483 -19.8719,15.18536 -30.05469,23.4375 -10.18281,8.25213 -20.48617,16.93693 -30.7832,26.03515 -5.14852,4.54911 -10.29503,9.20217 -15.42383,13.95508 -1.2475,1.15607 -2.99532,2.33565 -4.23633,3.51953 -22.84317,19.84184 -58.97825,49.36624 -88.75195,89.36524 -4.50447,-20.70085 -15.86301,-39.76685 -25.35938,-53.5293 0.0625,0.1047 0.0995,0.16964 -0.0488,-0.0723 -1.55684,-2.53955 -3.14461,-5.05571 -4.75585,-7.54296 -3.22252,-4.97454 -6.53744,-9.83574 -9.88672,-14.54688 -3.34927,-4.71113 -6.73111,-9.27304 -10.08594,-13.64844 -3.35483,-4.3754 -6.6827,-8.56391 -9.92188,-12.53125 -3.23918,-3.96734 -6.39025,-7.71423 -9.39257,-11.20117 -3.00232,-3.48694 -5.85574,-6.71422 -8.5,-9.64844 -2.64427,-2.93421 -5.07914,-5.57365 -7.24415,-7.88281 -2.165,-2.30915 -4.06046,-4.28862 -5.625,-5.90039 -3.12907,-3.22354 -4.93554,-4.98047 -4.93554,-4.98047 -1.01129,0.88755 -1.9624,1.81027 -2.84961,2.76367 -1.20634,1.35256 -2.28714,2.76434 -3.23828,4.23242 -0.95174,1.46814 -1.77201,2.98954 -2.45899,4.5586 -0.68651,1.56898 -1.23934,3.18371 -1.65429,4.83789 v 0.002 c -0.41555,1.65417 -0.6942,3.34548 -0.83399,5.06836 -0.13912,1.72304 -0.13998,3.47551 -0.002,5.25 0.1381,1.7745 0.41621,3.56873 0.83008,5.37696 h -0.002 c 0.41292,1.80794 0.96393,3.6275 1.64844,5.45117 0.6853,1.8239 1.50498,3.64935 2.45508,5.4707 0.95002,1.82095 2.02916,3.63535 3.23437,5.43555 0.8533,1.27493 1.76984,2.54201 2.7461,3.79882 1.37852,1.77469 2.87659,3.52849 4.48828,5.25196 1.61169,1.72374 3.33523,3.41696 5.16406,5.07226 1.82933,1.65528 3.76282,3.26958 5.79102,4.83985 2.0281,1.57039 4.14873,3.09476 6.35547,4.56445 2.20672,1.46944 4.49612,2.88226 6.85937,4.23633 2.36359,1.35421 4.79839,2.64778 7.29492,3.87305 2.49601,1.22504 5.05034,2.38092 7.6543,3.46484 h 0.002 c 2.60414,1.08439 5.2533,2.09493 7.93946,3.02734 2.68622,0.93208 5.40513,1.78587 8.14648,2.55664 0.9944,0.25921 1.99026,0.507 2.98828,0.74414 13.23716,23.13364 20.30887,46.2917 24.10352,64.46485 -24.25483,36.25213 -42.29566,80.30217 -41.65039,132.66406 4.633,-10.26621 22.71349,-48.95451 52.3164,-96.11719 9.94885,-4.77848 23.81135,-10.1082 39.08399,-12.01172 0.31078,0.38229 0.6263,0.75973 0.94726,1.13282 0.91254,1.00937 1.86238,1.97938 2.84375,2.9082 0.98153,0.92867 1.99462,1.81549 3.03516,2.6543 1.04027,0.83889 2.10642,1.6304 3.19531,2.37109 1.08911,0.74087 2.19931,1.42923 3.32617,2.06445 1.12674,0.63512 2.26865,1.21512 3.42188,1.73828 1.15335,0.52309 2.31606,0.98867 3.48437,1.39454 1.16827,0.40595 2.34016,0.75241 3.51172,1.03711 1.17148,0.28445 2.34086,0.5076 3.50391,0.66796 h 0.002 c 1.16292,0.16047 2.31806,0.25817 3.46094,0.29297 0.80938,0.0246 1.61182,0.0171 2.40625,-0.0215 1.1218,-0.0543 2.22612,-0.17177 3.30859,-0.35156 1.08269,-0.17991 2.14132,-0.42097 3.17383,-0.72461 1.03224,-0.30393 2.03607,-0.66915 3.00781,-1.09375 h 0.002 c 0.97205,-0.42426 1.91063,-0.90849 2.8125,-1.44922 0.90185,-0.54076 1.76525,-1.13724 2.58789,-1.78906 0.82244,-0.65209 1.60289,-1.35861 2.33789,-2.11524 0.73511,-0.75635 1.4241,-1.56268 2.06445,-2.41601 0.6403,-0.85357 1.23042,-1.75329 1.76953,-2.69532 0.53921,-0.94174 1.02632,-1.92453 1.45899,-2.94531 0.29782,-0.73665 0.56735,-1.49189 0.80859,-2.26367 0,0 -1.21671,-0.24044 -3.41406,-0.59375 -1.09868,-0.17665 -2.44275,-0.38006 -4.00195,-0.59766 -1.55921,-0.2176 -3.33441,-0.44883 -5.29493,-0.67578 -1.96051,-0.22695 -4.10558,-0.44958 -6.4082,-0.6543 -2.30263,-0.20471 -4.76213,-0.39208 -7.34766,-0.54296 -2.58551,-0.15089 -5.29821,-0.26657 -8.10742,-0.33204 -2.8092,-0.0655 -5.71577,-0.0789 -8.68945,-0.0273 -2.97369,0.0515 -6.01285,0.16901 -9.0918,0.36914 -1.53948,0.10007 -3.08984,0.22014 -4.64453,0.36328 -0.37815,0.0348 -0.86472,-0.002 -1.24414,0.0391 -7.31525,0.40552 -19.00568,0.64662 -29.90625,4.68165 24.44107,-37.6105 55.73207,-79.35747 93.04297,-115.92969 1.71462,0.60076 3.43951,1.17051 5.17383,1.70898 4.84474,1.33705 9.74996,2.43087 14.69726,3.27735 4.94759,0.84551 9.93102,1.44261 14.93164,1.78906 h 0.002 c 4.99984,0.34748 10.01066,0.44396 15.01367,0.28906 5.00402,-0.15483 9.99397,-0.56094 14.95117,-1.2168 4.95656,-0.6559 9.87416,-1.56068 14.73438,-2.71093 4.86049,-1.15089 9.65751,-2.54587 14.37304,-4.17969 4.71553,-1.63338 9.34371,-3.50355 13.86719,-5.60352 4.52279,-2.10066 8.9352,-4.42844 13.2207,-6.97461 h 0.002 c 4.28519,-2.54544 8.43817,-5.30605 12.44335,-8.27148 2.83646,-2.10011 5.59665,-4.30136 8.2754,-6.59961 3.7829,-3.24467 7.39939,-6.67931 10.83593,-10.29101 h 0.002 c 3.4371,-3.61269 6.68986,-7.39801 9.74609,-11.3418 3.05482,-3.94413 5.90929,-8.0417 8.55273,-12.27735 v -0.002 c 2.64512,-4.2352 5.07589,-8.60329 7.28321,-13.08789 2.20721,-4.48468 4.1882,-9.08027 5.93554,-13.76953 1.7462,-4.68969 3.25656,-9.46714 4.5254,-14.31445 v -0.002 c 1.26969,-4.8466 2.29639,-9.75703 3.07617,-14.71289 0.77919,-4.95662 1.31045,-9.95244 1.59179,-14.96875 0.28214,-5.01547 0.31409,-10.04519 0.0957,-15.07031 -0.20737,-3.58734 -0.54222,-7.16775 -1.00391,-10.73438 z M -476.1582,565.90039 c -0.78863,1.74752 -1.26368,2.82617 -1.26368,2.82617 10e-6,0 8.75862,172.53136 1.45899,4.38672 -0.10509,-2.4206 -0.16587,-4.82337 -0.19531,-7.21289 z"
       style="opacity:0.9;fill:#00aa44;fill-opacity:1;stroke:#000000;stroke-width:0;stroke-linejoin:round;stroke-miterlimit:4;stroke-dasharray:none;stroke-dashoffset:0;stroke-opacity:1"
       inkscape:connector-curvature="0" />
    <path
       id="path6253"
       d="m 214.74984,21.162002 a 41.049503,45.240021 2.1519992 0 0 -3.63793,-1.746723 41.049503,45.240021 2.1519992 0 0 -3.89885,-1.37848 41.049503,45.240021 2.1519992 0 0 -4.00742,-0.941373 41.049503,45.240021 2.1519992 0 0 -4.0761,-0.494852 41.049503,45.240021 2.1519992 0 0 -4.10339,-0.0441 41.049503,45.240021 2.1519992 0 0 -4.08958,0.407924 41.049503,45.240021 2.1519992 0 0 -4.03522,0.854707 41.049503,45.240021 2.1519992 0 0 -3.94073,1.294452 41.049503,45.240021 2.1519992 0 0 -3.80656,1.719487 41.049503,45.240021 2.1519992 0 0 -3.63476,2.129071 41.049503,45.240021 2.1519992 0 0 -3.42539,2.516734 41.049503,45.240021 2.1519992 0 0 -2.28142,2.002562 41.049503,45.240021 2.1519992 0 0 -2.99178,3.118514 41.049503,45.240021 2.1519992 0 0 -5.7e-4,5.45e-4 41.049503,45.240021 2.1519992 0 0 -2.69656,3.429009 41.049503,45.240021 2.1519992 0 0 -2.37467,3.706785 41.049503,45.240021 2.1519992 0 0 -2.02839,3.946962 41.049503,45.240021 2.1519992 0 0 -1.66232,4.146855 41.049503,45.240021 2.1519992 0 0 -1.27971,4.306802 41.049503,45.240021 2.1519992 0 0 -0.8834,4.422485 41.049503,45.240021 2.1519992 0 0 -0.47984,4.494015 41.049503,45.240021 2.1519992 0 0 -4e-5,5.82e-4 41.049503,45.240021 2.1519992 0 0 -0.0134,0.868088 c 0.95234,-1.046492 1.90786,-2.092079 2.9034,-3.123856 1.27558,-1.322016 2.58708,-2.631515 3.93537,-3.925007 1.3483,-1.293495 2.73333,-2.571007 4.15635,-3.831086 1.42301,-1.260081 2.88403,-2.502571 4.38377,-3.724337 1.49974,-1.221767 3.03843,-2.423319 4.6169,-3.601878 1.57847,-1.178559 3.19658,-2.333841 4.85579,-3.464296 1.65921,-1.130452 3.35914,-2.235849 5.1011,-3.313301 1.74196,-1.077449 3.52594,-2.127005 5.35265,-3.146559 1.82671,-1.019555 3.69604,-2.009142 5.60951,-2.9659 1.91347,-0.956761 3.87094,-1.880973 5.87317,-2.770042 2.00225,-0.889068 4.04966,-1.743156 6.14266,-2.55964 2.09301,-0.816482 4.23157,-1.595155 6.41735,-2.334154 z"
       style="opacity:0.9;fill:#00d455;fill-opacity:1;stroke:#000000;stroke-width:0;stroke-linejoin:round;stroke-miterlimit:4;stroke-dasharray:none;stroke-dashoffset:0;stroke-opacity:1"
       inkscape:connector-curvature="0" />
    <path
       id="path10"
       d="m 94.005635,44.08007 a 68.791663,69.547623 60 0 0 -8.076512,0.747758 68.791663,69.547623 60 0 0 -12.290722,84.081172 68.791663,69.547623 60 0 0 63.408019,34.0341 68.791663,69.547623 60 0 1 -84.574685,-29.49846 68.791663,69.547623 60 0 1 8.320939,-79.906749 68.791663,69.547623 60 0 0 -25.70799,94.269699 68.791663,69.547623 60 0 0 94.625746,24.80158 68.791663,69.547623 60 0 0 17.51314,-14.44201 68.791663,69.547623 60 0 1 -0.12609,0.0791 68.791663,69.547623 60 0 1 -3.175,1.62936 68.791663,69.547623 60 0 1 -13.5878,-16.60364 68.791663,69.547623 60 0 1 -2.97243,-5.80843 68.791663,69.547623 60 0 0 23.88898,15.68276 68.791663,69.547623 60 0 0 13.02401,-47.64102 69.547623,68.791663 30 0 0 -48.30351,33.23105 69.547623,68.791663 30 0 0 -4.83691,10.31875 A 68.791663,69.547623 60 0 1 93.293016,128.909 68.791663,69.547623 60 0 1 105.61474,44.799406 68.791663,69.547623 60 0 0 94.005635,44.08007 Z m 30.853925,93.72348 a 68.791663,69.547623 60 0 0 6.86677,21.93406 68.791663,69.547623 60 0 1 -8.97103,-3.55689 68.791663,69.547623 60 0 1 2.10426,-18.37717 z"
       style="opacity:0.97000002;fill:#80b3ff;fill-opacity:1;stroke:#000000;stroke-width:0;stroke-linejoin:round;stroke-miterlimit:4;stroke-dasharray:none;stroke-dashoffset:0;stroke-opacity:1"
       inkscape:connector-curvature="0" />
    <path
       id="path6253-9"
       d="m 112.39786,45.349669 c 0.74608,0.08908 1.49193,0.20249 2.23494,0.339767 0.76616,0.142335 1.52828,0.309889 2.28352,0.502043 0.75526,0.192209 1.50269,0.408777 2.23946,0.64889 0.73685,0.24018 1.46213,0.503603 2.17312,0.78929 0.71099,0.285629 1.40681,0.59316 2.08487,0.921446 0.67797,0.328304 1.33732,0.676945 1.97557,1.044615 0.63831,0.367607 1.25472,0.753785 1.84694,1.157088 0.59219,0.403391 1.15944,0.823403 1.6996,1.25846 0.54024,0.434955 1.0527,0.88441 1.53552,1.346686 0.48284,0.462367 0.93539,0.936977 1.35598,1.422052 0.42042,0.485009 0.80834,0.979865 1.16233,1.482717 0.25075,0.356057 0.48435,0.715863 0.70028,1.078731 0.30479,0.512482 0.57407,1.030529 0.80682,1.5522 l 1.5e-4,2.76e-4 c 0.23282,0.521612 0.42881,1.046198 0.58727,1.571785 0.15845,0.525691 0.27915,1.051727 0.36162,1.576138 0.0824,0.524421 0.12654,1.046569 0.13218,1.564474 0.006,0.517849 -0.0271,1.030844 -0.0982,1.537008 -0.0714,0.506241 -0.18068,1.005107 -0.32788,1.494639 -0.14733,0.489447 -0.33238,0.968976 -0.55441,1.436794 -0.22181,0.467846 -0.4804,0.923387 -0.7747,1.364924 l -8e-5,1.52e-4 c -0.0621,0.08235 -0.12517,0.164337 -0.18964,0.245665 -0.24464,-0.509136 -0.49111,-1.01873 -0.76092,-1.533579 -0.34575,-0.659687 -0.71247,-1.324035 -1.10143,-1.992291 -0.38895,-0.668247 -0.8001,-1.340401 -1.23438,-2.016319 -0.43429,-0.675908 -0.8918,-1.355571 -1.37358,-2.038252 -0.48176,-0.682663 -0.98779,-1.368564 -1.51917,-2.057073 -0.53135,-0.688522 -1.08802,-1.379556 -1.67108,-2.073004 -0.58309,-0.693448 -1.19243,-1.389157 -1.82935,-2.086634 -0.6369,-0.697462 -1.3014,-1.396702 -1.99427,-2.097277 -0.69288,-0.700577 -1.41408,-1.402478 -2.16506,-2.105252 -0.75096,-0.702773 -1.53154,-1.406469 -2.34271,-2.110527 -0.81118,-0.704057 -1.65311,-1.408623 -2.52661,-2.113055 -0.87349,-0.704432 -1.77859,-1.408665 -2.71655,-2.112561 z"
       style="opacity:0.9;fill:#00d455;fill-opacity:1;stroke:#000000;stroke-width:0;stroke-linejoin:round;stroke-miterlimit:4;stroke-dasharray:none;stroke-dashoffset:0;stroke-opacity:1"
       inkscape:connector-curvature="0" />
    <path
       id="path6253-0"
       d="m 163.00524,90.158012 a 11.08272,9.531594 61.039043 0 0 -0.60801,-0.883311 11.08272,9.531594 61.039043 0 0 -0.7005,-0.849722 11.08272,9.531594 61.039043 0 0 -0.76712,-0.779973 11.08272,9.531594 61.039043 0 0 -0.82611,-0.702428 11.08272,9.531594 61.039043 0 0 -0.87662,-0.617948 11.08272,9.531594 61.039043 0 0 -0.91841,-0.527125 11.08272,9.531594 61.039043 0 0 -0.951,-0.431285 11.08272,9.531594 61.039043 0 0 -0.97428,-0.330871 11.08272,9.531594 61.039043 0 0 -0.98756,-0.227455 11.08272,9.531594 61.039043 0 0 -0.99127,-0.12149 11.08272,9.531594 61.039043 0 0 -0.98471,-0.01423 11.08272,9.531594 61.039043 0 0 -0.68817,0.05464 11.08272,9.531594 61.039043 0 0 -0.95123,0.168358 11.08272,9.531594 61.039043 0 0 -1.7e-4,2.9e-5 11.08272,9.531594 61.039043 0 0 -0.9186,0.273187 11.08272,9.531594 61.039043 0 0 -0.87702,0.375542 11.08272,9.531594 61.039043 0 0 -0.82645,0.474142 11.08272,9.531594 61.039043 0 0 -0.76767,0.567764 11.08272,9.531594 61.039043 0 0 -0.70137,0.655999 11.08272,9.531594 61.039043 0 0 -0.62774,0.737566 11.08272,9.531594 61.039043 0 0 -0.54819,0.811546 11.08272,9.531594 61.039043 0 0 -5e-5,9.6e-5 11.08272,9.531594 61.039043 0 0 -0.0888,0.16854 c 0.30811,-0.0642 0.61683,-0.127671 0.93277,-0.182526 0.40482,-0.07031 0.8161,-0.132772 1.23371,-0.186672 0.4176,-0.05388 0.84151,-0.09917 1.27184,-0.1354 0.43033,-0.03621 0.86708,-0.06334 1.31009,-0.08063 0.44301,-0.01729 0.89237,-0.02484 1.34802,-0.02197 0.45563,0.0029 0.91747,0.01624 1.38566,0.04051 0.46821,0.02427 0.94267,0.05961 1.42338,0.106606 0.48072,0.047 0.9677,0.105727 1.46087,0.176689 0.49318,0.07098 0.99254,0.154153 1.49813,0.250336 0.50558,0.09618 1.01739,0.205282 1.53532,0.327956 0.51794,0.122656 1.0421,0.258896 1.57234,0.409294 0.53023,0.150398 1.0665,0.314993 1.60898,0.494385 z"
       style="opacity:0.9;fill:#00d455;fill-opacity:1;stroke:#000000;stroke-width:0;stroke-linejoin:round;stroke-miterlimit:4;stroke-dasharray:none;stroke-dashoffset:0;stroke-opacity:1"
       inkscape:connector-curvature="0" />
  </g>
  <text
     xml:space="preserve"
     style="font-style:normal;font-weight:normal;font-size:69.65901184px;line-height:1.25;font-family:sans-serif;letter-spacing:0px;word-spacing:0px;fill:#ffffff;fill-opacity:1;stroke:none;stroke-width:1.74147534"
     x="179.18741"
     y="115.4135"
     id="text925"
     transform="scale(0.94455009,1.0587051)"><tspan
       sodipodi:role="line"
       id="tspan923"
       x="179.18741"
       y="115.4135"
       style="font-weight:bold;opacity:0.70999995;fill:#ffffff;fill-opacity:1;stroke-width:1.74147534">CLife</tspan></text>
</svg>
