<svg id="svg" version="1.1" xmlns="http://www.w3.org/2000/svg" xmlns:xlink="http://www.w3.org/1999/xlink" width="400" height="350.2097902097902" viewBox="0, 0, 400,350.2097902097902"><g id="svgg"><path id="path0" d="M137.098 58.139 C 136.897 58.339,135.521 58.516,134.041 58.531 C 132.560 58.547,131.349 58.702,131.349 58.877 C 131.349 59.051,130.334 59.194,129.093 59.194 L 126.838 59.194 122.960 63.135 C 120.827 65.302,118.769 67.396,118.385 67.788 C 118.002 68.180,117.683 68.653,117.677 68.839 C 117.662 69.273,116.432 70.753,116.087 70.753 C 115.776 70.753,113.835 72.875,113.835 73.216 C 113.835 73.345,113.402 73.935,112.872 74.527 C 111.002 76.615,110.312 77.657,111.067 77.253 C 111.337 77.109,110.968 77.525,110.245 78.178 C 109.523 78.831,108.932 79.488,108.932 79.637 C 108.932 79.787,108.735 80.130,108.494 80.398 C 107.471 81.539,107.180 81.950,107.180 82.259 C 107.180 82.440,106.944 82.678,106.655 82.789 C 106.366 82.900,106.130 83.294,106.130 83.664 C 106.130 84.035,105.893 84.429,105.604 84.540 C 105.315 84.651,105.079 84.983,105.079 85.278 C 105.079 85.573,104.947 85.814,104.785 85.814 C 104.623 85.814,104.190 86.443,103.822 87.211 C 103.454 87.980,103.025 88.610,102.869 88.612 C 102.713 88.615,102.683 88.774,102.802 88.967 C 102.921 89.159,102.842 89.317,102.627 89.317 C 102.412 89.317,102.333 89.476,102.453 89.670 C 102.573 89.864,102.425 90.117,102.124 90.233 C 101.823 90.348,101.576 90.662,101.576 90.931 C 101.576 91.199,101.422 91.419,101.233 91.419 C 101.044 91.419,100.790 91.813,100.669 92.294 C 100.548 92.776,100.321 93.170,100.165 93.170 C 100.009 93.170,99.777 93.643,99.650 94.221 C 99.523 94.799,99.292 95.271,99.137 95.271 C 98.817 95.271,98.321 96.627,98.401 97.285 C 98.431 97.526,98.281 97.723,98.068 97.723 C 97.856 97.723,97.779 97.881,97.898 98.074 C 98.017 98.266,97.886 98.424,97.607 98.424 C 97.327 98.424,96.990 98.856,96.858 99.384 C 96.725 99.911,96.511 100.424,96.382 100.522 C 95.950 100.850,94.921 103.343,94.921 104.061 C 94.921 104.451,94.764 104.672,94.571 104.553 C 94.378 104.434,94.221 104.521,94.221 104.745 C 94.221 104.970,93.747 106.146,93.169 107.358 C 92.590 108.570,92.084 109.960,92.044 110.447 C 92.003 110.934,91.854 111.261,91.712 111.173 C 91.570 111.086,91.350 111.570,91.222 112.249 C 91.095 112.929,90.850 113.485,90.679 113.485 C 90.508 113.485,90.368 113.791,90.368 114.165 C 90.368 114.539,90.224 114.934,90.048 115.042 C 89.872 115.151,89.616 115.909,89.480 116.727 C 89.343 117.545,89.111 118.292,88.965 118.389 C 88.819 118.485,88.602 119.264,88.484 120.119 C 88.365 120.974,88.142 121.762,87.987 121.870 C 87.593 122.146,86.515 125.653,86.515 126.660 C 86.515 127.120,86.375 127.496,86.203 127.496 C 85.751 127.496,85.537 129.908,85.973 130.089 C 86.183 130.177,86.152 130.254,85.902 130.270 C 85.661 130.285,85.464 130.613,85.464 130.998 C 85.464 131.384,85.306 131.699,85.114 131.699 C 84.921 131.699,84.764 132.320,84.764 133.079 C 84.764 133.838,84.618 134.549,84.441 134.659 C 84.263 134.769,84.008 135.921,83.873 137.219 C 83.738 138.517,83.504 139.737,83.353 139.930 C 83.201 140.123,82.964 141.896,82.825 143.870 C 82.686 145.845,82.446 147.461,82.293 147.461 C 81.671 147.461,80.737 167.088,81.339 167.513 C 81.694 167.764,81.696 167.866,81.349 168.007 C 81.108 168.105,80.911 168.417,80.911 168.701 C 80.911 168.986,81.029 169.145,81.173 169.055 C 81.318 168.965,81.388 170.949,81.328 173.463 C 81.260 176.352,81.357 178.170,81.591 178.404 C 81.795 178.607,81.961 180.004,81.961 181.506 C 81.961 183.009,82.096 184.238,82.261 184.238 C 82.426 184.238,82.671 185.692,82.805 187.469 C 82.947 189.343,83.225 190.812,83.469 190.966 C 83.768 191.156,83.738 191.236,83.363 191.243 C 83.016 191.251,82.970 191.342,83.228 191.511 C 83.444 191.653,83.735 192.872,83.876 194.221 C 84.017 195.569,84.254 196.830,84.404 197.023 C 84.553 197.215,84.766 197.846,84.877 198.424 C 84.987 199.002,85.259 200.420,85.481 201.576 C 85.703 202.732,86.066 203.835,86.287 204.028 C 86.509 204.221,86.736 205.088,86.792 205.954 C 86.849 206.821,87.046 207.583,87.230 207.647 C 87.415 207.712,87.566 208.145,87.566 208.611 C 87.566 209.076,87.723 209.457,87.916 209.457 C 88.109 209.457,88.237 209.575,88.200 209.720 C 88.074 210.226,88.680 212.958,88.957 213.129 C 89.112 213.224,89.347 213.888,89.482 214.604 C 89.616 215.320,90.034 216.173,90.412 216.500 C 90.923 216.944,90.982 217.148,90.645 217.304 C 90.287 217.469,90.284 217.556,90.631 217.718 C 90.872 217.830,91.168 218.539,91.289 219.294 C 91.409 220.048,91.633 220.665,91.786 220.665 C 91.938 220.665,92.168 221.140,92.295 221.719 C 92.422 222.299,92.669 222.685,92.844 222.577 C 93.019 222.469,93.068 222.624,92.954 222.921 C 92.830 223.246,92.983 223.552,93.338 223.689 C 93.808 223.869,93.834 223.976,93.462 224.212 C 93.112 224.433,93.105 224.509,93.433 224.513 C 93.673 224.516,93.870 224.765,93.870 225.066 C 93.870 225.965,95.603 229.475,95.943 229.265 C 96.116 229.158,96.172 229.396,96.068 229.793 C 95.928 230.329,96.079 230.566,96.656 230.717 C 97.201 230.860,97.301 231.001,96.993 231.192 C 96.518 231.486,97.425 233.275,98.049 233.275 C 98.219 233.275,98.276 233.590,98.175 233.975 C 98.073 234.367,98.164 234.676,98.383 234.676 C 98.598 234.676,98.774 234.899,98.774 235.172 C 98.774 235.445,98.933 235.721,99.128 235.786 C 99.322 235.851,99.547 236.243,99.627 236.658 C 99.763 237.364,102.495 241.998,103.002 242.382 C 103.129 242.478,103.344 242.912,103.479 243.345 C 103.614 243.778,103.872 244.133,104.052 244.133 C 104.231 244.133,104.378 244.370,104.378 244.658 C 104.378 244.947,104.533 245.184,104.722 245.184 C 104.911 245.184,105.164 245.578,105.285 246.060 C 105.406 246.541,105.635 246.935,105.794 246.935 C 105.952 246.935,106.171 247.211,106.279 247.548 C 106.387 247.885,106.868 248.634,107.347 249.212 C 108.580 250.701,108.685 250.842,109.427 252.014 C 109.793 252.592,110.304 253.191,110.563 253.345 C 110.822 253.499,111.033 253.854,111.033 254.133 C 111.033 254.412,111.180 254.641,111.360 254.641 C 111.540 254.641,111.784 254.948,111.903 255.324 C 112.022 255.699,112.427 256.104,112.803 256.223 C 113.178 256.342,113.485 256.659,113.485 256.928 C 113.485 257.196,114.194 258.146,115.061 259.038 C 115.928 259.930,116.637 260.788,116.637 260.946 C 116.637 261.442,129.246 273.954,129.269 273.481 C 129.281 273.233,129.439 273.399,129.620 273.851 C 129.801 274.303,130.253 274.752,130.625 274.849 C 130.996 274.946,131.385 275.246,131.488 275.516 C 131.592 275.786,131.918 276.007,132.213 276.007 C 132.508 276.007,132.710 276.204,132.662 276.445 C 132.614 276.686,132.783 276.839,133.038 276.786 C 133.293 276.733,133.402 276.853,133.279 277.052 C 133.156 277.250,133.337 277.521,133.682 277.654 C 134.027 277.786,134.761 278.297,135.314 278.789 C 135.867 279.282,136.417 279.685,136.538 279.685 C 136.659 279.685,137.201 280.118,137.743 280.648 C 138.285 281.178,138.897 281.611,139.104 281.611 C 139.310 281.611,139.789 282.005,140.168 282.487 C 140.546 282.968,141.081 283.363,141.356 283.363 C 141.631 283.363,141.856 283.510,141.856 283.689 C 141.856 283.869,142.187 284.121,142.591 284.249 C 142.996 284.377,143.632 284.788,144.005 285.161 C 144.379 285.534,144.875 285.730,145.109 285.596 C 145.343 285.462,145.423 285.475,145.288 285.625 C 144.915 286.038,145.943 286.901,146.935 287.006 C 147.417 287.058,147.930 287.230,148.074 287.389 C 148.218 287.548,148.139 287.565,147.898 287.426 C 147.658 287.287,147.461 287.324,147.461 287.507 C 147.461 287.690,147.855 287.939,148.336 288.060 C 148.818 288.181,149.212 288.434,149.212 288.623 C 149.212 288.812,149.448 288.967,149.737 288.967 C 150.026 288.967,150.263 289.107,150.263 289.279 C 150.263 289.451,150.657 289.690,151.138 289.811 C 151.620 289.932,152.014 290.173,152.014 290.347 C 152.014 290.520,152.487 290.766,153.065 290.893 C 153.643 291.020,154.116 291.253,154.116 291.410 C 154.116 291.840,156.982 293.171,157.380 292.925 C 157.575 292.805,157.616 292.890,157.474 293.120 C 157.310 293.385,157.599 293.604,158.296 293.743 C 158.886 293.861,159.370 294.096,159.370 294.264 C 159.370 294.433,159.593 294.571,159.866 294.571 C 160.139 294.571,160.419 294.743,160.489 294.953 C 160.560 295.164,161.045 295.361,161.569 295.391 C 162.093 295.422,162.522 295.644,162.522 295.884 C 162.522 296.125,162.719 296.326,162.960 296.330 C 163.201 296.334,164.343 296.804,165.499 297.373 C 166.655 297.942,167.877 298.412,168.214 298.416 C 168.551 298.420,168.827 298.574,168.827 298.758 C 168.827 298.942,169.418 299.201,170.140 299.334 C 170.863 299.467,171.532 299.671,171.629 299.788 C 171.943 300.169,173.360 300.876,173.813 300.878 C 174.057 300.879,174.679 301.101,175.195 301.370 C 175.712 301.640,176.653 301.974,177.285 302.113 C 177.918 302.252,178.677 302.485,178.973 302.631 C 180.633 303.450,181.380 303.710,182.455 303.843 C 183.111 303.924,183.742 304.138,183.856 304.317 C 183.970 304.497,184.891 304.756,185.902 304.894 C 186.913 305.032,187.741 305.287,187.741 305.462 C 187.741 305.637,188.204 305.779,188.771 305.779 C 189.337 305.779,189.889 305.921,189.996 306.095 C 190.170 306.376,194.041 306.995,194.615 306.834 C 194.741 306.799,194.946 306.937,195.072 307.141 C 195.198 307.345,196.437 307.618,197.826 307.747 C 199.214 307.876,200.350 308.116,200.350 308.281 C 200.350 308.446,200.991 308.581,201.774 308.581 C 202.558 308.581,203.474 308.729,203.810 308.909 C 204.146 309.089,206.224 309.346,208.428 309.480 C 210.631 309.614,212.592 309.840,212.785 309.981 C 213.107 310.218,222.657 310.660,228.021 310.687 L 230.298 310.699 229.428 311.367 C 228.794 311.854,228.486 311.923,228.295 311.622 C 228.107 311.327,228.030 311.323,228.026 311.606 C 228.023 311.825,227.315 312.110,226.453 312.240 C 225.591 312.369,224.806 312.603,224.710 312.759 C 224.613 312.915,223.749 313.147,222.789 313.274 C 221.830 313.401,220.950 313.658,220.834 313.846 C 220.719 314.033,220.161 314.186,219.594 314.186 C 219.027 314.186,218.564 314.331,218.564 314.508 C 218.564 314.685,217.539 314.940,216.287 315.074 C 215.035 315.208,214.011 315.437,214.011 315.582 C 214.011 315.728,212.904 315.955,211.552 316.089 C 210.199 316.222,209.161 316.441,209.244 316.576 C 209.327 316.710,208.505 316.869,207.417 316.928 C 206.330 316.988,205.359 317.168,205.259 317.328 C 205.160 317.488,203.266 317.734,201.051 317.876 C 198.748 318.022,196.916 318.300,196.773 318.523 C 196.422 319.072,167.854 319.074,167.500 318.526 C 167.359 318.308,165.498 318.031,163.229 317.890 C 161.018 317.753,158.996 317.464,158.737 317.249 C 158.383 316.955,158.186 316.983,157.947 317.361 C 157.726 317.710,157.627 317.730,157.624 317.426 C 157.621 317.185,157.233 316.988,156.763 316.988 C 156.293 316.988,155.819 316.843,155.710 316.667 C 155.601 316.491,154.331 316.236,152.887 316.101 C 151.444 315.965,150.263 315.736,150.263 315.591 C 150.263 315.446,149.279 315.216,148.078 315.080 C 146.876 314.944,145.773 314.648,145.626 314.421 C 145.431 314.121,145.267 314.151,145.014 314.536 C 144.824 314.825,144.667 314.903,144.664 314.709 C 144.656 314.187,142.630 313.384,141.840 313.591 C 141.463 313.689,141.243 313.627,141.351 313.452 C 141.459 313.278,141.153 313.135,140.672 313.135 C 140.190 313.135,139.704 312.986,139.592 312.805 C 139.480 312.623,138.683 312.369,137.820 312.240 C 136.958 312.110,136.252 311.865,136.252 311.694 C 136.252 311.523,135.867 311.384,135.397 311.384 C 134.927 311.384,134.450 311.235,134.338 311.054 C 134.226 310.872,133.430 310.618,132.570 310.489 C 131.709 310.360,131.081 310.132,131.174 309.982 C 131.267 309.832,130.812 309.610,130.164 309.488 C 129.516 309.366,128.217 308.877,127.277 308.400 C 126.338 307.924,125.293 307.533,124.956 307.532 C 124.619 307.531,124.343 307.386,124.343 307.208 C 124.343 307.031,123.860 306.780,123.269 306.650 C 122.678 306.520,121.772 306.193,121.255 305.924 C 120.738 305.654,120.118 305.432,119.877 305.431 C 119.637 305.430,119.440 305.271,119.440 305.079 C 119.440 304.886,119.203 304.729,118.914 304.729 C 118.625 304.729,118.389 304.578,118.389 304.394 C 118.389 304.210,117.837 303.956,117.163 303.830 C 116.489 303.703,115.937 303.441,115.937 303.248 C 115.937 303.054,115.621 302.978,115.236 303.079 C 114.850 303.180,114.623 303.119,114.731 302.945 C 114.839 302.770,114.682 302.627,114.381 302.627 C 114.081 302.627,113.835 302.469,113.835 302.277 C 113.835 302.084,113.599 301.926,113.310 301.926 C 113.021 301.926,112.785 301.772,112.785 301.583 C 112.785 301.394,112.391 301.140,111.909 301.019 C 111.427 300.899,111.033 300.672,111.033 300.515 C 111.033 300.359,110.560 300.127,109.982 300.000 C 109.405 299.873,108.932 299.660,108.932 299.526 C 108.932 299.393,108.341 298.972,107.618 298.592 C 106.896 298.211,106.096 297.703,105.842 297.461 C 105.587 297.220,105.154 297.023,104.879 297.023 C 104.603 297.023,104.378 296.865,104.378 296.673 C 104.378 296.480,104.142 296.322,103.853 296.322 C 103.564 296.322,103.327 296.165,103.327 295.972 C 103.327 295.779,103.047 295.622,102.705 295.622 C 102.362 295.622,101.812 295.306,101.482 294.921 C 101.152 294.536,100.682 294.221,100.438 294.221 C 100.193 294.221,99.787 293.890,99.535 293.486 C 99.282 293.082,98.991 292.836,98.888 292.939 C 98.784 293.043,98.315 292.743,97.845 292.273 C 97.375 291.803,96.820 291.419,96.610 291.419 C 96.401 291.419,95.943 291.089,95.594 290.686 C 95.244 290.283,94.804 290.049,94.615 290.166 C 94.426 290.282,94.173 290.068,94.053 289.690 C 93.933 289.312,93.527 288.905,93.152 288.786 C 92.777 288.667,92.469 288.405,92.469 288.205 C 92.469 288.005,92.233 287.932,91.944 288.043 C 91.650 288.155,91.419 288.052,91.419 287.808 C 91.419 287.367,91.059 287.007,89.142 285.526 C 86.985 283.861,84.192 281.328,80.522 277.711 C 78.444 275.663,76.656 274.073,76.550 274.179 C 76.444 274.286,76.357 274.181,76.357 273.947 C 76.357 273.713,75.991 273.175,75.543 272.750 C 75.095 272.326,74.625 271.696,74.497 271.350 C 74.369 271.003,73.993 270.767,73.660 270.824 C 73.285 270.889,73.003 270.662,72.917 270.228 C 72.841 269.842,72.520 269.259,72.204 268.931 C 71.343 268.039,70.753 267.300,70.753 267.115 C 70.753 266.736,68.185 264.281,67.880 264.369 C 67.698 264.422,67.648 264.305,67.769 264.110 C 67.890 263.914,67.586 263.351,67.094 262.859 C 66.602 262.367,66.200 261.741,66.200 261.468 C 66.200 261.194,65.880 260.799,65.489 260.590 C 65.099 260.381,64.872 260.060,64.985 259.877 C 65.098 259.694,64.935 259.545,64.623 259.545 C 64.312 259.545,64.142 259.407,64.245 259.240 C 64.349 259.072,64.125 258.560,63.747 258.101 C 63.369 257.643,62.931 257.110,62.773 256.918 C 62.616 256.725,62.381 256.292,62.253 255.954 C 62.124 255.617,61.856 255.342,61.657 255.342 C 61.459 255.342,61.296 255.026,61.296 254.641 C 61.296 254.256,61.141 253.940,60.952 253.940 C 60.763 253.940,60.510 253.546,60.389 253.065 C 60.268 252.583,60.065 252.189,59.937 252.189 C 59.809 252.189,59.393 251.598,59.012 250.876 C 58.632 250.153,58.123 249.354,57.882 249.099 C 57.640 248.845,57.443 248.411,57.443 248.136 C 57.443 247.861,57.303 247.636,57.131 247.636 C 56.959 247.636,56.720 247.242,56.599 246.760 C 56.478 246.278,56.224 245.884,56.035 245.884 C 55.846 245.884,55.692 245.648,55.692 245.359 C 55.692 245.070,55.547 244.834,55.369 244.834 C 55.192 244.834,54.943 244.361,54.816 243.783 C 54.689 243.205,54.475 242.732,54.340 242.732 C 54.205 242.732,53.789 241.944,53.415 240.981 C 53.041 240.018,52.625 239.229,52.490 239.229 C 52.355 239.229,52.141 238.757,52.014 238.179 C 51.887 237.601,51.638 237.128,51.461 237.128 C 51.283 237.128,51.138 236.955,51.138 236.743 C 51.138 236.214,50.018 233.848,49.646 233.591 C 49.479 233.476,49.258 232.845,49.155 232.190 C 49.052 231.534,48.847 230.919,48.699 230.823 C 48.552 230.727,48.317 230.254,48.177 229.772 C 47.768 228.360,47.132 226.970,46.894 226.970 C 46.773 226.970,46.572 226.329,46.446 225.545 C 46.321 224.760,45.968 223.736,45.661 223.268 C 45.354 222.800,45.202 222.417,45.323 222.417 C 45.444 222.417,45.305 221.846,45.013 221.148 C 44.722 220.450,44.483 219.583,44.483 219.222 C 44.483 218.860,44.344 218.564,44.173 218.564 C 44.002 218.564,43.757 217.858,43.627 216.996 C 43.498 216.133,43.262 215.347,43.103 215.249 C 42.944 215.151,42.706 214.204,42.573 213.145 C 42.441 212.086,42.186 211.129,42.007 211.018 C 41.828 210.907,41.681 210.363,41.681 209.807 C 41.681 209.252,41.536 208.708,41.358 208.598 C 41.181 208.489,40.926 207.376,40.792 206.126 C 40.658 204.876,40.426 203.853,40.277 203.853 C 40.127 203.853,39.892 202.433,39.755 200.698 C 39.617 198.963,39.364 197.456,39.192 197.350 C 39.020 197.244,38.879 196.312,38.879 195.280 C 38.879 194.248,38.721 193.351,38.527 193.286 C 38.315 193.215,38.095 190.307,37.974 185.989 C 37.864 182.040,37.614 178.478,37.420 178.074 C 37.214 177.646,37.157 176.258,37.285 174.747 C 37.522 171.934,37.662 169.427,37.978 162.390 C 38.090 159.879,38.339 157.668,38.531 157.476 C 38.722 157.285,38.879 156.292,38.879 155.271 C 38.879 154.250,39.016 153.415,39.184 153.415 C 39.352 153.415,39.602 152.115,39.741 150.525 C 39.879 148.936,40.122 147.478,40.280 147.285 C 40.439 147.093,40.660 145.911,40.771 144.660 C 40.882 143.408,41.132 142.331,41.327 142.266 C 41.823 142.101,41.772 140.105,41.273 140.105 C 41.048 140.105,40.982 139.987,41.127 139.842 C 41.271 139.698,41.573 139.580,41.798 139.580 C 42.025 139.580,42.349 138.684,42.526 137.566 C 42.702 136.458,42.963 135.552,43.106 135.552 C 43.250 135.552,43.475 134.764,43.608 133.801 C 43.740 132.838,43.991 131.962,44.166 131.854 C 44.341 131.746,44.483 131.273,44.483 130.802 C 44.483 130.332,44.631 129.947,44.812 129.947 C 44.993 129.947,45.247 129.238,45.377 128.371 C 45.507 127.504,45.740 126.795,45.893 126.795 C 46.047 126.795,46.280 126.165,46.410 125.394 C 46.540 124.623,46.830 123.991,47.054 123.988 C 47.284 123.985,47.233 123.835,46.935 123.643 C 46.585 123.416,46.556 123.301,46.848 123.298 C 47.088 123.295,47.285 123.056,47.285 122.767 C 47.285 122.478,47.431 122.242,47.608 122.242 C 47.785 122.242,48.042 121.735,48.178 121.115 C 48.314 120.495,48.555 119.746,48.714 119.451 C 49.401 118.174,50.204 116.172,50.204 115.738 C 50.204 115.479,50.328 115.343,50.479 115.437 C 50.629 115.530,50.857 115.050,50.985 114.371 C 51.112 113.691,51.339 113.135,51.490 113.135 C 51.640 113.135,51.871 112.703,52.004 112.175 C 52.136 111.647,52.362 111.135,52.505 111.037 C 52.648 110.939,53.294 109.755,53.940 108.406 C 54.587 107.058,55.207 105.876,55.319 105.779 C 55.432 105.683,55.837 104.974,56.221 104.203 C 56.604 103.433,57.015 102.723,57.133 102.627 C 57.252 102.531,57.459 102.097,57.595 101.664 C 57.730 101.230,57.988 100.876,58.167 100.876 C 58.347 100.876,58.494 100.639,58.494 100.350 C 58.494 100.061,58.639 99.825,58.816 99.825 C 58.994 99.825,59.243 99.351,59.370 98.771 C 59.498 98.191,59.730 97.796,59.886 97.893 C 60.042 97.990,60.269 97.676,60.390 97.195 C 60.510 96.715,60.763 96.322,60.952 96.322 C 61.141 96.322,61.296 96.148,61.296 95.935 C 61.296 95.722,61.769 94.950,62.347 94.221 C 62.925 93.491,63.398 92.720,63.398 92.507 C 63.398 92.293,63.519 92.119,63.668 92.119 C 63.817 92.119,64.236 91.567,64.599 90.893 C 64.962 90.219,65.397 89.667,65.565 89.667 C 65.734 89.667,65.976 89.391,66.103 89.054 C 66.231 88.717,66.502 88.250,66.705 88.016 C 67.656 86.922,67.951 86.531,67.951 86.367 C 67.951 86.269,68.424 85.705,69.002 85.114 C 69.580 84.523,70.053 83.720,70.053 83.330 C 70.053 82.940,70.197 82.710,70.375 82.820 C 70.785 83.074,71.804 82.070,71.804 81.411 C 71.804 81.136,71.994 80.950,72.226 80.998 C 72.458 81.046,72.655 80.902,72.664 80.677 C 72.672 80.453,73.034 79.962,73.468 79.586 C 73.901 79.210,74.256 78.724,74.256 78.505 C 74.256 78.069,72.634 77.949,72.446 78.371 C 72.382 78.516,71.541 79.028,70.578 79.510 C 69.615 79.991,68.572 80.661,68.260 80.998 C 67.949 81.335,67.526 81.611,67.322 81.611 C 67.117 81.611,66.735 81.808,66.473 82.049 C 66.210 82.290,65.686 82.660,65.309 82.872 C 64.932 83.083,64.429 83.635,64.191 84.097 C 63.802 84.853,63.757 84.868,63.742 84.238 C 63.728 83.594,63.698 83.587,63.369 84.151 C 63.173 84.488,62.784 84.764,62.504 84.764 C 62.225 84.764,61.996 84.885,61.996 85.034 C 61.996 85.183,61.440 85.604,60.760 85.970 C 60.010 86.374,59.679 86.732,59.918 86.879 C 60.151 87.024,59.941 87.216,59.403 87.351 C 58.903 87.476,58.494 87.734,58.494 87.923 C 58.494 88.112,58.282 88.266,58.022 88.266 C 57.763 88.266,57.172 88.591,56.709 88.988 C 54.932 90.512,54.433 90.920,53.415 91.681 C 51.970 92.763,49.395 95.030,46.651 97.636 C 45.384 98.840,44.220 99.825,44.065 99.825 C 43.910 99.825,43.783 99.992,43.783 100.196 C 43.783 100.400,43.980 100.448,44.221 100.304 C 44.538 100.113,44.531 100.198,44.195 100.612 C 43.940 100.927,43.521 101.103,43.263 101.005 C 42.996 100.902,42.696 101.137,42.565 101.551 C 42.438 101.950,42.194 102.277,42.022 102.277 C 41.480 102.277,39.958 104.138,40.180 104.530 C 40.297 104.735,40.268 104.791,40.115 104.653 C 39.657 104.239,34.881 109.464,35.218 110.010 C 35.325 110.183,35.208 110.248,34.957 110.153 C 34.700 110.057,34.120 110.557,33.630 111.296 C 33.151 112.018,32.402 112.930,31.966 113.321 C 31.530 113.713,31.173 114.225,31.173 114.459 C 31.173 114.694,31.019 114.886,30.830 114.886 C 30.641 114.886,30.387 115.280,30.266 115.762 C 30.146 116.243,29.827 116.637,29.559 116.637 C 29.291 116.637,29.072 116.756,29.071 116.900 C 29.071 117.045,28.677 117.621,28.196 118.181 C 27.714 118.740,27.320 119.393,27.320 119.632 C 27.320 119.870,27.082 120.157,26.790 120.269 C 26.498 120.381,26.108 120.871,25.923 121.357 C 25.738 121.844,25.442 122.242,25.266 122.242 C 25.089 122.242,24.846 122.636,24.725 123.117 C 24.604 123.599,24.350 123.993,24.161 123.993 C 23.972 123.993,23.818 124.229,23.818 124.518 C 23.818 124.807,23.671 125.044,23.491 125.044 C 23.312 125.044,23.054 125.391,22.920 125.816 C 22.785 126.240,22.459 126.803,22.195 127.066 C 21.932 127.330,21.716 127.771,21.716 128.046 C 21.716 128.321,21.559 128.546,21.366 128.546 C 21.173 128.546,21.016 128.783,21.016 129.072 C 21.016 129.361,20.869 129.597,20.689 129.597 C 20.509 129.597,20.252 129.952,20.116 130.385 C 19.981 130.819,19.774 131.252,19.655 131.349 C 19.537 131.445,19.164 132.036,18.827 132.662 C 18.489 133.288,17.938 134.312,17.601 134.938 C 17.264 135.564,16.882 136.157,16.753 136.255 C 16.624 136.354,16.409 136.866,16.277 137.394 C 16.145 137.922,15.896 138.354,15.724 138.354 C 15.552 138.354,15.412 138.669,15.412 139.054 C 15.412 139.440,15.266 139.755,15.089 139.755 C 14.912 139.755,14.663 140.228,14.536 140.806 C 14.409 141.384,14.160 141.856,13.983 141.856 C 13.805 141.856,13.657 142.053,13.652 142.294 C 13.648 142.535,13.179 143.678,12.609 144.834 C 12.040 145.989,11.571 147.211,11.567 147.548 C 11.562 147.885,11.403 148.161,11.213 148.161 C 11.022 148.161,10.766 148.792,10.642 149.562 C 10.519 150.333,10.299 150.963,10.154 150.963 C 9.704 150.963,9.507 152.321,9.932 152.495 C 10.152 152.585,10.064 152.672,9.736 152.687 C 9.339 152.705,9.061 153.127,8.909 153.940 C 8.782 154.615,8.520 155.166,8.326 155.166 C 8.133 155.166,8.049 155.556,8.140 156.031 C 8.231 156.507,8.170 156.813,8.005 156.711 C 7.841 156.609,7.706 156.916,7.706 157.393 C 7.706 157.870,7.588 158.313,7.443 158.377 C 7.068 158.544,5.951 161.847,5.953 162.785 C 5.954 163.218,5.815 163.573,5.644 163.573 C 5.166 163.573,4.938 165.813,5.386 166.107 C 5.665 166.289,5.652 166.366,5.342 166.369 C 5.101 166.372,4.904 166.690,4.904 167.075 C 4.904 167.461,4.746 167.776,4.553 167.776 C 4.361 167.776,4.203 168.236,4.203 168.797 C 4.203 169.359,4.037 169.874,3.834 169.942 C 3.632 170.010,3.435 171.104,3.397 172.375 C 3.350 173.935,3.198 174.636,2.928 174.535 C 2.662 174.435,2.446 175.325,2.279 177.210 C 2.141 178.764,1.892 180.035,1.726 180.035 C 1.559 180.035,1.443 180.572,1.467 181.229 C 1.492 181.886,1.341 182.871,1.132 183.419 C 0.571 184.886,0.371 188.090,0.840 188.096 C 1.052 188.099,0.989 188.251,0.701 188.434 C -0.316 189.077,0.048 226.000,1.078 226.636 C 1.367 226.815,1.346 226.934,1.003 227.059 C 0.620 227.198,0.612 227.325,0.963 227.697 C 1.204 227.952,1.401 228.807,1.401 229.597 C 1.401 230.387,1.562 231.195,1.760 231.392 C 1.957 231.589,2.140 232.324,2.166 233.024 C 2.192 233.724,2.313 234.236,2.435 234.161 C 2.556 234.086,2.590 234.587,2.510 235.274 C 2.430 235.961,2.502 236.438,2.671 236.334 C 2.839 236.230,3.012 236.620,3.054 237.200 C 3.096 237.781,3.332 238.505,3.579 238.810 C 3.949 239.266,3.944 239.313,3.553 239.078 C 3.186 238.857,3.129 238.981,3.302 239.623 C 3.426 240.081,3.695 241.086,3.899 241.856 C 4.104 242.627,4.401 243.510,4.558 243.819 C 4.716 244.128,4.955 245.113,5.089 246.008 C 5.224 246.903,5.473 247.636,5.644 247.636 C 5.815 247.636,5.954 248.118,5.954 248.707 C 5.954 249.324,6.101 249.688,6.301 249.565 C 6.495 249.444,6.560 249.577,6.449 249.867 C 6.340 250.151,6.454 250.750,6.702 251.199 C 6.949 251.647,7.115 252.199,7.069 252.425 C 7.024 252.652,7.148 252.937,7.346 253.059 C 7.544 253.181,7.706 253.597,7.706 253.982 C 7.706 254.367,7.841 254.599,8.005 254.497 C 8.170 254.395,8.231 254.701,8.140 255.177 C 8.044 255.679,8.138 256.042,8.365 256.042 C 8.581 256.042,8.758 256.397,8.759 256.830 C 8.760 257.264,8.996 258.070,9.284 258.621 C 9.572 259.173,9.807 259.843,9.807 260.110 C 9.807 260.377,9.947 260.595,10.119 260.595 C 10.290 260.595,10.534 261.151,10.662 261.831 C 10.789 262.511,11.024 262.986,11.182 262.888 C 11.341 262.790,11.572 263.337,11.694 264.104 C 11.817 264.872,12.034 265.499,12.178 265.499 C 12.450 265.499,13.069 266.808,13.501 268.301 C 13.641 268.783,13.855 269.256,13.977 269.352 C 14.100 269.448,14.786 270.709,15.503 272.154 C 16.994 275.161,18.290 277.503,18.604 277.758 C 18.723 277.855,18.930 278.288,19.066 278.722 C 19.201 279.155,19.459 279.510,19.638 279.510 C 19.818 279.510,19.967 279.785,19.970 280.123 C 19.975 280.651,20.026 280.663,20.344 280.210 C 20.639 279.788,20.672 279.826,20.511 280.405 C 20.388 280.850,20.563 281.395,20.971 281.833 C 21.334 282.222,21.740 282.886,21.874 283.307 C 22.008 283.728,22.263 283.983,22.442 283.872 C 22.621 283.762,22.767 283.977,22.767 284.350 C 22.767 284.723,23.004 285.224,23.292 285.464 C 23.581 285.704,23.818 286.117,23.818 286.383 C 23.818 286.648,23.965 286.865,24.145 286.865 C 24.324 286.865,24.575 287.192,24.702 287.591 C 24.828 287.990,25.134 288.239,25.382 288.144 C 25.673 288.033,25.832 288.274,25.832 288.828 C 25.832 289.299,26.167 289.975,26.576 290.330 C 26.986 290.685,27.320 291.125,27.320 291.309 C 27.320 291.809,29.248 293.870,29.716 293.870 C 29.940 293.870,30.123 294.121,30.123 294.428 C 30.123 295.146,31.356 296.724,31.671 296.409 C 31.803 296.277,31.822 296.401,31.713 296.684 C 31.596 296.989,31.875 297.470,32.395 297.861 C 32.879 298.225,33.277 298.776,33.280 299.086 C 33.285 299.578,33.329 299.583,33.625 299.124 C 33.852 298.774,33.967 298.745,33.970 299.037 C 33.980 299.877,34.029 300.004,34.573 300.605 C 34.874 300.937,35.256 301.125,35.423 301.022 C 35.590 300.919,35.727 301.072,35.727 301.363 C 35.727 301.654,35.928 302.018,36.173 302.172 C 36.418 302.326,36.898 302.890,37.239 303.426 C 37.588 303.974,38.029 304.295,38.248 304.160 C 38.484 304.015,38.539 304.079,38.387 304.324 C 38.250 304.547,38.304 304.729,38.508 304.729 C 38.712 304.729,38.882 305.004,38.885 305.342 C 38.889 305.865,38.939 305.878,39.229 305.429 C 39.416 305.140,39.590 305.061,39.615 305.254 C 39.640 305.447,39.682 305.773,39.708 305.980 C 39.774 306.512,41.897 308.581,42.376 308.581 C 42.594 308.581,42.675 308.740,42.555 308.935 C 42.435 309.129,42.702 309.434,43.147 309.613 C 43.593 309.792,43.832 309.948,43.677 309.960 C 43.398 309.982,44.195 310.759,46.217 312.434 C 46.798 312.916,47.932 313.980,48.737 314.799 C 49.543 315.617,50.334 316.287,50.495 316.287 C 50.656 316.287,51.419 316.918,52.189 317.688 C 52.960 318.459,53.810 319.089,54.078 319.089 C 54.346 319.089,54.661 319.336,54.776 319.637 C 54.894 319.943,55.165 320.074,55.393 319.933 C 55.633 319.785,55.706 319.834,55.571 320.052 C 55.227 320.609,57.518 321.966,57.905 321.434 C 58.103 321.162,58.139 321.235,58.007 321.642 C 57.878 322.042,58.021 322.351,58.404 322.498 C 58.734 322.625,59.323 323.070,59.712 323.487 C 60.102 323.904,60.775 324.357,61.208 324.493 C 61.642 324.629,61.996 324.888,61.996 325.067 C 61.996 325.247,62.216 325.394,62.484 325.394 C 62.753 325.394,63.063 325.630,63.174 325.919 C 63.285 326.208,63.696 326.445,64.087 326.445 C 64.478 326.445,64.799 326.607,64.799 326.806 C 64.799 327.005,65.074 327.272,65.412 327.399 C 65.749 327.527,66.244 327.849,66.513 328.115 C 66.887 328.484,67.064 328.499,67.263 328.176 C 67.441 327.887,67.599 327.990,67.761 328.500 C 67.892 328.911,68.224 329.247,68.500 329.247 C 68.776 329.247,69.002 329.402,69.002 329.591 C 69.002 329.779,69.396 330.033,69.877 330.154 C 70.359 330.275,70.753 330.512,70.753 330.682 C 70.753 330.851,71.370 331.089,72.124 331.209 C 73.059 331.359,73.549 331.639,73.668 332.091 C 73.772 332.489,74.274 332.841,74.924 332.971 C 75.520 333.090,76.007 333.313,76.007 333.466 C 76.007 333.619,76.480 333.849,77.058 333.975 C 77.636 334.102,78.109 334.351,78.109 334.529 C 78.109 334.706,78.345 334.851,78.634 334.851 C 78.923 334.851,79.159 335.009,79.159 335.201 C 79.159 335.394,79.356 335.557,79.597 335.564 C 79.838 335.570,80.665 335.880,81.436 336.252 C 82.207 336.624,83.034 336.934,83.275 336.941 C 83.516 336.947,83.713 337.072,83.713 337.217 C 83.713 337.494,85.014 338.110,86.515 338.545 C 86.996 338.684,87.473 338.926,87.575 339.083 C 87.676 339.239,88.302 339.463,88.967 339.580 C 89.631 339.697,90.257 339.902,90.359 340.036 C 90.754 340.560,92.153 341.153,93.498 341.368 C 94.274 341.492,94.835 341.712,94.745 341.857 C 94.565 342.150,96.248 342.554,97.680 342.562 C 98.402 342.566,98.486 342.640,98.074 342.907 C 97.663 343.173,97.753 343.248,98.491 343.252 C 99.009 343.255,99.525 343.406,99.637 343.587 C 99.749 343.769,100.586 344.027,101.497 344.161 C 102.407 344.296,103.266 344.581,103.404 344.795 C 103.586 345.076,103.854 345.062,104.368 344.743 C 104.963 344.374,105.079 344.388,105.079 344.831 C 105.079 345.184,105.426 345.359,106.130 345.359 C 106.708 345.359,107.180 345.517,107.180 345.709 C 107.180 345.902,107.644 346.060,108.211 346.060 C 108.777 346.060,109.327 346.199,109.432 346.369 C 109.537 346.539,110.531 346.791,111.642 346.930 C 112.752 347.068,113.739 347.307,113.835 347.461 C 113.932 347.615,115.271 347.844,116.813 347.969 C 118.354 348.094,119.764 348.346,119.947 348.529 C 120.130 348.712,120.870 348.862,121.591 348.862 C 122.311 348.862,122.985 348.997,123.087 349.163 C 123.763 350.257,158.332 350.562,165.499 349.538 C 166.848 349.345,168.700 349.099,169.615 348.991 C 170.530 348.883,171.278 348.668,171.278 348.514 C 171.278 348.360,172.539 348.122,174.081 347.986 C 175.622 347.850,176.883 347.626,176.883 347.489 C 176.883 347.352,177.947 347.062,179.247 346.845 C 182.965 346.224,183.888 346.000,183.888 345.715 C 183.888 345.569,184.711 345.340,185.718 345.206 C 186.725 345.073,187.710 344.837,187.907 344.682 C 188.105 344.527,188.891 344.287,189.655 344.149 C 190.419 344.011,191.483 343.585,192.020 343.204 C 192.711 342.711,192.996 342.643,193.000 342.971 C 193.004 343.286,193.087 343.309,193.263 343.045 C 193.404 342.832,194.116 342.548,194.843 342.415 C 195.571 342.281,196.072 342.018,195.956 341.830 C 195.840 341.642,195.875 341.522,196.034 341.563 C 196.642 341.720,199.299 341.079,199.299 340.775 C 199.299 340.599,199.615 340.455,200.000 340.455 C 200.385 340.455,200.701 340.298,200.701 340.105 C 200.701 339.912,200.976 339.754,201.313 339.753 C 201.651 339.751,202.349 339.530,202.866 339.260 C 203.383 338.991,204.289 338.664,204.880 338.534 C 205.471 338.404,205.954 338.153,205.954 337.976 C 205.954 337.798,206.270 337.653,206.655 337.653 C 207.040 337.653,207.356 337.508,207.356 337.331 C 207.356 337.153,207.828 336.905,208.406 336.778 C 208.984 336.651,209.457 336.402,209.457 336.224 C 209.457 336.047,209.614 335.902,209.805 335.902 C 210.370 335.902,212.960 334.707,212.960 334.446 C 212.960 334.314,213.433 334.102,214.011 333.975 C 214.588 333.849,215.061 333.600,215.061 333.422 C 215.061 333.245,215.234 333.100,215.446 333.100 C 215.998 333.100,218.305 331.982,218.852 331.449 C 219.106 331.201,219.540 330.998,219.815 330.998 C 220.099 330.998,220.318 330.657,220.321 330.210 C 220.325 329.624,220.405 329.546,220.632 329.905 C 220.942 330.394,222.728 329.472,222.756 328.809 C 222.762 328.665,223.010 328.546,223.307 328.546 C 223.785 328.546,225.807 327.324,226.270 326.755 C 226.366 326.636,226.799 326.429,227.233 326.293 C 227.666 326.158,228.021 325.900,228.021 325.721 C 228.021 325.541,228.220 325.394,228.462 325.394 C 228.705 325.394,229.097 325.083,229.335 324.703 C 229.612 324.259,229.975 324.093,230.352 324.237 C 230.729 324.382,230.853 324.325,230.700 324.078 C 230.570 323.866,230.741 323.604,231.081 323.495 C 231.421 323.386,232.157 322.902,232.716 322.419 C 233.276 321.936,233.889 321.541,234.077 321.541 C 234.266 321.541,234.786 321.147,235.232 320.665 C 235.678 320.184,236.209 319.790,236.411 319.790 C 236.612 319.790,236.780 319.435,236.783 319.002 C 236.787 318.474,236.881 318.359,237.068 318.654 C 237.371 319.132,239.297 317.644,239.677 316.637 C 239.816 316.267,239.883 316.249,239.902 316.577 C 239.919 316.853,240.332 316.640,240.920 316.051 C 241.465 315.507,242.419 314.667,243.041 314.186 C 245.340 312.404,246.627 311.034,246.378 310.631 C 246.229 310.390,246.279 310.319,246.500 310.455 C 246.886 310.694,253.240 304.627,253.240 304.020 C 253.240 303.832,253.410 303.678,253.618 303.678 C 254.127 303.678,257.093 300.465,257.093 299.913 C 257.093 299.318,256.208 299.359,255.583 299.983 C 255.304 300.263,254.977 300.395,254.859 300.276 C 254.621 300.038,250.684 301.913,250.496 302.353 C 250.266 302.894,249.659 302.606,248.488 301.401 C 247.834 300.727,247.216 300.175,247.116 300.175 C 247.016 300.175,245.713 298.898,244.220 297.337 C 242.728 295.776,241.142 294.358,240.697 294.186 C 240.252 294.013,239.976 293.729,240.084 293.554 C 240.192 293.379,239.492 292.418,238.529 291.419 C 237.566 290.419,236.778 289.459,236.778 289.284 C 236.778 289.110,236.558 288.967,236.290 288.967 C 236.022 288.967,235.706 288.583,235.589 288.114 C 235.471 287.646,235.060 287.162,234.675 287.040 C 234.290 286.918,233.975 286.598,233.975 286.328 C 233.975 286.059,233.503 285.355,232.925 284.764 C 232.347 284.172,231.874 283.604,231.874 283.501 C 231.874 283.397,231.677 283.093,231.436 282.824 C 230.418 281.689,230.123 281.273,230.123 280.975 C 230.123 280.801,229.738 280.370,229.268 280.017 C 228.798 279.664,228.322 279.011,228.211 278.567 C 228.099 278.122,227.853 277.758,227.664 277.758 C 227.475 277.758,227.320 277.584,227.320 277.371 C 227.320 277.158,226.848 276.386,226.270 275.657 C 225.692 274.927,225.219 274.156,225.219 273.943 C 225.219 273.730,225.072 273.555,224.892 273.555 C 224.713 273.555,224.457 273.213,224.324 272.794 C 224.191 272.375,223.780 271.709,223.411 271.312 C 223.042 270.916,222.650 270.234,222.540 269.797 C 222.431 269.360,222.211 269.002,222.052 269.002 C 221.893 269.002,221.653 268.654,221.519 268.230 C 221.232 267.328,220.483 266.499,220.206 266.776 C 220.099 266.883,220.095 266.652,220.197 266.264 C 220.322 265.784,220.147 265.434,219.648 265.167 C 219.217 264.936,218.914 264.428,218.914 263.936 C 218.914 263.475,218.697 262.880,218.431 262.615 C 218.166 262.349,217.838 261.629,217.703 261.013 C 217.568 260.398,217.312 259.895,217.135 259.895 C 216.958 259.895,216.813 259.737,216.813 259.545 C 216.813 258.911,217.461 259.180,217.693 259.910 C 217.855 260.421,218.111 260.564,218.592 260.411 C 218.983 260.287,219.264 260.363,219.264 260.593 C 219.264 260.810,219.067 260.882,218.827 260.754 C 218.586 260.625,219.043 261.128,219.843 261.871 C 222.387 264.235,224.900 266.370,225.308 266.514 C 225.525 266.590,226.145 267.138,226.687 267.730 C 227.228 268.323,227.671 268.682,227.671 268.527 C 227.671 268.373,228.156 268.732,228.748 269.325 C 229.341 269.918,229.993 270.403,230.196 270.403 C 230.400 270.403,230.958 270.836,231.436 271.366 C 231.915 271.896,232.189 272.093,232.046 271.804 C 231.903 271.515,232.215 271.723,232.741 272.265 C 233.267 272.808,233.916 273.168,234.182 273.066 C 234.449 272.964,234.630 273.015,234.584 273.179 C 234.487 273.528,236.032 274.956,236.506 274.956 C 236.683 274.956,237.047 275.153,237.316 275.394 C 238.531 276.484,238.884 276.708,239.390 276.708 C 239.687 276.708,239.930 276.865,239.930 277.058 C 239.930 277.250,240.245 277.408,240.630 277.408 C 241.016 277.408,241.331 277.641,241.331 277.927 C 241.331 278.212,241.725 278.544,242.207 278.665 C 242.688 278.786,243.082 279.044,243.082 279.238 C 243.082 279.432,243.392 279.510,243.771 279.411 C 244.150 279.312,244.425 279.386,244.384 279.576 C 244.342 279.766,245.412 280.498,246.760 281.204 C 248.109 281.909,249.291 282.566,249.387 282.662 C 249.724 283.000,252.795 284.413,253.191 284.413 C 253.410 284.413,253.590 284.553,253.590 284.725 C 253.590 284.896,254.142 285.139,254.816 285.266 C 255.490 285.392,256.042 285.646,256.042 285.830 C 256.042 286.014,256.278 286.165,256.567 286.165 C 256.856 286.165,257.093 286.310,257.093 286.487 C 257.093 286.664,257.605 286.921,258.231 287.056 C 258.857 287.192,259.485 287.481,259.627 287.697 C 259.809 287.977,259.886 287.964,259.890 287.653 C 259.893 287.412,260.062 287.215,260.266 287.215 C 260.470 287.215,260.550 287.357,260.443 287.529 C 260.220 287.890,261.037 288.266,262.046 288.266 C 262.427 288.266,262.641 288.424,262.522 288.616 C 262.403 288.809,262.630 288.967,263.027 288.967 C 263.423 288.967,263.748 289.124,263.748 289.317 C 263.748 289.510,264.260 289.655,264.886 289.640 C 265.512 289.624,265.835 289.535,265.604 289.441 C 265.338 289.333,265.593 288.846,266.305 288.108 C 267.793 286.565,268.301 285.908,268.301 285.532 C 268.301 285.361,268.613 284.861,268.994 284.422 C 269.376 283.982,269.600 283.481,269.494 283.309 C 269.387 283.136,269.499 283.038,269.743 283.091 C 269.987 283.144,270.252 282.872,270.333 282.487 C 270.415 282.102,270.700 281.660,270.967 281.506 C 271.235 281.352,271.454 281.070,271.454 280.879 C 271.454 280.688,271.775 280.186,272.168 279.765 C 272.560 279.343,272.972 278.640,273.081 278.203 C 273.191 277.766,273.421 277.408,273.593 277.408 C 273.765 277.408,273.905 277.183,273.905 276.908 C 273.905 276.632,274.108 276.199,274.357 275.944 C 274.906 275.380,276.123 272.841,276.124 272.257 C 276.124 272.025,276.244 271.909,276.390 271.999 C 276.537 272.090,276.768 271.807,276.905 271.371 C 277.041 270.935,277.296 270.485,277.473 270.371 C 277.649 270.258,277.818 269.835,277.849 269.432 C 277.879 269.030,278.002 268.760,278.121 268.834 C 278.370 268.988,279.467 266.632,279.693 265.458 C 279.776 265.027,279.965 264.585,280.114 264.474 C 280.753 264.000,281.278 262.595,281.080 261.887 C 280.910 261.282,280.942 261.232,281.233 261.646 C 281.550 262.099,281.601 262.087,281.606 261.559 C 281.609 261.222,281.749 260.946,281.917 260.946 C 282.085 260.946,282.321 260.328,282.442 259.574 C 282.562 258.820,282.858 258.122,283.099 258.025 C 283.430 257.891,283.408 257.755,283.012 257.475 C 282.604 257.186,282.593 257.102,282.962 257.098 C 283.255 257.095,283.354 256.876,283.221 256.528 C 283.066 256.125,283.155 256.022,283.531 256.166 C 283.928 256.318,284.114 256.024,284.281 254.979 C 284.403 254.215,284.623 253.590,284.769 253.590 C 284.916 253.590,285.143 253.019,285.274 252.321 C 285.405 251.623,285.640 250.796,285.797 250.482 C 286.601 248.878,286.881 248.037,287.036 246.762 C 287.129 245.992,287.361 245.310,287.552 245.247 C 287.743 245.183,288.002 244.351,288.129 243.398 C 288.255 242.445,288.495 241.581,288.663 241.478 C 288.830 241.374,288.967 240.914,288.967 240.455 C 288.967 239.996,289.112 239.531,289.290 239.422 C 289.467 239.312,289.722 238.199,289.856 236.949 C 289.990 235.699,290.223 234.676,290.373 234.676 C 290.788 234.676,290.951 231.548,290.545 231.377 C 290.351 231.295,290.390 231.216,290.630 231.201 C 290.871 231.186,291.068 230.789,291.068 230.318 C 291.068 229.848,291.226 229.366,291.419 229.247 C 291.611 229.128,291.769 228.362,291.769 227.545 C 291.769 226.728,291.921 225.907,292.108 225.720 C 292.294 225.534,292.552 223.572,292.681 221.360 C 292.809 219.148,293.050 217.165,293.216 216.953 C 293.601 216.462,294.000 196.497,293.625 196.498 C 293.471 196.499,293.395 194.898,293.457 192.942 C 293.601 188.381,293.444 187.741,292.182 187.741 C 291.647 187.741,291.058 187.892,290.873 188.076 C 290.689 188.260,289.357 188.515,287.914 188.643 C 286.470 188.770,285.200 189.014,285.092 189.185 C 284.984 189.356,283.959 189.584,282.815 189.691 C 281.671 189.798,280.586 190.034,280.403 190.215 C 280.220 190.395,279.708 190.543,279.264 190.543 C 278.821 190.543,278.459 190.679,278.459 190.844 C 278.459 191.010,277.683 191.238,276.734 191.350 C 275.786 191.462,274.722 191.712,274.370 191.905 C 274.018 192.098,273.135 192.351,272.407 192.468 C 271.679 192.584,271.170 192.819,271.274 192.988 C 271.379 193.158,271.305 193.396,271.109 193.517 C 270.913 193.638,270.753 193.538,270.753 193.296 C 270.753 192.970,270.651 192.957,270.360 193.248 C 270.144 193.464,269.750 193.557,269.484 193.455 C 269.219 193.353,269.002 193.424,269.002 193.613 C 269.002 193.802,268.340 194.062,267.531 194.191 C 266.721 194.321,265.837 194.611,265.565 194.836 C 265.294 195.062,264.688 195.298,264.220 195.360 C 263.752 195.423,262.853 195.764,262.221 196.119 C 261.590 196.474,260.572 196.874,259.959 197.009 C 259.346 197.143,258.844 197.379,258.844 197.531 C 258.844 197.684,258.214 197.910,257.443 198.033 C 256.673 198.156,256.042 198.413,256.042 198.603 C 256.042 198.793,255.806 198.949,255.517 198.949 C 255.228 198.949,254.991 199.089,254.991 199.260 C 254.991 199.432,254.440 199.675,253.765 199.802 C 253.091 199.928,252.539 200.170,252.539 200.338 C 252.539 200.507,252.067 200.749,251.489 200.876 C 250.911 201.003,250.438 201.252,250.438 201.429 C 250.438 201.606,250.201 201.751,249.912 201.751 C 249.623 201.751,249.387 201.891,249.387 202.063 C 249.387 202.234,248.835 202.477,248.161 202.604 C 247.487 202.730,246.935 202.972,246.935 203.140 C 246.935 203.309,246.462 203.551,245.884 203.678 C 245.306 203.805,244.834 204.054,244.834 204.231 C 244.834 204.408,244.597 204.553,244.308 204.553 C 244.019 204.553,243.783 204.708,243.783 204.897 C 243.783 205.086,243.389 205.339,242.907 205.460 C 242.426 205.581,242.032 205.804,242.032 205.954 C 242.032 206.105,241.674 206.319,241.236 206.428 C 240.799 206.538,240.117 206.930,239.721 207.299 C 239.325 207.668,238.672 208.074,238.272 208.202 C 237.871 208.329,237.454 208.663,237.346 208.945 C 237.238 209.227,236.830 209.457,236.438 209.457 C 236.047 209.457,235.727 209.615,235.727 209.807 C 235.727 210.000,235.451 210.160,235.114 210.163 C 234.590 210.168,234.577 210.218,235.026 210.508 C 235.480 210.801,235.471 210.848,234.964 210.853 C 234.640 210.856,234.134 211.100,233.838 211.396 C 233.542 211.692,233.176 211.948,233.025 211.966 C 232.353 212.044,231.656 212.434,231.132 213.023 C 230.821 213.373,230.399 213.660,230.196 213.660 C 229.993 213.660,229.353 214.133,228.775 214.711 C 228.197 215.289,227.612 215.762,227.475 215.762 C 227.338 215.762,226.860 216.156,226.414 216.637 C 225.968 217.119,225.443 217.513,225.248 217.513 C 225.053 217.513,224.409 217.986,223.818 218.564 C 223.227 219.142,222.663 219.615,222.565 219.615 C 221.967 219.615,219.633 222.014,220.062 222.188 C 220.298 222.283,220.203 222.374,219.852 222.389 C 219.502 222.404,219.009 222.614,218.757 222.855 C 218.505 223.095,217.973 223.518,217.575 223.794 C 217.176 224.070,216.920 224.408,217.004 224.545 C 217.089 224.683,216.913 224.889,216.613 225.005 C 216.313 225.120,216.166 225.373,216.286 225.567 C 216.406 225.761,216.241 225.919,215.919 225.919 C 215.232 225.919,210.174 230.786,210.164 231.457 C 210.161 231.709,210.024 231.833,209.861 231.732 C 209.697 231.631,209.106 232.124,208.547 232.827 C 207.988 233.531,206.705 234.983,205.697 236.055 C 204.688 237.127,203.861 238.120,203.858 238.263 C 203.855 238.406,203.385 238.970,202.813 239.517 C 202.018 240.276,201.869 240.608,202.182 240.921 C 202.495 241.234,202.389 241.332,201.734 241.336 C 201.051 241.341,200.983 241.411,201.401 241.681 C 201.866 241.982,201.864 242.021,201.391 242.026 C 201.096 242.029,200.623 242.369,200.340 242.780 C 200.057 243.192,199.463 243.902,199.021 244.357 C 198.339 245.058,198.308 245.184,198.817 245.184 C 199.361 245.184,199.205 245.701,198.657 245.715 C 198.215 245.726,196.848 247.092,196.848 247.523 C 196.848 247.760,196.493 248.340,196.060 248.812 C 194.798 250.186,194.496 250.620,194.240 251.428 C 194.107 251.847,193.851 252.189,193.672 252.189 C 193.492 252.189,193.345 252.426,193.345 252.715 C 193.345 253.004,193.190 253.240,193.001 253.240 C 192.812 253.240,192.559 253.634,192.438 254.116 C 192.317 254.597,192.095 254.991,191.944 254.991 C 191.793 254.991,191.571 255.385,191.450 255.867 C 191.329 256.349,191.075 256.743,190.886 256.743 C 190.698 256.743,190.543 256.979,190.543 257.268 C 190.543 257.557,190.392 257.793,190.209 257.793 C 190.025 257.793,189.768 258.358,189.639 259.047 C 189.510 259.737,189.187 260.384,188.922 260.486 C 188.658 260.587,188.441 260.890,188.441 261.158 C 188.441 261.427,188.284 261.646,188.091 261.646 C 187.898 261.646,187.741 261.883,187.741 262.172 C 187.741 262.461,187.583 262.697,187.391 262.697 C 187.198 262.697,187.035 262.894,187.028 263.135 C 187.022 263.376,186.712 264.203,186.340 264.974 C 185.968 265.744,185.658 266.572,185.651 266.813 C 185.645 267.053,185.482 267.250,185.289 267.250 C 185.096 267.250,184.939 267.487,184.939 267.776 C 184.939 268.065,184.788 268.301,184.604 268.301 C 184.420 268.301,184.166 268.853,184.040 269.527 C 183.913 270.201,183.687 270.753,183.538 270.753 C 183.388 270.753,183.162 271.305,183.035 271.979 C 182.909 272.653,182.655 273.205,182.471 273.205 C 182.287 273.205,182.137 273.507,182.137 273.876 C 182.137 274.245,181.965 274.605,181.756 274.674 C 181.547 274.744,181.350 275.446,181.318 276.233 C 181.279 277.217,181.124 277.613,180.823 277.499 C 180.571 277.404,180.383 277.610,180.380 277.984 C 180.368 279.384,179.863 279.555,178.713 278.549 C 178.106 278.018,177.099 277.189,176.475 276.708 C 175.850 276.226,175.107 275.564,174.823 275.237 C 174.538 274.910,174.176 274.722,174.018 274.820 C 173.860 274.918,173.730 274.752,173.730 274.451 C 173.730 274.151,173.563 273.905,173.358 273.905 C 172.972 273.905,171.693 272.802,169.816 270.850 C 169.219 270.229,168.591 269.807,168.420 269.912 C 168.249 270.018,168.152 269.910,168.205 269.672 C 168.258 269.434,167.907 269.122,167.426 268.980 C 166.944 268.838,166.756 268.706,167.008 268.686 C 167.261 268.667,167.368 268.491,167.247 268.296 C 167.126 268.100,166.880 268.030,166.701 268.141 C 166.522 268.252,166.375 268.169,166.375 267.957 C 166.375 267.330,165.059 266.105,164.654 266.356 C 164.438 266.489,164.357 266.389,164.461 266.117 C 164.564 265.849,163.738 264.788,162.531 263.638 C 161.370 262.533,160.420 261.486,160.420 261.311 C 160.420 261.136,160.121 260.898,159.755 260.782 C 159.388 260.665,158.984 260.151,158.855 259.638 C 158.682 258.950,158.544 258.830,158.326 259.182 C 158.110 259.532,158.000 259.435,157.913 258.813 C 157.833 258.248,157.582 257.986,157.156 258.021 C 156.743 258.055,156.585 257.902,156.707 257.583 C 156.811 257.314,156.767 257.093,156.610 257.093 C 156.453 257.093,156.182 256.796,156.008 256.433 C 155.675 255.738,154.130 253.725,152.802 252.258 C 152.369 251.778,152.014 251.245,152.014 251.071 C 152.014 250.898,151.620 250.362,151.138 249.881 C 150.657 249.399,150.263 248.838,150.263 248.633 C 150.263 248.429,150.046 248.345,149.781 248.446 C 149.516 248.548,149.304 248.447,149.311 248.221 C 149.342 247.100,149.178 246.565,148.862 246.760 C 148.669 246.879,148.511 246.731,148.511 246.430 C 148.511 246.130,148.371 245.884,148.199 245.884 C 148.027 245.884,147.788 245.490,147.667 245.009 C 147.546 244.527,147.293 244.133,147.104 244.133 C 146.915 244.133,146.760 243.892,146.760 243.597 C 146.760 243.302,146.524 242.970,146.235 242.859 C 145.946 242.748,145.709 242.426,145.709 242.144 C 145.709 241.862,145.512 241.412,145.271 241.143 C 144.224 239.975,143.958 239.586,143.958 239.224 C 143.958 239.011,143.802 238.934,143.612 239.052 C 143.421 239.170,143.346 239.055,143.445 238.797 C 143.544 238.540,143.324 238.006,142.956 237.612 C 142.589 237.217,142.178 236.395,142.044 235.785 C 141.910 235.175,141.656 234.676,141.478 234.676 C 141.301 234.676,141.156 234.445,141.156 234.163 C 141.156 233.881,140.836 233.479,140.446 233.270 C 140.055 233.061,139.829 232.738,139.944 232.552 C 140.058 232.367,139.453 230.759,138.600 228.980 C 137.746 227.200,136.830 225.232,136.564 224.606 C 136.299 223.980,135.975 223.468,135.844 223.468 C 135.714 223.468,135.501 222.984,135.371 222.393 C 135.242 221.802,134.915 220.896,134.645 220.379 C 134.376 219.862,134.154 219.233,134.153 218.981 C 134.152 218.724,133.973 218.632,133.746 218.773 C 133.494 218.928,133.437 218.868,133.595 218.614 C 133.734 218.389,133.604 217.718,133.308 217.123 C 133.011 216.528,132.666 215.496,132.541 214.830 C 132.404 214.101,132.147 213.682,131.897 213.778 C 131.612 213.887,131.530 213.601,131.637 212.874 C 131.736 212.200,131.661 211.891,131.433 212.032 C 131.228 212.158,131.065 211.915,131.055 211.469 C 131.025 210.110,130.581 208.406,130.258 208.406 C 130.087 208.406,129.941 208.052,129.932 207.618 C 129.924 207.185,129.684 206.200,129.400 205.429 C 129.116 204.658,128.789 203.398,128.674 202.627 C 128.558 201.856,128.309 201.128,128.120 201.008 C 127.931 200.889,127.776 200.219,127.776 199.520 C 127.776 198.821,127.650 198.249,127.496 198.249 C 127.342 198.249,127.106 197.145,126.970 195.795 C 126.835 194.446,126.582 193.255,126.409 193.148 C 126.236 193.041,126.095 192.600,126.095 192.168 C 126.095 191.737,125.898 191.171,125.657 190.912 C 125.416 190.652,125.392 190.537,125.604 190.655 C 126.069 190.914,125.835 187.402,125.353 186.883 C 125.183 186.700,125.044 185.570,125.044 184.372 C 125.044 183.125,124.882 182.141,124.666 182.069 C 124.413 181.985,124.221 178.552,124.086 171.707 C 123.947 164.648,123.766 161.469,123.501 161.466 C 123.226 161.462,123.227 161.387,123.505 161.203 C 123.857 160.969,124.318 154.866,124.344 150.088 C 124.351 148.827,124.449 148.483,124.694 148.862 C 124.933 149.232,125.035 148.748,125.038 147.219 C 125.041 146.026,125.183 144.964,125.352 144.859 C 125.522 144.755,125.774 143.287,125.913 141.599 C 126.052 139.910,126.288 138.371,126.439 138.179 C 126.884 137.609,127.035 135.226,126.637 135.059 C 126.427 134.972,126.457 134.895,126.708 134.879 C 126.948 134.864,127.145 134.545,127.145 134.171 C 127.145 133.797,127.318 133.385,127.529 133.254 C 127.740 133.124,127.852 132.495,127.777 131.857 C 127.701 131.201,127.795 130.724,127.994 130.760 C 128.187 130.795,128.509 129.929,128.708 128.835 C 128.908 127.742,129.188 126.733,129.330 126.593 C 129.471 126.453,129.689 125.574,129.812 124.640 C 129.936 123.706,130.175 122.942,130.343 122.942 C 130.511 122.942,130.648 122.580,130.648 122.137 C 130.648 121.694,130.792 121.181,130.969 120.998 C 131.145 120.815,131.386 120.042,131.504 119.279 C 131.622 118.517,131.873 117.797,132.062 117.680 C 132.251 117.563,132.444 116.829,132.490 116.048 C 132.548 115.082,132.714 114.682,133.012 114.795 C 133.293 114.902,133.450 114.634,133.450 114.048 C 133.450 113.546,133.594 113.135,133.770 113.135 C 133.945 113.135,134.196 112.504,134.326 111.734 C 134.456 110.963,134.725 110.333,134.923 110.333 C 135.121 110.333,135.201 110.017,135.100 109.632 C 134.999 109.246,135.059 109.019,135.234 109.127 C 135.409 109.235,135.552 109.012,135.552 108.631 C 135.552 108.251,135.749 107.873,135.989 107.792 C 136.328 107.678,136.314 107.508,135.930 107.042 C 135.657 106.711,135.578 106.468,135.755 106.502 C 136.414 106.627,136.953 106.470,136.953 106.152 C 136.953 105.972,137.137 105.381,137.361 104.839 C 137.586 104.297,137.789 103.774,137.812 103.678 C 137.906 103.291,139.206 100.689,139.386 100.525 C 139.747 100.199,142.207 95.068,142.207 94.643 C 142.207 94.411,142.364 94.221,142.557 94.221 C 142.750 94.221,142.907 93.984,142.907 93.695 C 142.907 93.406,143.062 93.170,143.251 93.170 C 143.440 93.170,143.693 92.776,143.814 92.294 C 143.935 91.813,144.157 91.419,144.308 91.419 C 144.459 91.419,144.681 91.025,144.802 90.543 C 144.923 90.061,145.177 89.667,145.366 89.667 C 145.555 89.667,145.709 89.498,145.709 89.292 C 145.709 89.086,145.947 88.679,146.238 88.388 C 146.529 88.097,146.676 87.713,146.566 87.535 C 146.456 87.356,146.612 87.116,146.913 87.000 C 147.214 86.885,147.461 86.566,147.461 86.291 C 147.461 86.017,147.697 85.702,147.986 85.591 C 148.275 85.480,148.511 85.108,148.511 84.764 C 148.511 84.420,148.748 84.047,149.037 83.936 C 149.326 83.825,149.562 83.561,149.562 83.348 C 149.562 83.136,149.759 82.743,150.000 82.474 C 151.039 81.315,151.313 80.919,151.313 80.575 C 151.313 80.374,151.475 80.210,151.672 80.210 C 151.870 80.210,152.192 79.856,152.388 79.422 C 153.022 78.020,153.565 77.258,154.904 75.889 C 155.626 75.150,156.217 74.430,156.217 74.288 C 156.217 74.147,156.887 73.311,157.706 72.431 C 158.525 71.551,159.746 70.165,160.420 69.351 C 161.095 68.538,161.914 67.625,162.241 67.324 C 162.569 67.022,162.741 66.621,162.625 66.433 C 162.509 66.245,162.575 66.191,162.771 66.312 C 163.171 66.560,164.374 65.400,164.099 65.033 C 164.002 64.904,164.022 64.871,164.143 64.960 C 164.479 65.207,169.223 60.208,169.075 59.761 C 169.004 59.545,167.978 59.323,166.785 59.265 C 165.596 59.208,164.623 59.022,164.623 58.852 C 164.623 58.147,137.785 57.451,137.098 58.139 M209.785 263.748 C 209.945 263.748,210.186 264.929,210.321 266.372 C 210.457 267.816,210.711 269.086,210.888 269.195 C 211.064 269.304,211.208 269.825,211.208 270.353 C 211.208 270.881,211.376 271.481,211.581 271.686 C 211.786 271.891,212.032 272.905,212.128 273.938 C 212.224 274.972,212.458 275.914,212.648 276.031 C 212.960 276.223,213.158 277.146,213.270 278.917 C 213.292 279.266,213.436 279.473,213.589 279.378 C 213.743 279.283,214.098 279.350,214.377 279.527 C 214.727 279.748,214.749 279.851,214.448 279.855 C 214.208 279.857,214.011 280.254,214.011 280.736 C 214.011 281.217,214.153 281.611,214.328 281.611 C 214.502 281.611,214.754 282.399,214.886 283.363 C 215.019 284.326,215.270 285.114,215.444 285.114 C 215.619 285.114,215.763 285.468,215.764 285.902 C 215.765 286.335,216.002 287.141,216.289 287.693 C 216.577 288.245,216.813 288.915,216.813 289.182 C 216.813 289.449,216.956 289.667,217.132 289.667 C 217.308 289.667,217.558 290.298,217.688 291.068 C 217.818 291.839,218.069 292.469,218.244 292.469 C 218.420 292.469,218.564 292.705,218.564 292.992 C 218.564 293.722,219.722 296.322,220.048 296.322 C 220.195 296.322,220.315 296.628,220.315 297.002 C 220.315 297.376,220.466 297.775,220.650 297.889 C 220.834 298.003,220.896 298.327,220.788 298.610 C 220.679 298.893,220.748 299.124,220.940 299.124 C 221.133 299.124,221.398 299.556,221.531 300.084 C 221.663 300.612,221.952 301.155,222.172 301.291 C 222.392 301.427,222.451 301.659,222.303 301.807 C 222.156 301.954,221.761 301.904,221.426 301.695 C 221.091 301.486,220.300 301.201,219.667 301.062 C 219.034 300.923,218.094 300.589,217.577 300.319 C 217.060 300.050,216.283 299.828,215.849 299.827 C 215.416 299.826,215.061 299.706,215.061 299.560 C 215.061 299.254,213.571 298.568,212.172 298.230 C 211.642 298.102,211.208 297.877,211.208 297.730 C 211.208 297.583,210.578 297.362,209.807 297.239 C 209.037 297.115,208.406 296.859,208.406 296.668 C 208.406 296.478,208.170 296.322,207.881 296.322 C 207.592 296.322,207.356 296.165,207.356 295.972 C 207.356 295.779,207.080 295.617,206.743 295.611 C 205.861 295.595,204.730 294.691,205.323 294.477 C 205.691 294.344,205.695 294.169,205.342 293.571 C 204.817 292.682,204.764 290.846,205.254 290.543 C 205.447 290.424,205.604 289.863,205.604 289.296 C 205.604 288.730,205.447 288.266,205.254 288.266 C 205.061 288.266,204.904 288.099,204.904 287.895 C 204.904 287.691,205.053 287.616,205.235 287.729 C 205.435 287.853,205.570 286.390,205.576 284.031 C 205.582 281.884,205.734 279.949,205.914 279.731 C 206.374 279.172,206.566 274.606,206.130 274.600 C 205.937 274.597,205.993 274.460,206.254 274.294 C 206.581 274.087,206.690 273.445,206.604 272.231 C 206.536 271.262,206.581 270.532,206.705 270.608 C 207.012 270.798,207.275 269.630,207.562 266.813 C 207.694 265.512,207.938 264.448,208.104 264.448 C 208.270 264.448,208.406 263.895,208.406 263.218 C 208.406 261.117,209.257 260.202,209.389 262.160 C 209.447 263.033,209.626 263.748,209.785 263.748 " stroke="none" fill="#7cb4fc" fill-rule="evenodd"></path><path id="path1" d="M348.687 0.396 C 346.953 0.562,345.260 0.856,344.926 1.050 C 344.591 1.243,343.843 1.401,343.262 1.401 C 342.682 1.401,342.207 1.541,342.207 1.711 C 342.207 1.881,341.340 2.129,340.280 2.262 C 339.221 2.394,338.354 2.628,338.354 2.782 C 338.354 2.936,337.572 3.166,336.617 3.293 C 335.662 3.419,334.785 3.676,334.670 3.863 C 334.554 4.050,334.154 4.203,333.780 4.203 C 333.406 4.203,333.100 4.341,333.100 4.509 C 333.100 4.677,332.469 4.915,331.699 5.038 C 330.928 5.161,330.298 5.418,330.298 5.608 C 330.298 5.799,330.062 5.954,329.775 5.954 C 329.079 5.954,326.445 7.106,326.445 7.410 C 326.445 7.542,325.972 7.754,325.394 7.881 C 324.816 8.008,324.343 8.257,324.343 8.434 C 324.343 8.611,324.092 8.757,323.784 8.757 C 323.166 8.757,321.083 9.831,320.899 10.245 C 320.835 10.390,320.570 10.508,320.311 10.508 C 320.052 10.508,319.632 10.705,319.377 10.947 C 319.122 11.188,318.323 11.697,317.601 12.077 C 316.878 12.457,316.287 12.891,316.287 13.039 C 316.287 13.188,316.046 13.310,315.751 13.310 C 315.456 13.310,315.124 13.546,315.013 13.835 C 314.902 14.124,314.599 14.361,314.339 14.361 C 314.080 14.361,313.473 14.755,312.992 15.236 C 312.510 15.718,311.974 16.112,311.801 16.112 C 311.628 16.112,311.084 16.467,310.594 16.900 C 309.469 17.894,307.022 19.962,305.444 21.252 C 303.203 23.085,299.980 26.464,296.673 30.450 C 295.998 31.262,295.013 32.411,294.483 33.003 C 293.954 33.595,293.520 34.191,293.520 34.327 C 293.520 34.462,293.165 34.969,292.732 35.452 C 291.863 36.421,291.961 36.275,288.980 41.017 C 287.817 42.867,286.865 44.562,286.865 44.783 C 286.865 45.003,286.708 45.184,286.515 45.184 C 286.322 45.184,286.165 45.407,286.165 45.680 C 286.165 45.953,286.044 46.229,285.896 46.293 C 285.544 46.446,282.312 52.957,282.312 53.513 C 282.312 53.748,282.154 53.940,281.961 53.940 C 281.769 53.940,281.606 54.216,281.599 54.553 C 281.593 54.891,281.283 55.797,280.911 56.567 C 280.538 57.338,280.229 58.323,280.222 58.757 C 280.216 59.190,280.053 59.545,279.860 59.545 C 279.667 59.545,279.510 59.763,279.510 60.030 C 279.510 60.297,279.274 60.967,278.986 61.519 C 278.699 62.070,278.462 62.867,278.461 63.289 C 278.460 63.711,278.306 64.151,278.119 64.267 C 277.932 64.383,277.675 65.259,277.548 66.214 C 277.421 67.169,277.180 67.951,277.013 67.951 C 276.845 67.951,276.708 68.503,276.708 69.177 C 276.708 69.851,276.562 70.403,276.385 70.403 C 276.208 70.403,275.953 71.430,275.818 72.684 C 275.684 73.939,275.447 75.045,275.291 75.141 C 275.135 75.237,274.897 76.732,274.762 78.463 C 274.626 80.195,274.378 81.611,274.211 81.611 C 274.043 81.611,273.905 82.683,273.905 83.993 C 273.905 85.303,273.740 86.540,273.539 86.741 C 273.064 87.216,273.256 92.197,273.755 92.362 C 274.224 92.517,275.034 91.777,277.123 89.287 C 279.175 86.842,289.819 76.190,291.983 74.418 C 292.867 73.693,294.515 72.178,295.646 71.051 C 296.777 69.924,297.829 69.002,297.984 69.002 C 298.139 69.002,298.908 68.332,299.692 67.513 C 300.477 66.694,301.480 65.788,301.921 65.499 C 302.362 65.210,303.057 64.658,303.463 64.272 C 303.870 63.886,304.886 63.035,305.721 62.380 C 308.000 60.594,308.929 59.818,310.060 58.757 C 310.625 58.227,311.209 57.793,311.357 57.793 C 311.505 57.793,312.005 57.469,312.468 57.072 C 312.931 56.675,313.625 56.081,314.011 55.751 C 314.396 55.422,315.302 54.788,316.025 54.343 C 316.747 53.898,317.338 53.388,317.338 53.211 C 317.338 53.034,317.507 52.890,317.713 52.890 C 317.920 52.890,318.308 52.693,318.577 52.452 C 319.724 51.423,320.130 51.138,320.450 51.138 C 320.637 51.138,321.100 50.744,321.479 50.263 C 321.857 49.781,322.330 49.387,322.530 49.387 C 322.729 49.387,323.107 49.190,323.370 48.949 C 323.633 48.708,324.108 48.354,324.427 48.161 C 325.697 47.393,330.133 44.334,330.298 44.113 C 330.394 43.983,330.827 43.767,331.261 43.631 C 331.694 43.496,332.049 43.255,332.049 43.097 C 332.049 42.938,332.443 42.709,332.925 42.588 C 333.406 42.467,333.800 42.214,333.800 42.025 C 333.800 41.836,334.037 41.681,334.326 41.681 C 334.615 41.681,334.851 41.527,334.851 41.338 C 334.851 41.149,335.245 40.895,335.727 40.774 C 336.208 40.653,336.602 40.450,336.602 40.322 C 336.602 40.194,337.194 39.778,337.916 39.397 C 338.638 39.017,339.421 38.548,339.655 38.355 C 339.889 38.162,340.316 37.806,340.604 37.566 C 340.891 37.325,341.374 37.128,341.677 37.128 C 341.981 37.128,342.319 36.891,342.430 36.602 C 342.541 36.313,342.851 36.077,343.120 36.077 C 343.388 36.077,343.608 35.919,343.608 35.727 C 343.608 35.534,343.902 35.377,344.261 35.377 C 344.620 35.377,345.290 35.097,345.750 34.754 C 346.209 34.412,347.058 33.900,347.636 33.617 C 348.214 33.333,348.765 33.022,348.862 32.925 C 348.958 32.829,349.825 32.356,350.788 31.874 C 351.751 31.392,352.592 30.880,352.656 30.736 C 352.720 30.591,352.996 30.473,353.269 30.473 C 353.542 30.473,353.765 30.315,353.765 30.123 C 353.765 29.930,353.950 29.772,354.175 29.772 C 354.610 29.772,359.071 27.688,359.370 27.346 C 359.554 27.134,361.920 25.985,363.835 25.178 C 364.461 24.914,364.974 24.579,364.974 24.433 C 364.974 24.287,365.171 24.163,365.412 24.156 C 365.652 24.150,366.480 23.840,367.250 23.468 C 368.021 23.095,368.849 22.785,369.089 22.779 C 369.330 22.772,369.527 22.642,369.527 22.489 C 369.527 22.337,370.394 21.917,371.454 21.557 C 372.513 21.197,373.380 20.782,373.380 20.636 C 373.380 20.490,373.854 20.267,374.434 20.139 C 375.014 20.012,375.921 19.704,376.448 19.455 C 376.976 19.205,377.920 18.786,378.546 18.522 C 379.173 18.258,379.685 17.937,379.685 17.809 C 379.685 17.680,380.315 17.468,381.086 17.338 C 381.856 17.208,382.487 16.958,382.487 16.782 C 382.487 16.606,382.763 16.461,383.100 16.460 C 383.437 16.459,384.164 16.223,384.716 15.935 C 385.268 15.647,385.925 15.412,386.175 15.412 C 386.426 15.412,386.684 15.279,386.748 15.117 C 386.813 14.955,387.417 14.717,388.091 14.588 L 389.317 14.354 387.741 15.407 C 386.874 15.986,385.968 16.460,385.727 16.461 C 385.486 16.462,385.289 16.588,385.289 16.742 C 385.289 16.896,384.727 17.225,384.040 17.474 C 383.353 17.722,382.710 18.138,382.610 18.398 C 382.510 18.659,381.969 18.972,381.407 19.096 C 380.845 19.219,380.385 19.465,380.385 19.643 C 380.385 19.820,380.160 19.965,379.885 19.965 C 379.610 19.965,379.176 20.168,378.922 20.416 C 378.667 20.664,377.868 21.144,377.145 21.483 C 376.423 21.822,375.832 22.230,375.832 22.389 C 375.832 22.549,375.398 22.767,374.869 22.874 C 374.339 22.982,373.590 23.357,373.205 23.709 C 372.820 24.060,372.110 24.543,371.629 24.781 C 370.668 25.256,369.895 25.726,368.301 26.803 C 367.723 27.194,366.659 27.822,365.937 28.197 C 365.215 28.573,364.623 29.003,364.623 29.151 C 364.623 29.300,364.387 29.422,364.098 29.422 C 363.809 29.422,363.573 29.577,363.573 29.766 C 363.573 29.955,363.179 30.208,362.697 30.329 C 362.215 30.450,361.821 30.672,361.821 30.823 C 361.821 30.974,361.427 31.196,360.946 31.317 C 360.464 31.438,360.070 31.692,360.070 31.881 C 360.070 32.070,359.834 32.224,359.545 32.224 C 359.256 32.224,359.019 32.371,359.019 32.551 C 359.019 32.730,358.677 32.986,358.258 33.119 C 357.839 33.252,357.327 33.497,357.120 33.663 C 356.912 33.829,356.247 34.361,355.641 34.846 C 355.035 35.330,354.397 35.727,354.222 35.727 C 353.912 35.727,350.964 37.754,350.613 38.208 C 350.517 38.332,350.083 38.545,349.650 38.680 C 349.216 38.816,348.862 39.073,348.862 39.253 C 348.862 39.433,348.636 39.580,348.361 39.580 C 348.086 39.580,347.653 39.783,347.398 40.032 C 347.143 40.281,345.753 41.266,344.308 42.221 C 342.863 43.176,341.629 44.076,341.565 44.221 C 341.500 44.365,341.238 44.483,340.981 44.483 C 340.724 44.483,340.461 44.602,340.397 44.746 C 340.333 44.891,339.492 45.555,338.529 46.222 C 337.566 46.890,336.569 47.638,336.315 47.886 C 336.060 48.134,335.707 48.336,335.531 48.336 C 335.204 48.336,334.222 49.064,333.047 50.175 C 332.691 50.512,332.253 50.788,332.074 50.788 C 331.895 50.788,331.537 50.985,331.277 51.226 C 330.104 52.315,327.852 53.940,327.516 53.940 C 327.312 53.940,327.145 54.073,327.145 54.236 C 327.145 54.398,326.594 54.828,325.919 55.191 C 325.245 55.554,324.694 55.942,324.694 56.053 C 324.694 56.164,323.708 56.941,322.504 57.780 C 320.183 59.399,319.833 59.674,318.285 61.096 C 317.747 61.591,317.161 61.996,316.984 61.996 C 316.807 61.996,316.195 62.452,315.626 63.009 C 315.056 63.566,314.442 64.078,314.261 64.147 C 313.805 64.321,311.853 65.830,310.584 66.988 C 310.003 67.518,309.408 67.951,309.260 67.951 C 309.113 67.951,308.443 68.484,307.772 69.136 C 307.101 69.787,306.400 70.378,306.215 70.449 C 305.809 70.604,302.885 73.018,301.545 74.303 C 301.016 74.811,300.216 75.478,299.766 75.786 C 298.608 76.581,296.518 78.360,294.467 80.298 C 293.498 81.213,292.605 81.961,292.483 81.961 C 292.361 81.961,291.358 82.789,290.256 83.800 C 288.058 85.816,286.779 86.903,285.510 87.833 C 285.053 88.168,284.060 89.022,283.302 89.732 C 282.544 90.442,281.788 91.072,281.621 91.133 C 281.268 91.261,278.672 93.461,276.633 95.359 C 275.857 96.081,275.085 96.673,274.919 96.673 C 274.752 96.673,273.835 97.421,272.881 98.336 C 271.127 100.020,269.467 101.469,267.271 103.234 C 266.607 103.767,265.150 105.070,264.031 106.130 C 262.913 107.189,261.271 108.687,260.382 109.457 C 257.923 111.590,246.614 122.949,245.574 124.330 C 245.071 124.999,243.910 126.284,242.995 127.187 C 242.080 128.089,241.331 128.983,241.331 129.173 C 241.331 129.363,240.661 130.222,239.842 131.080 C 239.024 131.939,237.989 133.130,237.542 133.726 C 236.475 135.153,235.863 134.846,235.584 132.743 C 235.459 131.799,235.203 130.932,235.016 130.817 C 234.829 130.701,234.676 130.301,234.676 129.927 C 234.676 129.553,234.532 129.247,234.357 129.247 C 234.181 129.247,233.931 128.616,233.800 127.846 C 233.670 127.075,233.437 126.445,233.283 126.445 C 233.129 126.445,232.899 125.893,232.773 125.219 C 232.646 124.545,232.392 123.993,232.208 123.993 C 232.024 123.993,231.874 123.757,231.874 123.468 C 231.874 123.179,231.723 122.942,231.540 122.942 C 231.356 122.942,231.102 122.391,230.975 121.716 C 230.849 121.042,230.618 120.490,230.462 120.490 C 230.306 120.490,230.074 120.018,229.947 119.440 C 229.821 118.862,229.572 118.389,229.394 118.389 C 229.217 118.389,229.072 118.152,229.072 117.863 C 229.072 117.574,228.917 117.338,228.728 117.338 C 228.539 117.338,228.286 116.944,228.165 116.462 C 228.044 115.981,227.822 115.587,227.671 115.587 C 227.520 115.587,227.298 115.193,227.177 114.711 C 227.056 114.229,226.802 113.835,226.613 113.835 C 226.424 113.835,226.270 113.599,226.270 113.310 C 226.270 113.021,226.123 112.785,225.943 112.785 C 225.763 112.785,225.508 112.442,225.375 112.023 C 225.120 111.220,224.818 110.785,223.582 109.435 C 223.164 108.978,222.720 108.284,222.596 107.892 C 222.471 107.501,222.223 107.180,222.043 107.180 C 221.863 107.180,221.716 106.955,221.716 106.680 C 221.716 106.405,221.519 105.965,221.278 105.702 C 220.649 105.015,219.976 103.945,219.745 103.264 C 219.635 102.940,219.325 102.591,219.055 102.487 C 218.785 102.383,218.564 102.057,218.564 101.762 C 218.564 101.467,218.417 101.226,218.237 101.226 C 218.058 101.226,217.819 100.938,217.708 100.587 C 217.596 100.236,217.231 99.641,216.896 99.265 C 216.561 98.890,215.744 97.798,215.079 96.839 C 214.415 95.881,213.777 95.018,213.661 94.921 C 213.546 94.825,213.073 94.194,212.609 93.520 C 212.146 92.846,211.681 92.215,211.575 92.119 C 211.469 92.023,210.673 91.007,209.806 89.861 C 208.940 88.715,207.837 87.356,207.356 86.840 C 206.874 86.325,206.086 85.401,205.604 84.787 C 203.735 82.403,202.945 81.453,202.102 80.574 C 201.620 80.072,200.674 78.962,200.000 78.108 C 199.326 77.254,198.144 75.890,197.373 75.076 C 195.128 72.706,193.681 71.001,193.807 70.875 C 193.918 70.764,195.919 72.392,196.673 73.206 C 196.865 73.415,197.474 74.012,198.026 74.533 C 202.651 78.905,210.477 87.274,212.670 90.193 C 213.105 90.771,213.742 91.498,214.086 91.810 C 214.430 92.121,214.711 92.485,214.711 92.619 C 214.711 92.822,216.609 95.418,217.163 95.972 C 217.259 96.068,217.882 96.935,218.546 97.898 C 219.210 98.862,219.859 99.729,219.987 99.825 C 220.116 99.921,220.331 100.355,220.467 100.788 C 220.602 101.222,220.843 101.576,221.001 101.576 C 221.160 101.576,221.380 101.934,221.490 102.371 C 221.599 102.809,221.971 103.483,222.316 103.870 C 222.660 104.258,223.336 105.358,223.818 106.315 C 224.299 107.273,224.812 108.109,224.956 108.173 C 225.101 108.237,225.219 108.513,225.219 108.786 C 225.219 109.059,225.369 109.282,225.553 109.282 C 225.737 109.282,225.991 109.834,226.118 110.508 C 226.244 111.182,226.488 111.734,226.659 111.734 C 226.830 111.734,226.970 111.970,226.970 112.259 C 226.970 113.708,229.533 111.853,229.994 110.070 C 230.107 109.637,230.329 109.282,230.489 109.282 C 230.649 109.282,230.887 108.573,231.017 107.706 C 231.147 106.839,231.393 106.130,231.563 106.130 C 231.734 106.130,231.874 105.587,231.874 104.924 C 231.874 104.261,232.032 103.622,232.224 103.503 C 232.419 103.382,232.574 101.755,232.574 99.825 C 232.574 97.895,232.419 96.268,232.224 96.147 C 232.032 96.028,231.874 95.398,231.874 94.746 C 231.874 94.095,231.716 93.464,231.524 93.345 C 231.331 93.226,231.173 92.807,231.173 92.414 C 231.173 91.396,229.291 87.104,228.460 86.227 C 228.218 85.973,228.021 85.611,228.021 85.424 C 228.021 85.062,227.626 84.520,226.357 83.138 C 225.924 82.666,225.569 82.135,225.569 81.957 C 225.569 81.435,219.623 75.619,217.338 73.905 C 216.182 73.038,215.028 72.132,214.774 71.891 C 214.519 71.651,214.086 71.454,213.810 71.454 C 213.535 71.454,213.310 71.332,213.310 71.183 C 213.310 71.034,212.719 70.602,211.996 70.223 C 211.274 69.844,210.604 69.454,210.508 69.355 C 210.142 68.983,205.760 66.900,205.342 66.900 C 205.101 66.900,204.904 66.743,204.904 66.550 C 204.904 66.357,204.707 66.199,204.466 66.197 C 204.225 66.196,203.574 65.958,203.018 65.669 C 202.463 65.379,201.399 65.045,200.654 64.926 C 199.909 64.807,199.299 64.596,199.299 64.457 C 199.299 64.154,195.984 63.047,195.077 63.047 C 194.725 63.047,194.344 62.897,194.231 62.713 C 194.117 62.529,193.080 62.272,191.925 62.142 C 190.771 62.011,189.742 61.767,189.639 61.600 C 189.535 61.433,188.839 61.296,188.091 61.296 C 187.343 61.296,186.634 61.138,186.515 60.946 C 186.396 60.753,185.382 60.595,184.263 60.595 C 182.110 60.595,178.987 63.165,178.410 65.412 C 178.299 65.845,178.081 66.200,177.926 66.200 C 177.771 66.200,177.538 66.830,177.408 67.601 C 177.278 68.371,177.043 69.002,176.887 69.002 C 176.731 69.002,176.513 69.672,176.404 70.490 C 176.294 71.309,176.103 72.663,175.978 73.498 C 175.838 74.443,175.900 75.164,176.142 75.407 C 176.357 75.621,176.532 76.553,176.532 77.478 C 176.532 78.403,176.690 79.159,176.883 79.159 C 177.075 79.159,177.234 79.514,177.235 79.947 C 177.236 80.381,177.473 81.187,177.760 81.739 C 178.048 82.291,178.284 82.876,178.284 83.040 C 178.284 83.569,181.478 88.616,181.813 88.616 C 181.991 88.616,182.137 88.775,182.137 88.970 C 182.137 89.294,183.476 90.971,184.482 91.905 C 184.712 92.119,185.754 93.122,186.797 94.133 C 187.841 95.144,188.790 95.972,188.906 95.972 C 189.022 95.972,189.601 96.445,190.193 97.023 C 190.784 97.601,191.485 98.074,191.752 98.074 C 192.018 98.074,192.288 98.194,192.353 98.342 C 192.552 98.799,195.560 100.876,196.023 100.876 C 196.264 100.876,196.886 101.270,197.406 101.751 C 197.926 102.233,198.643 102.627,199.000 102.627 C 199.358 102.627,199.650 102.772,199.650 102.949 C 199.650 103.127,200.123 103.376,200.701 103.503 C 201.278 103.630,201.751 103.841,201.751 103.973 C 201.751 104.278,204.385 105.429,205.081 105.429 C 205.369 105.429,205.604 105.585,205.604 105.775 C 205.604 105.966,206.235 106.222,207.005 106.345 C 207.776 106.469,208.406 106.707,208.406 106.875 C 208.406 107.043,208.712 107.180,209.086 107.180 C 209.460 107.180,209.855 107.324,209.964 107.500 C 210.072 107.676,210.830 107.930,211.648 108.065 C 212.466 108.200,213.315 108.456,213.536 108.633 C 213.756 108.811,214.741 109.051,215.725 109.168 C 216.708 109.284,217.515 109.555,217.517 109.769 C 217.519 109.983,217.909 110.867,218.384 111.734 C 218.859 112.601,219.349 113.586,219.472 113.923 C 219.595 114.260,219.823 114.536,219.978 114.536 C 220.133 114.536,220.363 115.009,220.490 115.587 C 220.617 116.165,220.854 116.637,221.016 116.637 C 221.178 116.637,221.414 117.109,221.540 117.684 C 221.667 118.260,221.916 118.821,222.093 118.931 C 222.271 119.041,222.417 119.437,222.417 119.811 C 222.417 120.184,222.567 120.490,222.751 120.490 C 222.935 120.490,223.189 121.042,223.316 121.716 C 223.442 122.391,223.686 122.942,223.857 122.942 C 224.028 122.942,224.169 123.218,224.170 123.555 C 224.171 123.892,224.408 124.620,224.696 125.171 C 224.983 125.723,225.219 126.393,225.219 126.660 C 225.219 126.927,225.356 127.145,225.524 127.145 C 225.692 127.145,225.931 127.776,226.054 128.546 C 226.177 129.317,226.419 129.947,226.591 129.947 C 226.764 129.947,227.013 130.735,227.145 131.698 C 227.278 132.661,227.529 133.538,227.704 133.645 C 227.878 133.753,228.021 134.226,228.021 134.697 C 228.021 135.167,228.164 135.552,228.338 135.552 C 228.513 135.552,228.767 136.379,228.903 137.391 C 229.039 138.402,229.275 139.387,229.428 139.580 C 230.029 140.340,230.211 143.820,229.677 144.354 C 229.395 144.636,229.054 145.214,228.919 145.638 C 228.785 146.063,228.552 146.410,228.403 146.410 C 228.254 146.410,227.831 146.998,227.463 147.718 C 227.096 148.437,226.598 149.237,226.357 149.494 C 226.116 149.752,225.919 150.188,225.919 150.463 C 225.919 150.738,225.762 150.963,225.569 150.963 C 225.377 150.963,225.219 151.200,225.219 151.489 C 225.219 151.778,225.064 152.014,224.875 152.014 C 224.686 152.014,224.433 152.408,224.312 152.890 C 224.191 153.371,223.952 153.765,223.780 153.765 C 223.608 153.765,223.468 153.990,223.468 154.266 C 223.468 154.541,223.270 154.974,223.029 155.229 C 222.788 155.483,222.275 156.322,221.891 157.093 C 221.506 157.863,221.085 158.574,220.956 158.673 C 220.827 158.771,220.613 159.283,220.480 159.811 C 220.348 160.339,220.099 160.771,219.927 160.771 C 219.755 160.771,219.615 161.086,219.615 161.471 C 219.615 161.856,219.470 162.172,219.292 162.172 C 219.115 162.172,218.866 162.644,218.739 163.222 C 218.612 163.800,218.363 164.273,218.186 164.273 C 218.008 164.273,217.860 164.549,217.856 164.886 C 217.851 165.223,217.382 166.445,216.813 167.601 C 216.243 168.757,215.774 169.978,215.770 170.315 C 215.765 170.652,215.618 170.928,215.442 170.928 C 215.267 170.928,215.016 171.559,214.886 172.329 C 214.756 173.100,214.506 173.730,214.330 173.730 C 214.154 173.730,214.011 174.124,214.011 174.606 C 214.011 175.088,213.871 175.482,213.700 175.482 C 213.529 175.482,213.284 176.187,213.154 177.050 C 213.025 177.912,212.775 178.707,212.599 178.815 C 212.423 178.924,212.175 179.798,212.048 180.758 C 211.921 181.717,211.680 182.587,211.513 182.691 C 211.345 182.794,211.208 183.254,211.208 183.713 C 211.208 184.172,211.062 184.638,210.883 184.748 C 210.703 184.859,210.448 185.854,210.314 186.958 C 210.180 188.063,209.951 189.124,209.803 189.317 C 209.656 189.510,209.421 190.849,209.282 192.294 C 209.143 193.739,208.905 195.079,208.754 195.271 C 208.227 195.942,207.437 204.730,207.391 210.446 C 207.349 215.566,207.860 216.026,209.592 212.431 C 210.148 211.277,210.766 210.018,210.965 209.632 C 211.164 209.247,212.207 207.198,213.282 205.079 C 214.357 202.960,215.333 201.147,215.452 201.051 C 215.570 200.954,215.789 200.482,215.937 200.000 C 216.085 199.518,216.303 199.046,216.422 198.949 C 216.642 198.770,217.520 197.204,218.974 194.396 C 219.423 193.529,219.869 192.741,219.965 192.644 C 220.061 192.548,220.534 191.681,221.016 190.718 C 221.497 189.755,221.970 188.888,222.067 188.791 C 222.163 188.695,222.518 188.104,222.855 187.478 C 224.393 184.621,224.721 184.065,225.131 183.616 C 225.372 183.353,225.569 182.912,225.569 182.637 C 225.569 182.362,225.727 182.137,225.919 182.137 C 226.112 182.137,226.270 181.900,226.270 181.611 C 226.270 181.322,226.410 181.086,226.582 181.086 C 226.754 181.086,226.993 180.692,227.114 180.210 C 227.235 179.729,227.488 179.335,227.677 179.335 C 227.866 179.335,228.021 179.159,228.021 178.944 C 228.021 178.730,228.730 177.416,229.597 176.025 C 230.464 174.634,231.173 173.385,231.173 173.248 C 231.173 173.112,231.449 172.702,231.786 172.338 C 232.123 171.973,232.793 170.916,233.275 169.988 C 233.757 169.060,234.426 168.046,234.764 167.735 C 235.101 167.423,235.377 167.001,235.377 166.797 C 235.377 166.592,235.575 166.217,235.818 165.962 C 236.061 165.707,236.445 165.080,236.672 164.569 C 236.938 163.967,237.462 163.555,238.156 163.402 C 238.746 163.273,239.229 163.022,239.229 162.844 C 239.229 162.667,239.545 162.522,239.930 162.522 C 240.315 162.522,240.630 162.364,240.630 162.172 C 240.630 161.979,240.906 161.820,241.243 161.819 C 241.581 161.818,242.297 161.587,242.834 161.307 C 243.372 161.026,244.359 160.694,245.027 160.569 C 245.696 160.443,246.329 160.201,246.434 160.030 C 246.540 159.860,247.002 159.720,247.461 159.720 C 247.919 159.720,248.386 159.573,248.496 159.394 C 248.607 159.215,249.562 158.960,250.618 158.828 C 251.675 158.696,252.539 158.463,252.539 158.310 C 252.539 157.617,258.512 157.507,259.199 158.188 C 259.563 158.549,260.089 159.032,260.368 159.262 C 260.646 159.492,260.930 159.808,260.998 159.963 C 261.223 160.478,265.401 163.185,266.334 163.418 C 266.838 163.545,267.250 163.787,267.250 163.957 C 267.250 164.126,267.881 164.366,268.651 164.489 C 269.422 164.612,270.053 164.850,270.053 165.018 C 270.053 165.187,270.595 165.324,271.258 165.324 C 271.921 165.324,272.560 165.482,272.680 165.674 C 272.799 165.867,274.369 166.025,276.182 166.025 C 277.995 166.025,279.565 165.867,279.685 165.674 C 279.804 165.482,280.286 165.324,280.756 165.324 C 281.226 165.324,281.611 165.187,281.611 165.020 C 281.611 164.852,282.158 164.626,282.826 164.518 C 284.153 164.303,284.180 164.285,286.602 162.149 C 287.518 161.342,288.266 160.465,288.266 160.201 C 288.266 159.936,288.390 159.720,288.541 159.720 C 288.966 159.720,290.018 157.769,290.018 156.980 C 290.018 156.593,290.199 156.215,290.421 156.141 C 291.224 155.873,288.217 152.108,284.719 148.999 C 283.246 147.691,280.067 145.809,278.897 145.553 C 278.271 145.416,277.758 145.176,277.758 145.021 C 277.758 144.732,277.092 144.565,273.380 143.922 C 271.091 143.525,265.882 143.785,265.344 144.324 C 265.159 144.508,264.646 144.658,264.203 144.658 C 263.760 144.658,263.398 144.799,263.398 144.970 C 263.398 145.141,262.846 145.385,262.172 145.511 C 261.497 145.638,260.946 145.892,260.946 146.075 C 260.946 146.259,260.749 146.410,260.508 146.410 C 259.693 146.412,254.291 152.365,254.291 153.262 C 254.291 153.597,262.471 153.038,262.855 152.677 C 263.322 152.238,271.804 152.273,271.804 152.715 C 271.804 152.907,272.489 153.065,273.327 153.065 C 275.736 153.065,280.210 153.497,280.209 153.729 C 280.209 153.845,273.423 153.957,265.129 153.977 C 254.300 154.003,249.937 154.126,249.649 154.414 C 249.428 154.635,248.609 154.823,247.828 154.831 C 246.295 154.848,244.023 155.256,242.919 155.715 C 242.371 155.942,242.425 155.790,243.181 154.974 C 243.705 154.409,244.133 153.749,244.133 153.506 C 244.133 153.263,244.280 153.065,244.460 153.065 C 244.639 153.065,244.892 152.733,245.021 152.327 C 245.254 151.590,245.710 150.954,247.198 149.291 C 247.631 148.806,247.986 148.209,247.986 147.964 C 247.986 147.719,248.104 147.466,248.249 147.402 C 248.688 147.207,250.788 144.375,250.788 143.979 C 250.788 143.775,250.912 143.608,251.063 143.608 C 251.214 143.608,251.630 143.113,251.987 142.509 C 252.344 141.904,252.890 141.140,253.201 140.810 C 253.988 139.973,254.715 139.035,255.405 137.965 C 255.729 137.462,256.202 136.832,256.456 136.564 C 256.710 136.296,257.623 135.131,258.485 133.975 C 259.347 132.820,260.411 131.498,260.850 131.038 C 261.288 130.578,261.646 130.078,261.646 129.927 C 261.646 129.775,262.119 129.178,262.697 128.600 C 263.275 128.022,263.748 127.446,263.748 127.320 C 263.748 127.195,264.181 126.636,264.711 126.079 C 266.012 124.711,266.550 124.057,266.550 123.845 C 266.550 123.747,266.983 123.217,267.513 122.666 C 268.043 122.116,268.905 121.126,269.429 120.465 C 270.510 119.102,271.993 117.424,274.882 114.297 C 275.982 113.107,277.259 111.644,277.719 111.047 C 280.961 106.836,292.604 95.913,293.655 96.095 C 295.943 96.492,298.964 97.208,299.315 97.436 C 299.515 97.568,301.052 97.786,302.730 97.922 C 304.407 98.059,305.779 98.294,305.779 98.445 C 305.779 99.070,323.165 99.742,323.766 99.141 C 323.968 98.939,325.363 98.774,326.865 98.774 C 328.368 98.774,329.597 98.637,329.597 98.469 C 329.597 98.301,331.016 98.053,332.750 97.917 C 334.483 97.782,335.902 97.543,335.902 97.388 C 335.902 97.232,336.925 96.995,338.175 96.861 C 339.425 96.727,340.538 96.472,340.647 96.295 C 340.757 96.117,341.232 95.972,341.702 95.972 C 342.172 95.972,342.557 95.829,342.557 95.655 C 342.557 95.480,343.345 95.229,344.308 95.096 C 345.271 94.964,346.060 94.713,346.060 94.538 C 346.060 94.363,346.414 94.220,346.848 94.219 C 347.281 94.217,348.087 93.981,348.639 93.693 C 349.191 93.405,349.861 93.170,350.128 93.170 C 350.395 93.170,350.613 93.012,350.613 92.820 C 350.613 92.627,350.876 92.469,351.198 92.469 C 351.897 92.469,356.342 90.364,356.509 89.954 C 356.573 89.796,356.812 89.667,357.040 89.667 C 357.497 89.667,360.143 88.316,360.420 87.941 C 360.517 87.811,361.187 87.429,361.909 87.093 C 362.631 86.757,363.222 86.349,363.222 86.186 C 363.222 86.023,363.616 85.791,364.098 85.671 C 364.580 85.550,364.974 85.296,364.974 85.107 C 364.974 84.918,365.210 84.764,365.499 84.764 C 365.788 84.764,366.025 84.617,366.025 84.437 C 366.025 84.257,366.379 83.999,366.813 83.863 C 367.246 83.727,367.948 83.243,368.372 82.788 C 368.796 82.334,369.241 81.961,369.360 81.961 C 369.480 81.961,369.786 81.764,370.041 81.524 C 370.296 81.283,371.022 80.692,371.655 80.210 C 373.174 79.054,381.786 70.565,381.786 70.224 C 381.786 70.077,382.141 69.624,382.574 69.217 C 383.008 68.810,383.663 68.004,384.031 67.426 C 384.398 66.848,384.910 66.249,385.169 66.095 C 385.428 65.941,385.639 65.654,385.639 65.457 C 385.639 65.260,385.836 64.879,386.077 64.611 C 387.116 63.452,387.391 63.055,387.391 62.712 C 387.391 62.511,387.545 62.347,387.734 62.347 C 387.923 62.347,388.177 61.953,388.297 61.471 C 388.418 60.989,388.641 60.595,388.792 60.595 C 388.942 60.595,389.165 60.201,389.286 59.720 C 389.407 59.238,389.660 58.844,389.849 58.844 C 390.038 58.844,390.193 58.608,390.193 58.319 C 390.193 58.030,390.338 57.793,390.515 57.793 C 390.692 57.793,390.941 57.320,391.068 56.743 C 391.195 56.165,391.444 55.692,391.622 55.692 C 391.799 55.692,391.944 55.535,391.944 55.344 C 391.944 54.779,393.139 52.189,393.400 52.189 C 393.532 52.189,393.751 51.682,393.887 51.062 C 394.023 50.443,394.265 49.694,394.423 49.399 C 394.582 49.103,394.969 48.231,395.284 47.461 C 395.598 46.690,395.989 45.803,396.153 45.490 C 396.316 45.176,396.560 44.309,396.694 43.563 C 396.829 42.817,397.066 42.045,397.221 41.848 C 397.376 41.650,397.612 40.665,397.746 39.658 C 397.879 38.652,398.126 37.828,398.294 37.828 C 398.462 37.828,398.599 37.290,398.599 36.632 C 398.599 35.973,398.738 35.382,398.908 35.318 C 399.487 35.100,400.000 27.132,399.965 18.896 C 399.927 9.837,399.817 8.985,398.672 8.820 C 398.247 8.758,397.898 8.574,397.898 8.410 C 397.898 8.246,397.426 8.008,396.848 7.881 C 396.270 7.754,395.797 7.544,395.797 7.413 C 395.797 7.283,395.285 6.958,394.658 6.691 C 394.032 6.424,392.859 5.912,392.051 5.554 C 391.243 5.197,390.257 4.904,389.862 4.904 C 389.466 4.904,389.142 4.746,389.142 4.553 C 389.142 4.361,388.836 4.203,388.462 4.203 C 388.088 4.203,387.688 4.050,387.572 3.863 C 387.456 3.676,386.580 3.419,385.625 3.293 C 384.670 3.166,383.888 2.936,383.888 2.782 C 383.888 2.628,383.021 2.394,381.961 2.262 C 380.902 2.129,380.035 1.881,380.035 1.711 C 380.035 1.541,379.418 1.401,378.663 1.401 C 377.909 1.401,377.239 1.262,377.175 1.092 C 376.820 0.151,356.437 -0.346,348.687 0.396 " stroke="none" fill="#04ba49" fill-rule="evenodd"></path><path id="path2" d="" stroke="none" fill="#84b4fc" fill-rule="evenodd"></path></g></svg>