<svg width="50" height="51" viewBox="0 0 50 51" fill="none" xmlns="http://www.w3.org/2000/svg">
<g filter="url(#filter0_d)">
<path d="M40.9766 13.5791C40.8746 13.2657 40.6761 12.9925 40.4095 12.7987C40.1429 12.6049 39.8218 12.5003 39.4922 12.5H35.9375V7.03125C35.9375 6.16699 35.2393 5.46875 34.375 5.46875H15.625C14.7607 5.46875 14.0625 6.16699 14.0625 7.03125V12.5H10.5078C10.178 12.4996 9.85659 12.6038 9.58983 12.7977C9.32307 12.9917 9.12475 13.2653 9.02344 13.5791L5.46875 24.5117V42.9688C5.46875 43.833 6.16699 44.5312 7.03125 44.5312H42.9688C43.833 44.5312 44.5312 43.833 44.5312 42.9688V24.5117L40.9766 13.5791ZM17.5781 8.98438H32.4219V12.5H17.5781V8.98438ZM41.0156 41.0156H8.98438V25.0684L11.9287 16.0156H38.0713L41.0156 25.0684V41.0156ZM31.8359 27.9297H26.5625V22.6562C26.5625 22.4414 26.3867 22.2656 26.1719 22.2656H23.8281C23.6133 22.2656 23.4375 22.4414 23.4375 22.6562V27.9297H18.1641C17.9492 27.9297 17.7734 28.1055 17.7734 28.3203V30.6641C17.7734 30.8789 17.9492 31.0547 18.1641 31.0547H23.4375V36.3281C23.4375 36.543 23.6133 36.7188 23.8281 36.7188H26.1719C26.3867 36.7188 26.5625 36.543 26.5625 36.3281V31.0547H31.8359C32.0508 31.0547 32.2266 30.8789 32.2266 30.6641V28.3203C32.2266 28.1055 32.0508 27.9297 31.8359 27.9297Z" fill="#FFF4F4"/>
</g>
<defs>
<filter id="filter0_d" x="-2" y="0" width="54" height="56" filterUnits="userSpaceOnUse" color-interpolation-filters="sRGB">
<feFlood flood-opacity="0" result="BackgroundImageFix"/>
<feColorMatrix in="SourceAlpha" type="matrix" values="0 0 0 0 0 0 0 0 0 0 0 0 0 0 0 0 0 0 127 0"/>
<feOffset dy="4"/>
<feGaussianBlur stdDeviation="1"/>
<feColorMatrix type="matrix" values="0 0 0 0 0 0 0 0 0 0 0 0 0 0 0 0 0 0 0.1 0"/>
<feBlend mode="normal" in2="BackgroundImageFix" result="effect1_dropShadow"/>
<feBlend mode="normal" in="SourceGraphic" in2="effect1_dropShadow" result="shape"/>
</filter>
</defs>
</svg>
