<svg id="svg" version="1.1" xmlns="http://www.w3.org/2000/svg" xmlns:xlink="http://www.w3.org/1999/xlink" width="400" height="400" viewBox="0, 0, 400,400"><g id="svgg"><path id="path0" d="M217.778 0.688 C 217.924 1.066,217.919 1.252,217.769 1.102 C 217.618 0.951,217.113 1.041,216.647 1.300 C 216.181 1.560,214.450 1.904,212.800 2.064 C 211.150 2.225,209.260 2.459,208.600 2.586 C 207.485 2.799,207.464 2.782,208.300 2.347 C 209.614 1.662,209.400 1.172,208.000 1.660 C 207.341 1.890,206.887 2.218,206.993 2.389 C 207.099 2.560,206.424 2.892,205.493 3.127 C 204.562 3.363,203.260 3.690,202.600 3.856 C 200.825 4.302,200.263 4.296,199.623 3.825 C 199.197 3.511,199.121 3.525,199.334 3.880 C 199.742 4.559,198.064 5.424,197.477 4.837 C 196.915 4.275,195.064 4.256,195.410 4.816 C 195.552 5.045,196.035 5.116,196.484 4.973 C 196.969 4.819,197.203 4.872,197.060 5.102 C 196.690 5.702,193.381 6.511,192.476 6.224 C 192.031 6.083,191.553 6.153,191.413 6.379 C 191.260 6.627,191.446 6.707,191.879 6.579 C 192.276 6.463,191.520 6.904,190.200 7.560 C 187.508 8.898,187.040 9.022,187.407 8.300 C 187.547 8.025,187.288 8.225,186.831 8.744 C 186.202 9.459,185.735 9.632,184.901 9.459 C 184.295 9.334,184.025 9.330,184.300 9.449 C 185.348 9.905,184.749 10.458,183.404 10.277 C 182.624 10.172,182.107 10.249,182.232 10.451 C 182.355 10.650,182.651 10.692,182.889 10.545 C 183.157 10.379,183.208 10.464,183.022 10.765 C 182.856 11.033,182.618 11.151,182.492 11.026 C 182.367 10.901,181.942 11.090,181.547 11.448 C 181.153 11.805,180.562 11.994,180.235 11.869 C 179.861 11.725,179.713 11.829,179.836 12.149 C 179.943 12.429,179.574 12.866,179.015 13.120 C 178.435 13.385,178.000 13.420,178.000 13.204 C 178.000 12.996,177.720 12.933,177.377 13.064 C 177.034 13.196,176.840 13.528,176.946 13.803 C 177.249 14.593,176.358 15.200,174.896 15.200 C 174.143 15.200,173.657 15.368,173.789 15.583 C 173.919 15.793,174.335 15.848,174.713 15.705 C 175.328 15.472,175.337 15.509,174.792 16.059 C 173.611 17.252,171.203 18.166,171.804 17.193 C 171.942 16.970,172.251 16.908,172.489 17.055 C 172.742 17.212,172.809 17.138,172.649 16.879 C 172.370 16.428,171.200 16.656,171.200 17.163 C 171.200 17.315,171.416 17.656,171.680 17.920 C 172.053 18.293,172.018 18.400,171.523 18.400 C 171.172 18.400,170.775 18.689,170.639 19.042 C 170.460 19.510,170.095 19.617,169.296 19.436 C 168.291 19.208,168.260 19.235,168.924 19.755 C 169.382 20.115,169.492 20.419,169.224 20.585 C 168.991 20.729,168.800 20.673,168.800 20.459 C 168.800 20.245,168.525 20.111,168.189 20.160 C 167.853 20.210,167.583 20.374,167.589 20.525 C 167.595 20.676,167.600 20.991,167.600 21.224 C 167.600 21.457,167.825 21.517,168.100 21.357 C 168.375 21.197,167.610 22.152,166.400 23.478 C 165.190 24.804,163.840 25.959,163.400 26.044 C 162.960 26.130,162.600 26.470,162.600 26.800 C 162.600 27.936,161.063 30.010,160.381 29.794 C 159.546 29.529,158.418 30.784,158.174 32.251 C 158.037 33.074,158.091 33.235,158.365 32.819 C 158.575 32.500,158.671 32.114,158.577 31.963 C 158.483 31.811,158.855 31.394,159.403 31.035 C 159.952 30.675,160.400 30.566,160.400 30.791 C 160.400 31.016,160.220 31.200,160.000 31.200 C 159.780 31.200,159.600 31.378,159.600 31.595 C 159.600 32.387,158.293 33.497,157.581 33.311 C 157.007 33.161,156.900 33.297,157.073 33.956 C 157.193 34.415,157.450 34.692,157.645 34.572 C 157.840 34.451,158.000 34.458,158.000 34.586 C 158.000 34.715,157.537 34.996,156.971 35.211 C 156.246 35.487,155.964 35.867,156.016 36.501 C 156.145 38.102,156.016 38.410,155.022 38.863 C 154.484 39.108,153.936 39.589,153.805 39.932 C 153.619 40.416,153.748 40.390,154.383 39.816 C 155.360 38.931,155.384 39.061,154.595 40.951 C 154.262 41.748,153.790 42.400,153.546 42.400 C 153.233 42.400,153.240 42.234,153.570 41.836 C 153.931 41.401,153.920 41.202,153.519 40.971 C 153.234 40.807,153.135 40.821,153.301 41.003 C 153.466 41.186,153.303 41.665,152.939 42.068 C 152.320 42.751,152.323 42.800,152.985 42.800 C 153.756 42.800,153.747 42.876,152.582 46.200 C 152.196 47.300,151.790 48.470,151.678 48.800 C 151.513 49.289,151.445 49.271,151.309 48.700 C 151.059 47.654,150.500 47.856,150.500 48.993 C 150.500 49.539,150.657 49.888,150.850 49.769 C 151.042 49.650,151.200 49.743,151.200 49.976 C 151.200 50.209,151.026 50.400,150.813 50.400 C 150.599 50.400,150.529 50.672,150.657 51.005 C 150.804 51.388,150.690 51.558,150.345 51.470 C 150.045 51.394,149.935 51.407,150.100 51.499 C 150.615 51.787,150.428 54.279,149.856 54.754 C 149.546 55.010,149.394 55.635,149.503 56.203 C 149.642 56.933,149.520 57.200,149.047 57.200 C 148.691 57.200,148.400 57.524,148.400 57.920 C 148.400 58.316,148.175 58.868,147.900 59.147 C 147.499 59.553,147.539 59.757,148.100 60.171 C 148.826 60.707,149.107 62.237,148.400 61.800 C 148.180 61.664,148.000 61.754,148.000 62.000 C 148.000 62.255,147.786 62.315,147.500 62.139 C 147.225 61.970,147.321 62.322,147.714 62.923 C 148.342 63.883,148.354 64.043,147.814 64.250 C 147.140 64.509,146.958 66.000,147.600 66.000 C 147.820 66.000,148.000 66.191,148.000 66.424 C 148.000 66.657,147.850 66.755,147.667 66.641 C 147.483 66.528,147.333 66.689,147.333 67.000 C 147.333 67.311,147.483 67.472,147.667 67.359 C 147.850 67.245,148.000 67.703,148.000 68.376 C 148.000 69.197,147.803 69.600,147.400 69.600 C 147.070 69.600,146.800 69.774,146.800 69.987 C 146.800 70.201,147.056 70.277,147.369 70.156 C 148.099 69.876,148.324 131.047,147.599 132.403 C 147.096 133.341,146.400 133.456,146.400 132.600 C 146.400 132.270,146.580 132.000,146.800 132.000 C 147.064 132.000,147.167 122.631,147.104 104.500 L 147.008 77.000 146.804 104.400 L 146.600 131.800 126.900 131.800 C 116.065 131.800,107.200 131.929,107.200 132.087 C 107.200 132.246,106.930 132.271,106.600 132.145 C 106.268 132.017,106.000 132.133,106.000 132.404 C 106.000 132.696,106.322 132.809,106.800 132.684 C 107.240 132.569,107.600 132.638,107.600 132.837 C 107.600 133.037,107.420 133.200,107.200 133.200 C 106.937 133.200,106.800 144.400,106.800 166.000 C 106.800 187.600,106.663 198.800,106.400 198.800 C 105.633 198.800,106.006 199.430,106.809 199.491 C 107.253 199.524,107.541 199.427,107.447 199.276 C 107.028 198.599,146.524 199.188,147.277 199.870 C 147.971 200.497,148.000 204.563,148.000 300.262 L 148.000 400.000 188.799 400.000 L 229.598 400.000 229.699 299.700 L 229.800 199.400 257.206 199.297 L 284.613 199.195 285.021 198.297 C 285.246 197.804,285.655 197.448,285.932 197.506 C 286.296 197.582,286.328 197.414,286.051 196.895 C 285.802 196.429,285.813 195.919,286.084 195.435 C 286.383 194.902,286.376 194.768,286.062 194.962 C 285.771 195.142,285.642 194.743,285.678 193.779 C 285.712 192.868,285.969 192.227,286.366 192.063 C 287.048 191.780,287.426 190.800,286.853 190.800 C 286.236 190.800,286.447 186.757,287.076 186.515 C 287.390 186.395,287.544 186.030,287.418 185.704 C 287.253 185.273,287.384 185.178,287.895 185.356 C 288.566 185.590,288.566 185.575,287.900 185.057 C 287.097 184.431,286.933 181.812,287.668 181.358 C 287.985 181.162,288.051 181.289,287.873 181.755 C 287.728 182.133,287.772 182.341,287.970 182.218 C 288.169 182.095,288.408 182.131,288.500 182.298 C 288.593 182.464,288.584 182.330,288.479 182.000 C 287.504 178.915,288.325 173.012,289.618 173.811 C 290.225 174.186,290.061 173.318,289.400 172.657 C 288.502 171.759,288.691 167.638,289.605 168.203 C 289.781 168.312,289.831 168.041,289.716 167.601 C 289.594 167.135,289.704 166.800,289.977 166.800 C 290.236 166.800,290.336 166.980,290.200 167.200 C 290.064 167.420,290.143 167.600,290.376 167.600 C 290.952 167.600,290.911 167.342,290.154 166.186 C 289.799 165.644,289.694 165.200,289.921 165.200 C 290.148 165.200,290.437 165.425,290.563 165.700 C 290.689 165.975,290.692 165.795,290.569 165.300 C 290.442 164.786,290.531 164.400,290.776 164.400 C 291.061 164.400,291.038 164.129,290.708 163.601 C 290.248 162.864,290.188 162.857,289.933 163.501 C 289.739 163.992,289.648 163.819,289.628 162.923 C 289.611 162.124,289.872 161.449,290.324 161.123 C 291.423 160.330,291.797 159.551,290.921 159.879 C 290.314 160.107,290.279 160.053,290.697 159.538 C 290.970 159.202,291.090 158.823,290.964 158.697 C 290.838 158.572,290.934 158.097,291.177 157.643 C 291.542 156.961,291.513 156.859,291.009 157.052 C 290.545 157.230,290.400 156.994,290.400 156.062 C 290.400 154.643,291.172 152.735,291.631 153.019 C 291.803 153.126,292.058 153.030,292.196 152.807 C 292.334 152.583,292.145 152.400,291.775 152.400 C 291.193 152.400,291.176 152.308,291.651 151.723 C 292.125 151.139,292.118 151.095,291.600 151.400 C 291.093 151.699,291.081 151.654,291.519 151.112 C 291.869 150.681,291.901 150.386,291.619 150.212 C 290.974 149.813,291.122 148.355,291.900 147.438 C 292.573 146.646,292.571 146.636,291.862 147.188 C 291.184 147.714,291.135 147.681,291.271 146.781 C 291.352 146.241,291.651 145.849,291.935 145.909 C 292.328 145.991,292.386 145.583,292.180 144.209 C 292.001 143.011,292.055 142.400,292.342 142.400 C 292.580 142.400,292.678 142.652,292.560 142.960 C 292.442 143.267,292.542 143.640,292.781 143.788 C 293.065 143.964,293.186 143.643,293.127 142.873 C 293.063 142.038,292.870 141.752,292.472 141.905 C 292.010 142.082,291.991 141.964,292.368 141.261 C 292.669 140.697,292.685 140.400,292.414 140.400 C 292.186 140.400,292.000 139.695,292.000 138.833 C 292.000 137.089,292.337 135.914,292.763 136.177 C 292.917 136.272,293.017 135.596,292.987 134.675 C 292.920 132.625,293.140 131.922,293.742 132.266 C 294.004 132.416,294.057 132.372,293.867 132.164 C 293.408 131.663,296.034 131.705,261.800 131.650 L 230.800 131.600 230.800 109.213 C 230.800 89.477,230.729 86.852,230.200 87.055 C 229.752 87.227,229.602 86.996,229.606 86.143 C 229.614 84.669,230.587 81.871,231.158 81.681 C 231.714 81.495,231.734 82.106,231.191 82.649 C 230.484 83.356,230.318 84.966,231.012 84.390 C 231.330 84.126,231.509 83.776,231.408 83.614 C 231.308 83.451,231.484 82.976,231.800 82.559 C 232.514 81.616,232.561 80.532,231.900 80.265 C 231.625 80.154,231.816 80.049,232.324 80.032 C 232.832 80.014,233.141 79.828,233.011 79.617 C 232.881 79.407,232.467 79.353,232.091 79.497 C 231.583 79.692,231.664 79.445,232.403 78.539 C 233.162 77.609,233.476 77.447,233.720 77.859 C 233.896 78.156,234.221 78.400,234.443 78.400 C 234.666 78.400,234.745 78.235,234.621 78.034 C 234.497 77.833,234.621 77.577,234.898 77.466 C 235.201 77.344,235.122 77.251,234.700 77.232 C 233.872 77.194,233.823 76.956,234.495 76.236 C 234.904 75.799,235.083 75.819,235.525 76.353 C 235.819 76.709,235.955 76.790,235.827 76.534 C 235.699 76.278,235.821 75.977,236.098 75.866 C 236.497 75.705,236.497 75.657,236.100 75.632 C 235.825 75.614,235.600 75.417,235.600 75.192 C 235.600 74.968,236.005 74.852,236.500 74.934 C 236.995 75.016,237.175 75.006,236.900 74.912 C 235.902 74.571,236.431 74.075,237.596 74.258 C 238.539 74.407,238.744 74.320,238.563 73.849 C 238.430 73.501,238.054 73.344,237.667 73.474 C 237.257 73.612,237.341 73.444,237.884 73.038 C 238.457 72.610,239.126 72.467,239.784 72.632 C 240.455 72.800,240.800 72.721,240.800 72.401 C 240.800 72.133,240.531 72.018,240.200 72.145 C 239.870 72.271,239.600 72.201,239.600 71.987 C 239.600 71.543,240.059 71.494,240.965 71.842 C 241.312 71.975,241.479 72.273,241.336 72.504 C 241.181 72.755,241.270 72.804,241.558 72.626 C 241.895 72.417,241.915 72.179,241.623 71.828 C 241.201 71.320,241.438 70.800,242.090 70.800 C 242.287 70.800,242.319 71.008,242.162 71.262 C 241.993 71.535,242.051 71.616,242.304 71.459 C 242.539 71.314,242.823 71.421,242.934 71.698 C 243.091 72.087,243.144 72.082,243.168 71.676 C 243.186 71.388,243.380 71.264,243.600 71.400 C 243.820 71.536,244.000 71.437,244.000 71.181 C 244.000 70.920,243.721 70.821,243.367 70.957 C 242.980 71.106,242.794 71.018,242.890 70.731 C 243.139 69.982,245.200 69.853,245.200 70.586 C 245.200 70.924,245.380 71.200,245.600 71.200 C 245.820 71.200,246.000 70.861,246.000 70.447 C 246.000 69.370,245.508 69.389,270.300 69.510 C 289.819 69.605,292.800 69.698,292.800 70.210 C 292.800 70.534,292.999 70.800,293.243 70.800 C 293.486 70.800,293.584 70.536,293.460 70.213 C 293.336 69.890,293.407 69.519,293.617 69.389 C 293.856 69.242,294.000 56.143,294.000 34.576 L 294.000 0.000 262.280 0.000 C 243.846 0.000,230.401 0.152,230.180 0.363 C 229.625 0.893,223.076 1.324,223.394 0.810 C 223.533 0.584,223.377 0.400,223.047 0.400 C 222.717 0.400,222.354 0.551,222.240 0.735 C 221.841 1.381,218.400 1.263,218.400 0.603 C 218.400 0.271,218.201 0.000,217.957 0.000 C 217.703 0.000,217.627 0.293,217.778 0.688 M213.492 0.642 C 213.015 1.118,213.159 1.600,213.776 1.600 C 214.093 1.600,214.481 1.392,214.638 1.138 C 214.807 0.865,214.749 0.784,214.496 0.941 C 214.261 1.086,214.004 1.013,213.926 0.777 C 213.847 0.542,213.652 0.481,213.492 0.642 M210.159 1.400 C 209.342 2.018,209.723 2.131,210.973 1.641 C 211.420 1.466,211.572 1.230,211.332 1.082 C 211.104 0.941,210.576 1.084,210.159 1.400 M189.755 6.572 C 189.624 6.915,189.355 7.096,189.158 6.974 C 188.961 6.852,188.800 6.943,188.800 7.176 C 188.800 7.750,189.298 7.709,190.184 7.061 C 190.698 6.685,190.781 6.435,190.458 6.236 C 190.199 6.076,189.889 6.225,189.755 6.572 M175.417 13.972 C 175.144 14.414,175.775 14.892,176.144 14.522 C 176.525 14.142,176.454 13.600,176.024 13.600 C 175.817 13.600,175.544 13.768,175.417 13.972 M164.902 23.137 C 164.645 23.296,164.581 23.645,164.756 23.929 C 165.005 24.332,165.172 24.316,165.555 23.855 C 166.092 23.207,165.623 22.692,164.902 23.137 M148.800 53.267 C 148.800 53.450,148.974 53.600,149.187 53.600 C 149.401 53.600,149.462 53.915,149.324 54.300 C 149.186 54.685,149.197 54.889,149.349 54.754 C 149.915 54.250,149.926 52.933,149.364 52.933 C 149.054 52.933,148.800 53.083,148.800 53.267 M149.600 57.754 C 149.600 57.839,149.331 58.424,149.002 59.054 C 148.379 60.250,148.241 60.033,148.652 58.500 C 148.848 57.770,149.600 57.178,149.600 57.754 M230.800 132.630 C 230.800 132.950,230.552 133.080,230.200 132.945 C 229.870 132.818,229.600 132.469,229.600 132.170 C 229.600 131.850,229.848 131.720,230.200 131.855 C 230.530 131.982,230.800 132.331,230.800 132.630 M291.108 154.383 C 290.831 155.367,290.997 155.937,291.432 155.501 C 291.560 155.373,291.601 154.848,291.524 154.334 L 291.384 153.400 291.108 154.383 M289.042 175.034 C 288.908 175.383,288.951 175.941,289.137 176.274 C 289.382 176.712,289.486 176.537,289.511 175.639 C 289.550 174.264,289.408 174.080,289.042 175.034 M288.602 178.797 C 288.467 179.015,288.542 179.510,288.768 179.897 C 289.116 180.490,289.168 180.428,289.103 179.500 C 289.018 178.289,288.963 178.212,288.602 178.797 M286.267 193.467 C 285.836 193.897,285.959 194.267,286.533 194.267 C 286.827 194.267,287.067 194.027,287.067 193.733 C 287.067 193.159,286.697 193.036,286.267 193.467 M146.997 300.200 C 146.997 355.200,147.043 377.641,147.100 350.068 C 147.157 322.495,147.157 277.495,147.100 250.068 C 147.043 222.641,146.997 245.200,146.997 300.200 " stroke="none" fill="#fcf4f4" fill-rule="evenodd"></path><path id="path1" d="M216.198 0.397 C 216.316 0.588,216.230 0.858,216.007 0.996 C 215.783 1.134,215.600 1.057,215.600 0.824 C 215.600 0.591,215.240 0.400,214.800 0.400 C 214.360 0.400,214.000 0.591,214.000 0.824 C 214.000 1.057,214.208 1.119,214.462 0.962 C 214.748 0.785,214.815 0.852,214.638 1.138 C 214.207 1.836,213.070 1.715,213.345 1.000 C 213.629 0.260,211.014 0.130,210.562 0.862 C 210.391 1.137,210.451 1.215,210.711 1.055 C 210.949 0.908,211.258 0.970,211.396 1.193 C 211.534 1.417,211.471 1.600,211.256 1.600 C 211.041 1.600,210.551 1.721,210.167 1.868 C 209.691 2.051,209.561 1.987,209.758 1.668 C 209.917 1.411,209.857 1.200,209.624 1.200 C 209.391 1.200,209.200 1.352,209.200 1.539 C 209.200 1.725,208.795 2.089,208.300 2.347 C 207.464 2.782,207.485 2.799,208.600 2.586 C 209.260 2.459,211.150 2.225,212.800 2.064 C 214.450 1.904,216.181 1.560,216.647 1.300 C 217.113 1.041,217.618 0.951,217.769 1.102 C 217.919 1.252,217.938 1.104,217.811 0.772 C 217.683 0.440,217.220 0.142,216.781 0.109 C 216.342 0.075,216.080 0.205,216.198 0.397 M218.400 0.604 C 218.400 1.081,218.858 1.188,220.567 1.113 C 221.759 1.060,222.648 0.878,222.543 0.708 C 222.439 0.539,222.644 0.400,223.000 0.400 C 223.356 0.400,223.533 0.584,223.394 0.810 C 223.224 1.084,224.241 1.138,226.470 0.972 C 231.933 0.567,231.108 0.000,225.056 0.000 C 222.029 0.000,219.645 0.150,219.759 0.333 C 219.872 0.517,219.711 0.667,219.400 0.667 C 219.089 0.667,218.928 0.517,219.041 0.333 C 219.155 0.150,219.057 -0.000,218.824 -0.000 C 218.591 -0.000,218.400 0.272,218.400 0.604 M205.665 1.951 C 205.371 2.138,204.432 2.251,203.577 2.202 C 202.723 2.154,202.119 2.269,202.235 2.457 C 202.445 2.796,201.871 2.956,200.900 2.830 C 200.625 2.794,200.397 2.998,200.394 3.282 C 200.389 3.693,200.318 3.690,200.049 3.266 C 199.790 2.856,199.513 2.985,198.856 3.820 C 198.256 4.582,198.000 4.716,198.000 4.266 C 198.000 3.847,197.782 3.709,197.369 3.867 C 196.816 4.080,196.810 4.181,197.322 4.694 C 198.033 5.404,199.816 4.683,199.334 3.880 C 199.121 3.525,199.197 3.511,199.623 3.825 C 200.263 4.296,200.825 4.302,202.600 3.856 C 203.260 3.690,204.562 3.363,205.493 3.127 C 206.424 2.892,207.098 2.558,206.990 2.384 C 206.883 2.210,207.021 1.977,207.298 1.866 C 207.574 1.754,207.440 1.652,207.000 1.638 C 206.560 1.624,205.959 1.765,205.665 1.951 M194.400 4.957 C 194.400 5.264,194.121 5.622,193.779 5.753 C 193.393 5.901,193.260 5.827,193.427 5.557 C 193.593 5.288,193.411 5.185,192.947 5.285 C 192.536 5.375,192.239 5.643,192.286 5.883 C 192.339 6.148,191.831 6.267,190.981 6.188 C 190.181 6.114,189.688 6.219,189.822 6.436 C 189.950 6.643,190.251 6.692,190.489 6.545 C 190.757 6.379,190.808 6.464,190.621 6.765 C 190.455 7.034,190.058 7.154,189.739 7.032 C 189.415 6.907,189.266 6.984,189.403 7.205 C 189.537 7.422,189.472 7.600,189.257 7.600 C 189.042 7.600,188.776 7.375,188.665 7.100 C 188.533 6.773,188.452 6.818,188.432 7.231 C 188.408 7.700,188.092 7.816,187.200 7.685 C 186.540 7.588,186.000 7.673,186.000 7.874 C 186.000 8.075,185.325 8.481,184.500 8.776 C 183.675 9.071,182.872 9.512,182.715 9.756 C 182.558 10.000,182.198 10.208,181.915 10.218 C 181.632 10.228,181.445 10.453,181.500 10.718 C 181.590 11.154,181.095 11.373,180.300 11.247 C 180.135 11.221,180.000 11.380,180.000 11.600 C 180.000 12.206,181.037 12.079,181.596 11.404 C 181.868 11.077,182.238 10.900,182.418 11.011 C 182.598 11.122,182.858 11.030,182.996 10.807 C 183.134 10.583,183.597 10.400,184.024 10.400 C 184.892 10.400,185.071 9.784,184.300 9.449 C 184.025 9.330,184.295 9.334,184.901 9.459 C 185.735 9.632,186.202 9.459,186.831 8.744 C 187.288 8.225,187.547 8.025,187.407 8.300 C 187.056 8.990,187.258 8.945,189.840 7.765 C 191.085 7.195,193.115 6.466,194.352 6.144 C 195.588 5.822,196.780 5.368,197.000 5.134 C 197.278 4.839,197.136 4.790,196.534 4.971 C 196.057 5.115,195.552 5.045,195.410 4.816 C 195.039 4.215,194.400 4.305,194.400 4.957 M179.100 11.433 C 178.965 11.568,178.955 11.940,179.078 12.259 C 179.252 12.713,179.070 12.783,178.251 12.577 C 177.566 12.405,177.200 12.476,177.200 12.780 C 177.200 13.037,177.380 13.136,177.600 13.000 C 177.820 12.864,178.000 12.940,178.000 13.168 C 178.000 13.444,178.335 13.430,179.000 13.127 C 179.550 12.877,179.997 12.565,179.994 12.436 C 179.981 11.929,179.332 11.201,179.100 11.433 M176.406 13.676 C 176.398 14.538,175.745 14.958,175.366 14.345 C 175.173 14.033,175.251 13.984,175.600 14.200 C 175.957 14.421,176.027 14.368,175.821 14.034 C 175.596 13.670,175.341 13.731,174.822 14.273 C 174.156 14.967,174.169 15.006,175.116 15.132 C 176.371 15.298,177.318 14.432,176.792 13.600 C 176.465 13.084,176.411 13.095,176.406 13.676 M172.829 15.766 C 172.555 16.095,172.464 16.581,172.627 16.844 C 172.808 17.137,172.754 17.219,172.489 17.055 C 172.251 16.908,171.942 16.970,171.804 17.193 C 171.203 18.166,173.611 17.252,174.792 16.059 C 175.336 15.509,175.332 15.471,174.749 15.691 C 174.391 15.827,173.924 15.764,173.712 15.552 C 173.464 15.304,173.148 15.381,172.829 15.766 M170.092 17.943 C 169.607 18.524,169.208 19.135,169.205 19.300 C 169.196 19.815,170.344 19.628,170.680 19.059 C 170.856 18.761,171.212 18.446,171.472 18.359 C 171.832 18.238,171.829 18.044,171.459 17.543 C 171.021 16.949,170.888 16.989,170.092 17.943 M167.804 20.007 C 167.942 20.230,168.223 20.309,168.428 20.183 C 168.632 20.056,168.800 20.154,168.800 20.400 C 168.800 20.646,168.999 20.724,169.243 20.574 C 169.551 20.383,169.521 20.196,169.143 19.956 C 168.391 19.480,167.499 19.513,167.804 20.007 M166.400 21.200 C 166.400 21.420,166.413 21.726,166.430 21.880 C 166.446 22.034,166.065 22.306,165.584 22.484 C 164.862 22.751,164.795 22.912,165.203 23.404 C 165.475 23.732,165.541 24.021,165.349 24.046 C 165.157 24.072,164.817 24.117,164.592 24.146 C 164.153 24.204,163.075 25.216,161.797 26.769 C 161.284 27.392,161.214 27.624,161.600 27.419 C 161.930 27.244,161.521 27.709,160.692 28.451 C 159.261 29.731,159.232 29.803,160.133 29.854 C 160.785 29.891,161.292 29.552,161.755 28.769 C 162.125 28.142,162.737 27.318,163.114 26.937 C 163.762 26.283,163.760 26.260,163.079 26.518 C 162.645 26.682,162.456 26.633,162.603 26.395 C 162.737 26.178,163.152 25.980,163.524 25.955 C 163.896 25.930,165.190 24.820,166.400 23.488 C 167.610 22.156,168.375 21.197,168.100 21.357 C 167.825 21.517,167.600 21.457,167.600 21.224 C 167.600 20.991,167.330 20.800,167.000 20.800 C 166.670 20.800,166.400 20.980,166.400 21.200 M159.399 31.060 C 158.960 31.387,158.347 31.800,158.038 31.978 C 157.695 32.175,157.583 32.578,157.750 33.013 C 158.038 33.763,159.600 32.612,159.600 31.650 C 159.600 31.439,159.825 31.186,160.100 31.088 C 160.375 30.990,160.510 30.810,160.399 30.687 C 160.289 30.565,159.839 30.733,159.399 31.060 M156.500 34.222 C 156.225 34.522,156.000 34.954,156.000 35.183 C 156.000 35.412,155.836 35.600,155.635 35.600 C 155.227 35.600,155.269 36.355,155.718 37.072 C 155.880 37.332,155.830 37.658,155.607 37.796 C 155.383 37.934,155.200 37.857,155.200 37.624 C 155.200 37.391,155.026 37.200,154.813 37.200 C 154.599 37.200,154.528 37.468,154.654 37.797 C 154.785 38.137,154.608 38.499,154.242 38.639 C 153.889 38.775,153.614 39.181,153.632 39.543 C 153.652 39.958,153.738 40.016,153.865 39.700 C 153.976 39.425,154.277 39.206,154.533 39.213 C 154.790 39.221,154.606 39.556,154.124 39.958 C 153.526 40.458,153.379 40.819,153.659 41.099 C 153.940 41.380,153.913 41.607,153.573 41.817 C 153.253 42.015,153.178 41.959,153.362 41.662 C 153.818 40.924,153.140 41.129,152.575 41.900 C 152.277 42.306,152.157 43.104,152.288 43.800 C 152.413 44.460,152.363 44.859,152.176 44.686 C 151.659 44.205,150.804 47.547,151.189 48.544 C 151.438 49.189,151.564 49.252,151.700 48.800 C 151.799 48.470,152.196 47.300,152.582 46.200 C 153.738 42.902,153.751 42.800,153.023 42.800 C 152.654 42.800,152.459 42.628,152.589 42.417 C 152.719 42.207,153.081 42.133,153.393 42.253 C 153.932 42.459,155.458 39.725,155.039 39.305 C 154.944 39.211,155.191 38.809,155.587 38.413 C 156.056 37.944,156.238 37.330,156.108 36.654 C 155.947 35.811,156.107 35.539,156.955 35.217 C 157.530 34.999,158.000 34.715,158.000 34.586 C 158.000 34.458,157.834 34.456,157.630 34.581 C 157.427 34.707,157.202 34.555,157.130 34.244 C 157.021 33.768,156.921 33.765,156.500 34.222 M150.080 49.280 C 149.450 49.910,149.463 51.193,150.100 51.227 C 150.375 51.242,150.190 51.452,149.689 51.693 C 148.803 52.120,148.672 53.092,149.525 52.908 C 149.971 52.812,149.826 54.329,149.349 54.754 C 149.197 54.889,149.186 54.685,149.324 54.300 C 149.462 53.915,149.401 53.600,149.187 53.600 C 148.974 53.600,148.800 53.971,148.800 54.424 C 148.800 54.877,148.647 55.153,148.460 55.037 C 148.274 54.922,148.106 55.361,148.087 56.014 C 148.061 56.945,148.226 57.200,148.855 57.200 C 149.466 57.200,149.628 56.975,149.533 56.256 C 149.465 55.736,149.623 55.055,149.883 54.741 C 150.143 54.427,150.411 53.322,150.478 52.286 C 150.545 51.249,150.735 50.400,150.900 50.400 C 151.065 50.400,151.200 50.209,151.200 49.976 C 151.200 49.743,150.989 49.683,150.732 49.842 C 150.417 50.036,150.348 49.913,150.519 49.466 C 150.823 48.675,150.726 48.634,150.080 49.280 M148.186 58.400 C 148.298 58.950,148.393 59.580,148.397 59.800 C 148.404 60.159,149.600 58.126,149.600 57.754 C 149.600 57.207,148.794 57.737,148.772 58.300 C 148.748 58.905,148.692 58.891,148.364 58.200 C 148.032 57.503,148.010 57.528,148.186 58.400 M147.743 60.595 C 147.871 60.928,147.830 61.200,147.653 61.200 C 147.476 61.200,147.303 61.920,147.268 62.800 C 147.210 64.294,147.509 64.758,148.130 64.137 C 148.275 63.992,148.212 63.655,147.990 63.388 C 147.523 62.825,147.908 61.496,148.442 61.826 C 148.639 61.948,148.800 61.696,148.800 61.266 C 148.800 60.837,148.510 60.374,148.155 60.238 C 147.694 60.061,147.577 60.163,147.743 60.595 M146.479 68.038 C 146.413 69.817,146.503 71.184,146.679 71.075 C 146.856 70.966,147.000 71.399,147.000 72.038 C 147.000 72.677,146.865 73.200,146.700 73.200 C 146.535 73.200,146.400 73.391,146.400 73.624 C 146.400 73.857,146.580 73.936,146.800 73.800 C 147.020 73.664,147.200 73.833,147.200 74.176 C 147.200 74.519,147.027 74.800,146.815 74.800 C 146.572 74.800,146.459 85.189,146.507 103.100 L 146.585 131.400 146.797 104.200 L 147.008 77.000 147.104 104.500 C 147.167 122.631,147.064 132.000,146.800 132.000 C 146.580 132.000,146.400 132.270,146.400 132.600 C 146.400 133.456,147.096 133.341,147.599 132.403 C 148.324 131.047,148.099 69.876,147.369 70.156 C 147.056 70.277,146.800 70.201,146.800 69.987 C 146.800 69.774,147.070 69.600,147.400 69.600 C 147.803 69.600,148.000 69.197,148.000 68.376 C 148.000 67.703,147.850 67.245,147.667 67.359 C 147.483 67.472,147.333 67.311,147.333 67.000 C 147.333 66.689,147.483 66.528,147.667 66.641 C 147.850 66.755,148.000 66.657,148.000 66.424 C 148.000 66.191,147.820 66.000,147.600 66.000 C 147.380 66.000,147.200 65.730,147.200 65.400 C 147.200 63.154,146.576 65.437,146.479 68.038 M246.900 69.474 C 245.772 69.702,245.709 70.800,246.824 70.800 C 247.277 70.800,247.536 70.620,247.400 70.400 C 247.264 70.180,247.343 70.000,247.576 70.000 C 247.809 70.000,248.000 70.180,248.000 70.400 C 248.000 70.662,255.733 70.800,270.400 70.800 C 290.044 70.800,292.800 70.726,292.800 70.200 C 292.800 69.674,290.120 69.599,271.100 69.595 C 259.165 69.592,249.040 69.522,248.600 69.441 C 248.160 69.359,247.395 69.374,246.900 69.474 M242.572 70.988 C 242.237 71.435,242.086 71.552,242.237 71.248 C 242.419 70.882,242.324 70.764,241.956 70.898 C 241.650 71.009,241.446 71.306,241.503 71.558 C 241.570 71.858,241.258 71.929,240.603 71.765 C 239.984 71.610,239.600 71.683,239.600 71.957 C 239.600 72.200,239.375 72.406,239.100 72.413 C 238.825 72.420,238.240 72.710,237.800 73.059 C 237.338 73.425,237.253 73.611,237.600 73.500 C 237.930 73.394,238.519 73.472,238.908 73.673 C 239.852 74.158,240.586 73.706,240.000 73.000 C 239.680 72.614,239.687 72.394,240.025 72.184 C 240.281 72.027,240.627 72.120,240.795 72.391 C 241.015 72.749,241.177 72.761,241.378 72.436 C 241.530 72.189,241.824 72.091,242.030 72.219 C 242.237 72.346,242.513 72.170,242.645 71.828 C 242.776 71.485,243.073 71.321,243.304 71.464 C 243.549 71.616,243.605 71.531,243.438 71.262 C 243.281 71.008,243.343 70.800,243.576 70.800 C 243.809 70.800,244.000 70.974,244.000 71.187 C 244.000 71.401,244.270 71.471,244.600 71.345 C 244.930 71.218,245.200 70.866,245.200 70.562 C 245.200 69.727,243.285 70.037,242.572 70.988 M236.043 74.692 C 235.572 75.197,235.572 75.337,236.045 75.636 C 236.478 75.910,236.485 75.989,236.076 75.994 C 235.788 75.997,235.678 76.203,235.832 76.451 C 236.022 76.760,236.227 76.695,236.477 76.248 C 236.678 75.888,236.733 75.415,236.598 75.197 C 236.463 74.979,236.753 74.800,237.243 74.800 C 237.733 74.800,238.008 74.675,237.855 74.522 C 237.353 74.019,236.606 74.089,236.043 74.692 M234.500 76.227 C 233.830 76.949,233.864 77.071,234.800 77.316 C 235.614 77.529,235.841 76.992,235.294 76.144 C 235.080 75.813,234.864 75.835,234.500 76.227 M232.457 78.467 L 231.513 79.631 232.606 79.433 C 234.025 79.176,234.202 78.965,233.763 78.055 C 233.426 77.357,233.333 77.386,232.457 78.467 M230.555 82.300 C 230.434 82.685,230.170 83.413,229.967 83.919 C 229.215 85.801,229.740 88.192,230.600 86.800 C 230.736 86.580,230.612 86.397,230.324 86.394 C 229.898 86.389,229.899 86.325,230.331 86.051 C 230.623 85.866,230.803 85.374,230.731 84.957 C 230.659 84.541,230.795 84.235,231.033 84.278 C 231.272 84.321,231.467 84.103,231.467 83.795 C 231.467 83.487,231.317 83.328,231.133 83.441 C 230.950 83.555,230.800 83.467,230.800 83.247 C 230.800 83.027,230.980 82.736,231.200 82.600 C 231.724 82.276,231.715 81.600,231.187 81.600 C 230.961 81.600,230.676 81.915,230.555 82.300 M106.800 132.200 C 107.208 132.691,107.180 132.800,106.649 132.800 C 106.056 132.800,106.000 135.626,106.000 165.800 C 106.000 187.533,106.137 198.800,106.400 198.800 C 106.663 198.800,106.800 187.611,106.800 166.033 C 106.800 143.362,106.930 133.223,107.223 133.126 C 107.737 132.954,107.280 131.600,106.708 131.600 C 106.474 131.600,106.513 131.854,106.800 132.200 M229.600 132.170 C 229.600 132.469,229.870 132.818,230.200 132.945 C 230.552 133.080,230.800 132.950,230.800 132.630 C 230.800 132.331,230.530 131.982,230.200 131.855 C 229.848 131.720,229.600 131.850,229.600 132.170 M292.925 133.614 C 292.872 134.973,292.992 135.501,293.325 135.373 C 293.959 135.130,294.076 132.560,293.475 132.065 C 293.121 131.773,292.981 132.168,292.925 133.614 M292.242 136.635 C 291.844 137.673,291.968 140.400,292.414 140.400 C 292.698 140.400,292.699 140.641,292.417 141.168 C 292.118 141.726,292.142 141.990,292.503 142.136 C 292.897 142.295,292.896 142.343,292.500 142.368 C 291.776 142.414,291.868 144.267,292.594 144.267 C 293.033 144.267,293.076 144.133,292.759 143.751 C 292.522 143.465,292.476 143.004,292.655 142.718 C 293.224 141.811,293.254 140.348,292.719 139.687 C 292.294 139.163,292.294 139.103,292.718 139.358 C 293.115 139.597,293.213 139.280,293.139 138.009 C 293.033 136.226,292.634 135.614,292.242 136.635 M291.473 145.860 C 291.323 146.010,291.200 146.502,291.200 146.952 C 291.200 147.725,291.239 147.732,291.883 147.089 C 292.349 146.623,292.436 146.276,292.156 145.996 C 291.931 145.771,291.624 145.710,291.473 145.860 M291.618 147.778 C 291.034 148.482,291.212 150.075,291.900 150.302 C 292.245 150.416,292.400 149.961,292.400 148.833 C 292.400 147.034,292.322 146.930,291.618 147.778 M291.569 150.876 C 291.293 151.994,291.363 152.400,291.835 152.400 C 292.481 152.400,292.602 151.372,292.000 151.000 C 291.780 150.864,291.586 150.808,291.569 150.876 M290.858 153.831 C 290.307 155.042,290.252 157.200,290.773 157.200 C 291.180 157.200,291.114 158.768,290.677 159.475 C 290.527 159.718,290.633 160.004,290.913 160.111 C 291.285 160.254,291.439 159.674,291.486 157.953 C 291.522 156.602,291.378 155.600,291.148 155.600 C 290.673 155.600,291.123 153.919,291.697 153.550 C 291.944 153.391,291.946 153.214,291.701 153.063 C 291.490 152.932,291.111 153.278,290.858 153.831 M290.080 161.280 C 289.816 161.544,289.621 162.309,289.646 162.980 C 289.674 163.711,289.768 163.908,289.881 163.471 C 290.064 162.766,290.088 162.766,290.622 163.471 C 291.113 164.120,291.136 164.061,290.827 162.940 C 290.598 162.112,290.630 161.530,290.920 161.240 C 291.186 160.974,291.202 160.800,290.960 160.800 C 290.740 160.800,290.344 161.016,290.080 161.280 M290.000 166.000 C 290.235 166.440,290.278 166.800,290.094 166.800 C 289.580 166.800,288.800 169.287,288.800 170.928 C 288.800 171.738,288.952 172.400,289.139 172.400 C 289.325 172.400,289.673 172.805,289.912 173.300 C 290.269 174.040,290.351 173.683,290.373 171.300 C 290.392 169.235,290.256 168.398,289.900 168.394 C 289.567 168.390,289.600 168.258,290.000 168.000 C 290.330 167.787,290.443 167.609,290.251 167.606 C 290.059 167.603,290.107 167.353,290.358 167.051 C 290.845 166.464,290.561 165.200,289.943 165.200 C 289.734 165.200,289.759 165.549,290.000 166.000 M288.605 174.537 C 288.123 175.272,287.977 176.247,288.063 178.161 C 288.139 179.840,288.005 180.955,287.690 181.270 C 287.049 181.911,287.056 184.675,287.700 184.935 C 288.079 185.088,288.082 185.144,287.713 185.168 C 287.444 185.186,287.320 185.447,287.436 185.748 C 287.551 186.050,287.390 186.395,287.076 186.515 C 286.291 186.817,286.269 190.800,287.053 190.800 C 287.354 190.800,287.579 190.665,287.553 190.500 C 287.527 190.335,287.538 190.110,287.579 190.000 C 287.619 189.890,287.722 188.826,287.807 187.635 C 287.892 186.445,288.105 185.365,288.281 185.235 C 288.456 185.106,288.600 183.622,288.600 181.938 C 288.600 180.013,288.749 178.960,289.000 179.102 C 289.220 179.227,289.276 179.191,289.126 179.023 C 288.975 178.855,289.002 178.322,289.186 177.838 C 289.376 177.337,289.358 176.668,289.143 176.284 C 288.898 175.846,288.923 175.317,289.215 174.771 C 289.871 173.546,289.378 173.356,288.605 174.537 M285.893 192.300 C 285.497 193.073,285.609 195.242,286.031 194.981 C 286.361 194.777,286.363 194.921,286.039 195.527 C 285.616 196.318,286.115 197.218,286.670 196.663 C 287.207 196.126,287.080 193.601,286.539 194.051 C 286.140 194.382,286.000 194.378,286.000 194.036 C 286.000 193.783,286.240 193.483,286.533 193.370 C 287.214 193.109,287.233 192.000,286.557 192.000 C 286.277 192.000,285.978 192.135,285.893 192.300 M285.264 197.696 C 285.009 197.951,284.800 198.393,284.800 198.677 C 284.800 199.094,279.469 199.214,257.300 199.297 L 229.800 199.400 229.699 299.700 C 229.610 388.692,229.666 400.000,230.199 400.000 C 230.732 400.000,230.800 388.702,230.800 300.200 L 230.800 200.400 257.800 200.350 C 272.650 200.322,284.980 200.255,285.200 200.200 C 285.420 200.145,285.735 200.075,285.900 200.044 C 286.065 200.013,285.930 199.813,285.600 199.600 C 285.101 199.277,285.134 199.206,285.800 199.175 C 286.240 199.154,286.375 199.046,286.100 198.935 C 285.825 198.824,285.600 198.558,285.600 198.343 C 285.600 198.128,285.780 198.064,286.000 198.200 C 286.220 198.336,286.400 198.267,286.400 198.047 C 286.400 197.394,285.763 197.197,285.264 197.696 M107.478 199.327 C 107.589 199.506,107.437 199.598,107.140 199.529 C 106.843 199.461,106.555 199.584,106.500 199.803 C 106.435 200.061,113.409 200.236,126.400 200.304 L 146.400 200.407 146.499 300.304 L 146.598 400.200 146.800 300.200 L 147.002 200.200 147.101 300.100 C 147.167 366.367,147.335 400.000,147.600 400.000 C 148.442 400.000,148.120 200.632,147.277 199.870 C 146.487 199.155,107.039 198.617,107.478 199.327 " stroke="none" fill="#f4f2f4" fill-rule="evenodd"></path><path id="path2" d="M180.177 10.567 C 179.750 10.879,179.494 11.227,179.607 11.340 C 179.720 11.453,180.259 11.202,180.806 10.782 C 181.945 9.907,181.355 9.706,180.177 10.567 M172.060 15.842 C 171.762 16.178,171.599 16.532,171.695 16.629 C 171.792 16.726,172.198 16.444,172.598 16.002 C 172.997 15.561,173.161 15.207,172.962 15.215 C 172.763 15.224,172.357 15.505,172.060 15.842 M168.744 18.823 C 167.850 19.602,167.846 19.623,168.678 19.220 C 169.160 18.987,169.666 18.617,169.801 18.398 C 170.195 17.762,169.763 17.935,168.744 18.823 M164.800 22.468 C 164.030 23.369,163.253 24.398,163.074 24.754 C 162.824 25.250,162.880 25.238,163.318 24.700 C 163.632 24.315,164.104 24.000,164.368 24.000 C 164.631 24.000,164.753 23.847,164.637 23.660 C 164.522 23.473,164.871 22.935,165.414 22.463 C 165.956 21.991,166.400 21.424,166.400 21.203 C 166.400 20.618,166.338 20.667,164.800 22.468 M160.700 27.287 C 160.315 27.768,160.006 28.351,160.013 28.581 C 160.029 29.079,161.600 27.272,161.600 26.756 C 161.600 26.240,161.480 26.311,160.700 27.287 M238.527 73.860 C 238.670 74.004,238.475 74.374,238.094 74.683 C 237.471 75.186,237.492 75.199,238.300 74.808 C 239.252 74.347,239.520 73.600,238.733 73.600 C 238.477 73.600,238.384 73.717,238.527 73.860 M117.072 131.900 C 122.392 131.963,131.212 131.963,136.672 131.900 C 142.133 131.837,137.780 131.785,127.000 131.785 C 116.220 131.785,111.753 131.837,117.072 131.900 M292.400 144.776 C 292.400 145.229,292.580 145.600,292.800 145.600 C 293.020 145.600,293.200 145.341,293.200 145.024 C 293.200 144.707,293.020 144.336,292.800 144.200 C 292.580 144.064,292.400 144.323,292.400 144.776 M290.715 166.000 C 290.812 166.660,290.960 167.200,291.045 167.200 C 291.130 167.200,291.200 166.660,291.200 166.000 C 291.200 165.340,291.051 164.800,290.869 164.800 C 290.687 164.800,290.618 165.340,290.715 166.000 M289.267 178.620 C 289.230 179.511,289.065 180.412,288.900 180.623 C 288.735 180.833,288.837 180.806,289.128 180.561 C 289.458 180.283,289.595 179.533,289.495 178.558 L 289.334 177.000 289.267 178.620 M287.422 190.729 C 287.258 191.459,287.222 192.156,287.342 192.276 C 287.643 192.577,288.120 190.556,287.899 189.917 C 287.801 189.633,287.586 189.998,287.422 190.729 " stroke="none" fill="#fcf8f4" fill-rule="evenodd"></path><path id="path3" d="M180.177 10.567 C 179.750 10.879,179.494 11.227,179.607 11.340 C 179.720 11.453,180.259 11.202,180.806 10.782 C 181.945 9.907,181.355 9.706,180.177 10.567 M172.060 15.842 C 171.762 16.178,171.599 16.532,171.695 16.629 C 171.792 16.726,172.198 16.444,172.598 16.002 C 172.997 15.561,173.161 15.207,172.962 15.215 C 172.763 15.224,172.357 15.505,172.060 15.842 M168.744 18.823 C 167.850 19.602,167.846 19.623,168.678 19.220 C 169.160 18.987,169.666 18.617,169.801 18.398 C 170.195 17.762,169.763 17.935,168.744 18.823 M164.800 22.468 C 164.030 23.369,163.253 24.398,163.074 24.754 C 162.824 25.250,162.880 25.238,163.318 24.700 C 163.632 24.315,164.104 24.000,164.368 24.000 C 164.631 24.000,164.753 23.847,164.637 23.660 C 164.522 23.473,164.871 22.935,165.414 22.463 C 165.956 21.991,166.400 21.424,166.400 21.203 C 166.400 20.618,166.338 20.667,164.800 22.468 M160.700 27.287 C 160.315 27.768,160.006 28.351,160.013 28.581 C 160.029 29.079,161.600 27.272,161.600 26.756 C 161.600 26.240,161.480 26.311,160.700 27.287 M238.527 73.860 C 238.670 74.004,238.475 74.374,238.094 74.683 C 237.471 75.186,237.492 75.199,238.300 74.808 C 239.252 74.347,239.520 73.600,238.733 73.600 C 238.477 73.600,238.384 73.717,238.527 73.860 M117.072 131.900 C 122.392 131.963,131.212 131.963,136.672 131.900 C 142.133 131.837,137.780 131.785,127.000 131.785 C 116.220 131.785,111.753 131.837,117.072 131.900 M292.400 144.776 C 292.400 145.229,292.580 145.600,292.800 145.600 C 293.020 145.600,293.200 145.341,293.200 145.024 C 293.200 144.707,293.020 144.336,292.800 144.200 C 292.580 144.064,292.400 144.323,292.400 144.776 M290.715 166.000 C 290.812 166.660,290.960 167.200,291.045 167.200 C 291.130 167.200,291.200 166.660,291.200 166.000 C 291.200 165.340,291.051 164.800,290.869 164.800 C 290.687 164.800,290.618 165.340,290.715 166.000 M289.267 178.620 C 289.230 179.511,289.065 180.412,288.900 180.623 C 288.735 180.833,288.837 180.806,289.128 180.561 C 289.458 180.283,289.595 179.533,289.495 178.558 L 289.334 177.000 289.267 178.620 M287.422 190.729 C 287.258 191.459,287.222 192.156,287.342 192.276 C 287.643 192.577,288.120 190.556,287.899 189.917 C 287.801 189.633,287.586 189.998,287.422 190.729 " stroke="none" fill="#fcf8f4" fill-rule="evenodd"></path><path id="path4" d="M180.177 10.567 C 179.750 10.879,179.494 11.227,179.607 11.340 C 179.720 11.453,180.259 11.202,180.806 10.782 C 181.945 9.907,181.355 9.706,180.177 10.567 M172.060 15.842 C 171.762 16.178,171.599 16.532,171.695 16.629 C 171.792 16.726,172.198 16.444,172.598 16.002 C 172.997 15.561,173.161 15.207,172.962 15.215 C 172.763 15.224,172.357 15.505,172.060 15.842 M168.744 18.823 C 167.850 19.602,167.846 19.623,168.678 19.220 C 169.160 18.987,169.666 18.617,169.801 18.398 C 170.195 17.762,169.763 17.935,168.744 18.823 M164.800 22.468 C 164.030 23.369,163.253 24.398,163.074 24.754 C 162.824 25.250,162.880 25.238,163.318 24.700 C 163.632 24.315,164.104 24.000,164.368 24.000 C 164.631 24.000,164.753 23.847,164.637 23.660 C 164.522 23.473,164.871 22.935,165.414 22.463 C 165.956 21.991,166.400 21.424,166.400 21.203 C 166.400 20.618,166.338 20.667,164.800 22.468 M160.700 27.287 C 160.315 27.768,160.006 28.351,160.013 28.581 C 160.029 29.079,161.600 27.272,161.600 26.756 C 161.600 26.240,161.480 26.311,160.700 27.287 M238.527 73.860 C 238.670 74.004,238.475 74.374,238.094 74.683 C 237.471 75.186,237.492 75.199,238.300 74.808 C 239.252 74.347,239.520 73.600,238.733 73.600 C 238.477 73.600,238.384 73.717,238.527 73.860 M117.072 131.900 C 122.392 131.963,131.212 131.963,136.672 131.900 C 142.133 131.837,137.780 131.785,127.000 131.785 C 116.220 131.785,111.753 131.837,117.072 131.900 M292.400 144.776 C 292.400 145.229,292.580 145.600,292.800 145.600 C 293.020 145.600,293.200 145.341,293.200 145.024 C 293.200 144.707,293.020 144.336,292.800 144.200 C 292.580 144.064,292.400 144.323,292.400 144.776 M290.715 166.000 C 290.812 166.660,290.960 167.200,291.045 167.200 C 291.130 167.200,291.200 166.660,291.200 166.000 C 291.200 165.340,291.051 164.800,290.869 164.800 C 290.687 164.800,290.618 165.340,290.715 166.000 M289.267 178.620 C 289.230 179.511,289.065 180.412,288.900 180.623 C 288.735 180.833,288.837 180.806,289.128 180.561 C 289.458 180.283,289.595 179.533,289.495 178.558 L 289.334 177.000 289.267 178.620 M287.422 190.729 C 287.258 191.459,287.222 192.156,287.342 192.276 C 287.643 192.577,288.120 190.556,287.899 189.917 C 287.801 189.633,287.586 189.998,287.422 190.729 " stroke="none" fill="#fcf8f4" fill-rule="evenodd"></path></g></svg>