<svg width="45" height="51" viewBox="0 0 45 51" fill="none" xmlns="http://www.w3.org/2000/svg">
<g filter="url(#filter0_d)">
<path d="M27.7734 19.0938H24.2578C24.0636 19.0938 23.9062 19.2581 23.9062 19.4609V23.1328C23.9062 23.3356 24.0636 23.5 24.2578 23.5H27.7734C27.9676 23.5 28.125 23.3356 28.125 23.1328V19.4609C28.125 19.2581 27.9676 19.0938 27.7734 19.0938Z" fill="#FFF4F4"/>
<path d="M34.8047 19.0938H31.2891C31.0949 19.0938 30.9375 19.2581 30.9375 19.4609V23.1328C30.9375 23.3356 31.0949 23.5 31.2891 23.5H34.8047C34.9989 23.5 35.1562 23.3356 35.1562 23.1328V19.4609C35.1562 19.2581 34.9989 19.0938 34.8047 19.0938Z" fill="#FFF4F4"/>
<path d="M27.7734 26.4375H24.2578C24.0636 26.4375 23.9062 26.6019 23.9062 26.8047V30.4766C23.9062 30.6794 24.0636 30.8438 24.2578 30.8438H27.7734C27.9676 30.8438 28.125 30.6794 28.125 30.4766V26.8047C28.125 26.6019 27.9676 26.4375 27.7734 26.4375Z" fill="#FFF4F4"/>
<path d="M34.8047 26.4375H31.2891C31.0949 26.4375 30.9375 26.6019 30.9375 26.8047V30.4766C30.9375 30.6794 31.0949 30.8438 31.2891 30.8438H34.8047C34.9989 30.8438 35.1562 30.6794 35.1562 30.4766V26.8047C35.1562 26.6019 34.9989 26.4375 34.8047 26.4375Z" fill="#FFF4F4"/>
<path d="M13.7109 26.4375H10.1953C10.0011 26.4375 9.84375 26.6019 9.84375 26.8047V30.4766C9.84375 30.6794 10.0011 30.8438 10.1953 30.8438H13.7109C13.9051 30.8438 14.0625 30.6794 14.0625 30.4766V26.8047C14.0625 26.6019 13.9051 26.4375 13.7109 26.4375Z" fill="#FFF4F4"/>
<path d="M20.7422 26.4375H17.2266C17.0324 26.4375 16.875 26.6019 16.875 26.8047V30.4766C16.875 30.6794 17.0324 30.8438 17.2266 30.8438H20.7422C20.9364 30.8438 21.0938 30.6794 21.0938 30.4766V26.8047C21.0938 26.6019 20.9364 26.4375 20.7422 26.4375Z" fill="#FFF4F4"/>
<path d="M13.7109 33.7812H10.1953C10.0011 33.7812 9.84375 33.9456 9.84375 34.1484V37.8203C9.84375 38.0231 10.0011 38.1875 10.1953 38.1875H13.7109C13.9051 38.1875 14.0625 38.0231 14.0625 37.8203V34.1484C14.0625 33.9456 13.9051 33.7812 13.7109 33.7812Z" fill="#FFF4F4"/>
<path d="M20.7422 33.7812H17.2266C17.0324 33.7812 16.875 33.9456 16.875 34.1484V37.8203C16.875 38.0231 17.0324 38.1875 17.2266 38.1875H20.7422C20.9364 38.1875 21.0938 38.0231 21.0938 37.8203V34.1484C21.0938 33.9456 20.9364 33.7812 20.7422 33.7812Z" fill="#FFF4F4"/>
<path d="M27.7734 33.7812H24.2578C24.0636 33.7812 23.9062 33.9456 23.9062 34.1484V37.8203C23.9062 38.0231 24.0636 38.1875 24.2578 38.1875H27.7734C27.9676 38.1875 28.125 38.0231 28.125 37.8203V34.1484C28.125 33.9456 27.9676 33.7812 27.7734 33.7812Z" fill="#FFF4F4"/>
<path d="M39.375 5.875H35.1562V2.9375H31.6406V5.875H13.3594V2.9375H9.84375V5.875H5.625C4.87908 5.875 4.16371 6.18449 3.63626 6.73537C3.10882 7.28626 2.8125 8.03343 2.8125 8.8125V41.125C2.8125 41.9041 3.10882 42.6512 3.63626 43.2021C4.16371 43.753 4.87908 44.0625 5.625 44.0625H39.375C40.1209 44.0625 40.8363 43.753 41.3637 43.2021C41.8912 42.6512 42.1875 41.9041 42.1875 41.125V8.8125C42.1875 8.03343 41.8912 7.28626 41.3637 6.73537C40.8363 6.18449 40.1209 5.875 39.375 5.875ZM38.3203 40.0234H6.67969V16.1562H38.3203V40.0234Z" fill="#FFF4F4"/>
</g>
<defs>
<filter id="filter0_d" x="-2" y="0" width="49" height="53" filterUnits="userSpaceOnUse" color-interpolation-filters="sRGB">
<feFlood flood-opacity="0" result="BackgroundImageFix"/>
<feColorMatrix in="SourceAlpha" type="matrix" values="0 0 0 0 0 0 0 0 0 0 0 0 0 0 0 0 0 0 127 0"/>
<feOffset dy="4"/>
<feGaussianBlur stdDeviation="1"/>
<feColorMatrix type="matrix" values="0 0 0 0 0 0 0 0 0 0 0 0 0 0 0 0 0 0 0.1 0"/>
<feBlend mode="normal" in2="BackgroundImageFix" result="effect1_dropShadow"/>
<feBlend mode="normal" in="SourceGraphic" in2="effect1_dropShadow" result="shape"/>
</filter>
</defs>
</svg>
