<?xml version="1.0" encoding="UTF-8" standalone="no"?>
<!-- Created with Inkscape (http://www.inkscape.org/) -->

<svg
   xmlns:dc="http://purl.org/dc/elements/1.1/"
   xmlns:cc="http://creativecommons.org/ns#"
   xmlns:rdf="http://www.w3.org/1999/02/22-rdf-syntax-ns#"
   xmlns:svg="http://www.w3.org/2000/svg"
   xmlns="http://www.w3.org/2000/svg"
   xmlns:sodipodi="http://sodipodi.sourceforge.net/DTD/sodipodi-0.dtd"
   xmlns:inkscape="http://www.inkscape.org/namespaces/inkscape"
   width="5.2851357mm"
   height="6.624229mm"
   viewBox="0 0 5.2851358 6.624229"
   version="1.1"
   id="svg8"
   inkscape:version="0.92.4 (5da689c313, 2019-01-14)">
  <defs
     id="defs2" />
  <sodipodi:namedview
     id="base"
     pagecolor="#ffffff"
     bordercolor="#666666"
     borderopacity="1.0"
     inkscape:pageopacity="0.0"
     inkscape:pageshadow="2"
     inkscape:zoom="15.839192"
     inkscape:cx="7.338031"
     inkscape:cy="12.651733"
     inkscape:document-units="mm"
     inkscape:current-layer="layer1"
     showgrid="false"
     showborder="false"
     inkscape:window-width="1316"
     inkscape:window-height="709"
     inkscape:window-x="50"
     inkscape:window-y="27"
     inkscape:window-maximized="1"
     fit-margin-top="0"
     fit-margin-left="0"
     fit-margin-right="0"
     fit-margin-bottom="0" />
  <metadata
     id="metadata5">
    <rdf:RDF>
      <cc:Work
         rdf:about="">
        <dc:format>image/svg+xml</dc:format>
        <dc:type
           rdf:resource="http://purl.org/dc/dcmitype/StillImage" />
        <dc:title></dc:title>
      </cc:Work>
    </rdf:RDF>
  </metadata>
  <g
     inkscape:label="Layer 1"
     inkscape:groupmode="layer"
     id="layer1"
     transform="translate(-166.95028,-333.89553)">
    <g
       id="g957"
       transform="matrix(0.09923629,0,0,0.10101713,167.37284,335.06483)">
      <g
         id="g955">
	<path
   id="path951"
   data-old_color="#000000"
   class="active-path"
   data-original="#000000"
   d="M 43,20.113 V 14.5 C 43,6.505 35.822,0 27,0 18.178,0 11,6.505 11,14.5 c 0,0.553 0.447,1 1,1 0.553,0 1,-0.447 1,-1 C 13,7.607 19.28,2 27,2 34.72,2 41,7.607 41,14.5 V 20 H 12.229 C 8.243,20 5,23.243 5,27.229 V 46.771 C 5,50.757 8.243,54 12.229,54 H 41.771 C 45.757,54 49,50.757 49,46.771 V 27.229 c 0,-3.566 -2.599,-6.53 -6,-7.116 z m 4,26.658 C 47,49.654 44.654,52 41.771,52 H 12.229 C 9.346,52 7,49.654 7,46.771 V 27.229 C 7,24.346 9.346,22 12.229,22 H 41.771 C 44.654,22 47,24.346 47,27.229 Z"
   inkscape:connector-curvature="0"
   style="fill:#d4c8c8" />

	<path
   id="path953"
   data-old_color="#000000"
   class="active-path"
   data-original="#000000"
   d="m 27,28 c -2.206,0 -4,1.794 -4,4 v 6 c 0,2.206 1.794,4 4,4 2.206,0 4,-1.794 4,-4 v -6 c 0,-2.206 -1.794,-4 -4,-4 z m 2,10 c 0,1.103 -0.897,2 -2,2 -1.103,0 -2,-0.897 -2,-2 v -6 c 0,-1.103 0.897,-2 2,-2 1.103,0 2,0.897 2,2 z"
   inkscape:connector-curvature="0"
   style="fill:#d4c8c8" />

</g>
    </g>
  </g>
</svg>
