<svg width="51" height="50" viewBox="0 0 51 50" fill="none" xmlns="http://www.w3.org/2000/svg">
<g filter="url(#filter0_d)">
<path d="M9.14844 24.5623C9.14824 24.1796 9.23209 23.8007 9.39521 23.4471C9.55832 23.0935 9.79749 22.7724 10.099 22.5019C10.4006 22.2315 10.7585 22.0171 11.1525 21.871C11.5464 21.725 11.9685 21.6501 12.3947 21.6508C12.8209 21.6502 13.2431 21.7251 13.637 21.8712C14.031 22.0173 14.389 22.2316 14.6907 22.502C14.9923 22.7724 15.2316 23.0936 15.3949 23.4471C15.5583 23.8006 15.6424 24.1796 15.6425 24.5623C15.6425 25.3356 15.3004 26.0772 14.6914 26.624C14.0825 27.1708 13.2566 27.478 12.3955 27.478C11.5343 27.478 10.7084 27.1708 10.0995 26.624C9.49053 26.0772 9.14844 25.3356 9.14844 24.5623Z" fill="#FFF4F4"/>
<path d="M40.5039 22.7789C41.9318 22.7789 43.0848 23.7841 43.097 25.0566L43.1024 31.2056H17.0459V22.7851L40.5039 22.7789Z" fill="#FFF4F4"/>
<path d="M14.0455 31.2008C14.9268 31.2008 15.6426 30.558 15.6426 29.7667C15.6426 28.9754 14.9268 28.3326 14.0455 28.3326H9.42882C9.21913 28.3325 9.01148 28.3695 8.81775 28.4416C8.62402 28.5136 8.44802 28.6193 8.29982 28.7525C8.15161 28.8857 8.03412 29.0438 7.95406 29.2179C7.874 29.3919 7.83295 29.5784 7.83325 29.7667C7.83325 30.558 8.54375 31.2008 9.42882 31.2008H14.0455Z" fill="#FFF4F4"/>
<path d="M44.6476 37.2481V43.6604H48.8761V23.3255C48.8764 23.0766 48.8221 22.83 48.7162 22.5999C48.6104 22.3699 48.4551 22.1608 48.2592 21.9846C48.0633 21.8085 47.8307 21.6687 47.5746 21.5733C47.3185 21.4779 47.044 21.4288 46.7668 21.4287C46.2057 21.428 45.6672 21.6274 45.2698 21.9831C44.8724 22.3388 44.6486 22.8216 44.6476 23.3255V32.6583H6.68099V19.4892C6.68099 18.4422 5.66424 17.5904 4.49513 17.5904V17.5917C3.32985 17.5917 2.41187 18.4422 2.41187 19.4886V43.6597H6.68022V37.2474H44.6476V37.2481Z" fill="#FFF4F4"/>
<path d="M31.2482 0.0962514C32.6011 0.0962514 34.8168 0.607064 36.0495 1.81844L34.3881 4.68394C34.0178 4.25256 33.5421 3.90336 32.9977 3.66328C32.4533 3.4232 31.8548 3.29868 31.2482 3.29931C29.9857 3.29931 28.8626 3.82869 28.136 4.65575L26.4417 1.88169C27.868 0.600189 29.8403 0.0955639 31.2482 0.0955639V0.0962514ZM30.7697 2.98375H31.7176V2.13194H32.6662V1.28219H31.7176V0.431064H30.7697V1.28219H29.8227V2.13194H30.7697V2.98375Z" fill="#FFF4F4"/>
<path d="M34.2908 7.0455C34.2908 7.77165 33.9696 8.46807 33.3978 8.98154C32.8259 9.495 32.0504 9.78347 31.2417 9.78347C30.4331 9.78347 29.6575 9.495 29.0857 8.98154C28.5139 8.46807 28.1926 7.77165 28.1926 7.0455C28.1926 6.31935 28.5139 5.62293 29.0857 5.10946C29.6575 4.596 30.4331 4.30753 31.2417 4.30753C32.0504 4.30753 32.8259 4.596 33.3978 5.10946C33.9696 5.62293 34.2908 6.31935 34.2908 7.0455Z" fill="#FFF4F4"/>
<path d="M28.3097 10.5634C26.1782 10.5738 24.9433 12.1268 24.6654 13.0041L22.0684 20.658H24.6968L26.6108 14.7854H27.9729L26.0642 20.6566H36.4055L34.5105 14.7854H35.8718L37.8364 20.658H40.4257L37.8188 13.0041C37.5416 12.1378 36.3327 10.6143 34.2479 10.5676L28.3097 10.5634Z" fill="#FFF4F4"/>
<path d="M8.88061 12.3234C5.13823 12.3234 2.09717 9.59131 2.09717 6.23081C2.09717 2.86963 5.13747 0.136814 8.88061 0.136814C12.6215 0.136814 15.6671 2.87031 15.6671 6.23081C15.6671 9.59131 12.6207 12.3234 8.88061 12.3234ZM8.87831 10.8151C11.6943 10.8151 13.9866 8.75875 13.9866 6.22944C13.9866 3.70288 11.695 1.64313 8.87831 1.64313C6.06387 1.64313 3.77542 3.70219 3.77542 6.22944C3.77542 8.75944 6.06387 10.8151 8.87831 10.8151Z" fill="#FFF4F4"/>
<path d="M8.91513 7.03519C8.83714 7.06733 8.75134 7.08116 8.66577 7.07539C8.5802 7.06961 8.49767 7.04443 8.4259 7.00219C8.36514 6.96709 8.31348 6.92069 8.27438 6.86614C8.23529 6.81158 8.20968 6.75014 8.19927 6.68594L8.19238 3.14463C8.19749 3.02617 8.25349 2.91409 8.34863 2.83191C8.44377 2.74972 8.57066 2.70382 8.70267 2.70382C8.83469 2.70382 8.96157 2.74972 9.05671 2.83191C9.15185 2.91409 9.20785 3.02617 9.21296 3.14463V5.89188L11.8283 4.78569C11.9494 4.74094 12.085 4.73972 12.207 4.78228C12.3291 4.82484 12.4282 4.90792 12.4839 5.0143C12.5396 5.12069 12.5476 5.24224 12.5062 5.35377C12.4648 5.4653 12.3773 5.55828 12.2617 5.61344L8.91437 7.0345L8.91513 7.03519Z" fill="#FFF4F4"/>
</g>
<defs>
<filter id="filter0_d" x="-1" y="0" width="53" height="50" filterUnits="userSpaceOnUse" color-interpolation-filters="sRGB">
<feFlood flood-opacity="0" result="BackgroundImageFix"/>
<feColorMatrix in="SourceAlpha" type="matrix" values="0 0 0 0 0 0 0 0 0 0 0 0 0 0 0 0 0 0 127 0"/>
<feOffset dy="4"/>
<feGaussianBlur stdDeviation="1"/>
<feColorMatrix type="matrix" values="0 0 0 0 0 0 0 0 0 0 0 0 0 0 0 0 0 0 0.1 0"/>
<feBlend mode="normal" in2="BackgroundImageFix" result="effect1_dropShadow"/>
<feBlend mode="normal" in="SourceGraphic" in2="effect1_dropShadow" result="shape"/>
</filter>
</defs>
</svg>
