<?xml version="1.0" encoding="UTF-8" standalone="no"?>
<!-- Created with Inkscape (http://www.inkscape.org/) -->

<svg
   xmlns:dc="http://purl.org/dc/elements/1.1/"
   xmlns:cc="http://creativecommons.org/ns#"
   xmlns:rdf="http://www.w3.org/1999/02/22-rdf-syntax-ns#"
   xmlns:svg="http://www.w3.org/2000/svg"
   xmlns="http://www.w3.org/2000/svg"
   xmlns:sodipodi="http://sodipodi.sourceforge.net/DTD/sodipodi-0.dtd"
   xmlns:inkscape="http://www.inkscape.org/namespaces/inkscape"
   width="5.16224mm"
   height="5.1369319mm"
   viewBox="0 0 5.1622401 5.1369319"
   version="1.1"
   id="svg8"
   inkscape:version="0.92.4 (5da689c313, 2019-01-14)">
  <defs
     id="defs2" />
  <sodipodi:namedview
     id="base"
     pagecolor="#ffffff"
     bordercolor="#666666"
     borderopacity="1.0"
     inkscape:pageopacity="0.0"
     inkscape:pageshadow="2"
     inkscape:zoom="15.839192"
     inkscape:cx="5.6005412"
     inkscape:cy="11.696691"
     inkscape:document-units="mm"
     inkscape:current-layer="layer1"
     showgrid="false"
     showborder="false"
     inkscape:window-width="1316"
     inkscape:window-height="709"
     inkscape:window-x="50"
     inkscape:window-y="27"
     inkscape:window-maximized="1"
     fit-margin-top="0"
     fit-margin-left="0"
     fit-margin-right="0"
     fit-margin-bottom="0" />
  <metadata
     id="metadata5">
    <rdf:RDF>
      <cc:Work
         rdf:about="">
        <dc:format>image/svg+xml</dc:format>
        <dc:type
           rdf:resource="http://purl.org/dc/dcmitype/StillImage" />
        <dc:title></dc:title>
      </cc:Work>
    </rdf:RDF>
  </metadata>
  <g
     inkscape:label="Layer 1"
     inkscape:groupmode="layer"
     id="layer1"
     transform="translate(-118.14777,-275.48383)">
    <g
       id="g876"
       transform="matrix(0.00877747,0,0,0.00908693,118.81594,275.96826)">
      <g
         id="g874">
	<g
   id="g872">
		<path
   id="path870"
   data-old_color="#000000"
   class="active-path"
   data-original="#000000"
   d="M 437.02,330.98 C 409.137,303.098 375.949,282.457 339.739,269.962 378.521,243.251 404,198.548 404,148 404,66.393 337.607,0 256,0 174.393,0 108,66.393 108,148 c 0,50.548 25.479,95.251 64.262,121.962 -36.21,12.495 -69.398,33.136 -97.281,61.018 C 26.629,379.333 0,443.62 0,512 h 40 c 0,-119.103 96.897,-216 216,-216 119.103,0 216,96.897 216,216 h 40 C 512,443.62 485.371,379.333 437.02,330.98 Z M 256,256 C 196.449,256 148,207.552 148,148 148,88.448 196.449,40 256,40 c 59.551,0 108,48.448 108,108 0,59.552 -48.449,108 -108,108 z"
   inkscape:connector-curvature="0"
   style="fill:#d4c8c8" />

	</g>

</g>
    </g>
  </g>
</svg>
